<ttFont>
    <TTGlyph name="A" xMin="-1" yMin="0" xMax="608" yMax="691">
      <contour>
        <pt x="-1" y="62" on="1"/>
        <pt x="51" y="80" on="1"/>
        <pt x="253" y="691" on="1"/>
        <pt x="349" y="691" on="1"/>
        <pt x="562" y="80" on="1"/>
        <pt x="608" y="62" on="1"/>
        <pt x="597" y="0" on="1"/>
        <pt x="362" y="0" on="1"/>
        <pt x="362" y="59" on="1"/>
        <pt x="450" y="80" on="1"/>
        <pt x="402" y="228" on="1"/>
        <pt x="188" y="228" on="1"/>
        <pt x="142" y="80" on="1"/>
        <pt x="228" y="60" on="1"/>
        <pt x="228" y="0" on="1"/>
        <pt x="12" y="0" on="1"/>
      </contour>
      <contour>
        <pt x="214" y="314" on="1"/>
        <pt x="374" y="314" on="1"/>
        <pt x="292" y="565" on="1"/>
      </contour>
    </TTGlyph>
    <TTGlyph name="AE" xMin="-12" yMin="0" xMax="749" yMax="691">
      <contour>
        <pt x="-12" y="62" on="1"/>
        <pt x="40" y="80" on="1"/>
        <pt x="296" y="691" on="1"/>
        <pt x="722" y="691" on="1"/>
        <pt x="742" y="503" on="1"/>
        <pt x="679" y="503" on="1"/>
        <pt x="641" y="605" on="1"/>
        <pt x="455" y="605" on="1"/>
        <pt x="455" y="395" on="1"/>
        <pt x="613" y="395" on="1"/>
        <pt x="613" y="309" on="1"/>
        <pt x="455" y="309" on="1"/>
        <pt x="455" y="86" on="1"/>
        <pt x="651" y="86" on="1"/>
        <pt x="686" y="187" on="1"/>
        <pt x="749" y="187" on="1"/>
        <pt x="729" y="0" on="1"/>
        <pt x="305" y="0" on="1"/>
        <pt x="295" y="71" on="1"/>
        <pt x="356" y="84" on="1"/>
        <pt x="356" y="258" on="1"/>
        <pt x="200" y="258" on="1"/>
        <pt x="129" y="80" on="1"/>
        <pt x="217" y="60" on="1"/>
        <pt x="217" y="0" on="1"/>
        <pt x="1" y="0" on="1"/>
      </contour>
      <contour>
        <pt x="342" y="612" on="1"/>
        <pt x="235" y="344" on="1"/>
        <pt x="356" y="344" on="1"/>
        <pt x="356" y="611" on="1"/>
      </contour>
    </TTGlyph>
    <TTGlyph name="Aacute" xMin="-1" yMin="0" xMax="608" yMax="932">
      <contour>
        <pt x="-1" y="62" on="1"/>
        <pt x="51" y="80" on="1"/>
        <pt x="253" y="691" on="1"/>
        <pt x="349" y="691" on="1"/>
        <pt x="562" y="80" on="1"/>
        <pt x="608" y="62" on="1"/>
        <pt x="597" y="0" on="1"/>
        <pt x="362" y="0" on="1"/>
        <pt x="362" y="59" on="1"/>
        <pt x="450" y="80" on="1"/>
        <pt x="402" y="228" on="1"/>
        <pt x="188" y="228" on="1"/>
        <pt x="142" y="80" on="1"/>
        <pt x="228" y="60" on="1"/>
        <pt x="228" y="0" on="1"/>
        <pt x="12" y="0" on="1"/>
      </contour>
      <contour>
        <pt x="332" y="928" on="1"/>
        <pt x="365" y="932" on="1"/>
        <pt x="423" y="841" on="1"/>
        <pt x="228" y="729" on="1"/>
        <pt x="189" y="780" on="1"/>
      </contour>
      <contour>
        <pt x="214" y="314" on="1"/>
        <pt x="374" y="314" on="1"/>
        <pt x="292" y="565" on="1"/>
      </contour>
    </TTGlyph>
    <TTGlyph name="Acircumflex" xMin="-1" yMin="0" xMax="608" yMax="894">
      <contour>
        <pt x="-1" y="62" on="1"/>
        <pt x="51" y="80" on="1"/>
        <pt x="253" y="691" on="1"/>
        <pt x="349" y="691" on="1"/>
        <pt x="562" y="80" on="1"/>
        <pt x="608" y="62" on="1"/>
        <pt x="597" y="0" on="1"/>
        <pt x="362" y="0" on="1"/>
        <pt x="362" y="59" on="1"/>
        <pt x="450" y="80" on="1"/>
        <pt x="402" y="228" on="1"/>
        <pt x="188" y="228" on="1"/>
        <pt x="142" y="80" on="1"/>
        <pt x="228" y="60" on="1"/>
        <pt x="228" y="0" on="1"/>
        <pt x="12" y="0" on="1"/>
      </contour>
      <contour>
        <pt x="317" y="894" on="1"/>
        <pt x="473" y="731" on="1"/>
        <pt x="471" y="726" on="1"/>
        <pt x="390" y="726" on="1"/>
        <pt x="303" y="785" on="1"/>
        <pt x="217" y="726" on="1"/>
        <pt x="137" y="726" on="1"/>
        <pt x="134" y="732" on="1"/>
        <pt x="291" y="894" on="1"/>
      </contour>
      <contour>
        <pt x="214" y="314" on="1"/>
        <pt x="374" y="314" on="1"/>
        <pt x="292" y="565" on="1"/>
      </contour>
    </TTGlyph>
    <TTGlyph name="Adieresis" xMin="-1" yMin="0" xMax="608" yMax="937">
      <contour>
        <pt x="-1" y="62" on="1"/>
        <pt x="51" y="80" on="1"/>
        <pt x="253" y="691" on="1"/>
        <pt x="349" y="691" on="1"/>
        <pt x="562" y="80" on="1"/>
        <pt x="608" y="62" on="1"/>
        <pt x="597" y="0" on="1"/>
        <pt x="362" y="0" on="1"/>
        <pt x="362" y="59" on="1"/>
        <pt x="450" y="80" on="1"/>
        <pt x="402" y="228" on="1"/>
        <pt x="188" y="228" on="1"/>
        <pt x="142" y="80" on="1"/>
        <pt x="228" y="60" on="1"/>
        <pt x="228" y="0" on="1"/>
        <pt x="12" y="0" on="1"/>
      </contour>
      <contour>
        <pt x="214" y="314" on="1"/>
        <pt x="374" y="314" on="1"/>
        <pt x="292" y="565" on="1"/>
      </contour>
      <contour>
        <pt x="368" y="809" on="0"/>
        <pt x="329" y="848" on="0"/>
        <pt x="329" y="899" on="0"/>
        <pt x="367" y="937" on="0"/>
        <pt x="420" y="937" on="0"/>
        <pt x="457" y="899" on="0"/>
        <pt x="457" y="873" on="1"/>
        <pt x="457" y="847" on="0"/>
        <pt x="419" y="809" on="0"/>
      </contour>
      <contour>
        <pt x="152" y="873" on="1"/>
        <pt x="152" y="899" on="0"/>
        <pt x="188" y="937" on="0"/>
        <pt x="241" y="937" on="0"/>
        <pt x="278" y="899" on="0"/>
        <pt x="278" y="846" on="0"/>
        <pt x="239" y="809" on="0"/>
        <pt x="189" y="809" on="0"/>
        <pt x="152" y="847" on="0"/>
      </contour>
    </TTGlyph>
    <TTGlyph name="Agrave" xMin="-1" yMin="0" xMax="608" yMax="925">
      <contour>
        <pt x="362" y="59" on="1"/>
        <pt x="450" y="80" on="1"/>
        <pt x="402" y="230" on="1"/>
        <pt x="188" y="230" on="1"/>
        <pt x="142" y="80" on="1"/>
        <pt x="228" y="60" on="1"/>
        <pt x="228" y="0" on="1"/>
        <pt x="12" y="0" on="1"/>
        <pt x="-1" y="62" on="1"/>
        <pt x="51" y="80" on="1"/>
        <pt x="253" y="691" on="1"/>
        <pt x="349" y="691" on="1"/>
        <pt x="562" y="80" on="1"/>
        <pt x="608" y="62" on="1"/>
        <pt x="597" y="0" on="1"/>
        <pt x="362" y="0" on="1"/>
      </contour>
      <contour>
        <pt x="189" y="843" on="1"/>
        <pt x="245" y="925" on="1"/>
        <pt x="279" y="919" on="1"/>
        <pt x="419" y="764" on="1"/>
        <pt x="382" y="720" on="1"/>
      </contour>
      <contour>
        <pt x="214" y="314" on="1"/>
        <pt x="374" y="314" on="1"/>
        <pt x="292" y="565" on="1"/>
      </contour>
    </TTGlyph>
    <TTGlyph name="Aring" xMin="-3" yMin="0" xMax="606" yMax="845">
      <contour>
        <pt x="357" y="662" on="1"/>
        <pt x="560" y="80" on="1"/>
        <pt x="606" y="62" on="1"/>
        <pt x="595" y="0" on="1"/>
        <pt x="360" y="0" on="1"/>
        <pt x="360" y="59" on="1"/>
        <pt x="448" y="80" on="1"/>
        <pt x="400" y="228" on="1"/>
        <pt x="186" y="228" on="1"/>
        <pt x="140" y="80" on="1"/>
        <pt x="226" y="60" on="1"/>
        <pt x="226" y="0" on="1"/>
        <pt x="10" y="0" on="1"/>
        <pt x="-3" y="62" on="1"/>
        <pt x="49" y="80" on="1"/>
        <pt x="241" y="662" on="1"/>
        <pt x="199" y="691" on="0"/>
        <pt x="199" y="745" on="1"/>
        <pt x="199" y="787" on="0"/>
        <pt x="228" y="816" on="1"/>
        <pt x="257" y="845" on="0"/>
        <pt x="299" y="845" on="1"/>
        <pt x="341" y="845" on="0"/>
        <pt x="400" y="786" on="0"/>
        <pt x="400" y="692" on="0"/>
      </contour>
      <contour>
        <pt x="212" y="314" on="1"/>
        <pt x="372" y="314" on="1"/>
        <pt x="290" y="565" on="1"/>
      </contour>
      <contour>
        <pt x="261" y="745" on="1"/>
        <pt x="261" y="727" on="0"/>
        <pt x="282" y="707" on="0"/>
        <pt x="317" y="707" on="0"/>
        <pt x="338" y="727" on="0"/>
        <pt x="338" y="745" on="1"/>
        <pt x="338" y="763" on="0"/>
        <pt x="317" y="783" on="0"/>
        <pt x="282" y="783" on="0"/>
        <pt x="261" y="763" on="0"/>
      </contour>
    </TTGlyph>
    <TTGlyph name="Atilde" xMin="-1" yMin="0" xMax="608" yMax="858">
      <contour>
        <pt x="-1" y="62" on="1"/>
        <pt x="51" y="80" on="1"/>
        <pt x="253" y="691" on="1"/>
        <pt x="349" y="691" on="1"/>
        <pt x="562" y="80" on="1"/>
        <pt x="608" y="62" on="1"/>
        <pt x="597" y="0" on="1"/>
        <pt x="362" y="0" on="1"/>
        <pt x="362" y="59" on="1"/>
        <pt x="450" y="80" on="1"/>
        <pt x="402" y="228" on="1"/>
        <pt x="188" y="228" on="1"/>
        <pt x="142" y="80" on="1"/>
        <pt x="228" y="60" on="1"/>
        <pt x="228" y="0" on="1"/>
        <pt x="12" y="0" on="1"/>
      </contour>
      <contour>
        <pt x="504" y="791" on="1"/>
        <pt x="449" y="730" on="0"/>
        <pt x="404" y="730" on="1"/>
        <pt x="380" y="730" on="0"/>
        <pt x="346" y="745" on="0"/>
        <pt x="315" y="763" on="0"/>
        <pt x="283" y="778" on="0"/>
        <pt x="230" y="778" on="0"/>
        <pt x="198" y="744" on="0"/>
        <pt x="190" y="727" on="1"/>
        <pt x="134" y="761" on="1"/>
        <pt x="134" y="778" on="1"/>
        <pt x="156" y="827" on="0"/>
        <pt x="206" y="848" on="1"/>
        <pt x="228" y="857" on="0"/>
        <pt x="295" y="857" on="0"/>
        <pt x="352" y="825" on="0"/>
        <pt x="375" y="808" on="1"/>
        <pt x="384" y="802" on="1"/>
        <pt x="445" y="858" on="1"/>
      </contour>
      <contour>
        <pt x="214" y="314" on="1"/>
        <pt x="374" y="314" on="1"/>
        <pt x="292" y="565" on="1"/>
      </contour>
    </TTGlyph>
    <TTGlyph name="B" xMin="46" yMin="0" xMax="538" yMax="691">
      <contour>
        <pt x="49" y="70" on="1"/>
        <pt x="110" y="84" on="1"/>
        <pt x="110" y="610" on="1"/>
        <pt x="46" y="616" on="1"/>
        <pt x="46" y="691" on="1"/>
        <pt x="277" y="691" on="1"/>
        <pt x="385" y="691" on="0"/>
        <pt x="449" y="640" on="1"/>
        <pt x="510" y="591" on="0"/>
        <pt x="510" y="510" on="1"/>
        <pt x="510" y="453" on="0"/>
        <pt x="478" y="408" on="1"/>
        <pt x="449" y="367" on="0"/>
        <pt x="407" y="354" on="1"/>
        <pt x="461" y="343" on="0"/>
        <pt x="498" y="304" on="1"/>
        <pt x="538" y="262" on="0"/>
        <pt x="538" y="138" on="0"/>
        <pt x="495" y="62" on="0"/>
        <pt x="460" y="40" on="1"/>
        <pt x="400" y="0" on="0"/>
        <pt x="298" y="0" on="1"/>
        <pt x="59" y="0" on="1"/>
      </contour>
      <contour>
        <pt x="405" y="500" on="1"/>
        <pt x="405" y="605" on="0"/>
        <pt x="271" y="605" on="1"/>
        <pt x="210" y="605" on="1"/>
        <pt x="210" y="390" on="1"/>
        <pt x="254" y="390" on="1"/>
        <pt x="331" y="390" on="0"/>
        <pt x="405" y="443" on="0"/>
      </contour>
      <contour>
        <pt x="210" y="86" on="1"/>
        <pt x="288" y="86" on="1"/>
        <pt x="386" y="86" on="0"/>
        <pt x="420" y="142" on="1"/>
        <pt x="433" y="164" on="0"/>
        <pt x="433" y="228" on="0"/>
        <pt x="408" y="270" on="0"/>
        <pt x="387" y="282" on="1"/>
        <pt x="348" y="304" on="0"/>
        <pt x="286" y="304" on="1"/>
        <pt x="210" y="304" on="1"/>
      </contour>
    </TTGlyph>
    <TTGlyph name="C" xMin="34" yMin="-4" xMax="554" yMax="691">
      <contour>
        <pt x="554" y="41" on="1"/>
        <pt x="491" y="-4" on="0"/>
        <pt x="377" y="-4" on="1"/>
        <pt x="239" y="-4" on="0"/>
        <pt x="141" y="84" on="1"/>
        <pt x="34" y="181" on="0"/>
        <pt x="34" y="338" on="1"/>
        <pt x="34" y="504" on="0"/>
        <pt x="136" y="602" on="1"/>
        <pt x="229" y="691" on="0"/>
        <pt x="372" y="691" on="1"/>
        <pt x="436" y="691" on="0"/>
        <pt x="520" y="672" on="1"/>
        <pt x="539" y="490" on="1"/>
        <pt x="471" y="490" on="1"/>
        <pt x="432" y="598" on="1"/>
        <pt x="413" y="605" on="0"/>
        <pt x="319" y="605" on="0"/>
        <pt x="232" y="563" on="0"/>
        <pt x="202" y="528" on="1"/>
        <pt x="139" y="454" on="0"/>
        <pt x="139" y="348" on="1"/>
        <pt x="139" y="233" on="0"/>
        <pt x="208" y="158" on="1"/>
        <pt x="278" y="82" on="0"/>
        <pt x="394" y="82" on="1"/>
        <pt x="437" y="82" on="0"/>
        <pt x="509" y="108" on="0"/>
        <pt x="525" y="120" on="1"/>
      </contour>
    </TTGlyph>
    <TTGlyph name="Ccedilla" xMin="35" yMin="-258" xMax="555" yMax="691">
      <contour>
        <pt x="281" y="-76" on="1"/>
        <pt x="309" y="2" on="1"/>
        <pt x="193" y="23" on="0"/>
        <pt x="118" y="108" on="1"/>
        <pt x="35" y="202" on="0"/>
        <pt x="35" y="338" on="1"/>
        <pt x="35" y="504" on="0"/>
        <pt x="136" y="602" on="1"/>
        <pt x="230" y="691" on="0"/>
        <pt x="373" y="691" on="1"/>
        <pt x="437" y="691" on="0"/>
        <pt x="521" y="672" on="1"/>
        <pt x="540" y="490" on="1"/>
        <pt x="472" y="490" on="1"/>
        <pt x="433" y="598" on="1"/>
        <pt x="414" y="605" on="0"/>
        <pt x="321" y="605" on="0"/>
        <pt x="233" y="563" on="0"/>
        <pt x="202" y="528" on="1"/>
        <pt x="140" y="456" on="0"/>
        <pt x="140" y="348" on="1"/>
        <pt x="140" y="233" on="0"/>
        <pt x="209" y="158" on="1"/>
        <pt x="279" y="82" on="0"/>
        <pt x="395" y="82" on="1"/>
        <pt x="438" y="82" on="0"/>
        <pt x="510" y="108" on="0"/>
        <pt x="526" y="120" on="1"/>
        <pt x="555" y="41" on="1"/>
        <pt x="500" y="2" on="0"/>
        <pt x="399" y="-3" on="1"/>
        <pt x="385" y="-39" on="1"/>
        <pt x="420" y="-48" on="0"/>
        <pt x="471" y="-98" on="0"/>
        <pt x="471" y="-193" on="0"/>
        <pt x="395" y="-258" on="0"/>
        <pt x="329" y="-258" on="1"/>
        <pt x="280" y="-258" on="0"/>
        <pt x="222" y="-234" on="1"/>
        <pt x="216" y="-232" on="1"/>
        <pt x="257" y="-152" on="1"/>
        <pt x="323" y="-195" on="1"/>
        <pt x="358" y="-195" on="0"/>
        <pt x="376" y="-170" on="1"/>
        <pt x="383" y="-161" on="0"/>
        <pt x="383" y="-127" on="0"/>
        <pt x="350" y="-94" on="0"/>
        <pt x="309" y="-94" on="1"/>
        <pt x="297" y="-93" on="1"/>
      </contour>
    </TTGlyph>
    <TTGlyph name="D" xMin="49" yMin="0" xMax="597" yMax="691">
      <contour>
        <pt x="217" y="85" on="1"/>
        <pt x="492" y="85" on="0"/>
        <pt x="492" y="351" on="1"/>
        <pt x="492" y="471" on="0"/>
        <pt x="420" y="540" on="1"/>
        <pt x="350" y="606" on="0"/>
        <pt x="233" y="606" on="1"/>
        <pt x="209" y="605" on="1"/>
        <pt x="209" y="86" on="1"/>
      </contour>
      <contour>
        <pt x="110" y="85" on="1"/>
        <pt x="110" y="611" on="1"/>
        <pt x="50" y="617" on="1"/>
        <pt x="50" y="691" on="1"/>
        <pt x="239" y="691" on="1"/>
        <pt x="402" y="691" on="0"/>
        <pt x="498" y="604" on="1"/>
        <pt x="597" y="515" on="0"/>
        <pt x="597" y="185" on="0"/>
        <pt x="502" y="92" on="1"/>
        <pt x="408" y="0" on="0"/>
        <pt x="243" y="0" on="1"/>
        <pt x="59" y="0" on="1"/>
        <pt x="49" y="71" on="1"/>
      </contour>
    </TTGlyph>
    <TTGlyph name="E" xMin="48" yMin="0" xMax="502" yMax="691">
      <contour>
        <pt x="49" y="691" on="1"/>
        <pt x="475" y="691" on="1"/>
        <pt x="495" y="503" on="1"/>
        <pt x="432" y="503" on="1"/>
        <pt x="394" y="605" on="1"/>
        <pt x="208" y="605" on="1"/>
        <pt x="208" y="395" on="1"/>
        <pt x="366" y="395" on="1"/>
        <pt x="366" y="309" on="1"/>
        <pt x="208" y="309" on="1"/>
        <pt x="208" y="86" on="1"/>
        <pt x="404" y="86" on="1"/>
        <pt x="439" y="187" on="1"/>
        <pt x="502" y="187" on="1"/>
        <pt x="482" y="0" on="1"/>
        <pt x="58" y="0" on="1"/>
        <pt x="48" y="71" on="1"/>
        <pt x="109" y="84" on="1"/>
        <pt x="109" y="611" on="1"/>
        <pt x="49" y="616" on="1"/>
      </contour>
    </TTGlyph>
    <TTGlyph name="Eacute" xMin="48" yMin="0" xMax="502" yMax="932">
      <contour>
        <pt x="333" y="928" on="1"/>
        <pt x="367" y="932" on="1"/>
        <pt x="424" y="841" on="1"/>
        <pt x="229" y="729" on="1"/>
        <pt x="189" y="780" on="1"/>
      </contour>
      <contour>
        <pt x="49" y="691" on="1"/>
        <pt x="475" y="691" on="1"/>
        <pt x="495" y="503" on="1"/>
        <pt x="432" y="503" on="1"/>
        <pt x="394" y="605" on="1"/>
        <pt x="208" y="605" on="1"/>
        <pt x="208" y="395" on="1"/>
        <pt x="366" y="395" on="1"/>
        <pt x="366" y="309" on="1"/>
        <pt x="208" y="309" on="1"/>
        <pt x="208" y="86" on="1"/>
        <pt x="404" y="86" on="1"/>
        <pt x="439" y="187" on="1"/>
        <pt x="502" y="187" on="1"/>
        <pt x="482" y="0" on="1"/>
        <pt x="58" y="0" on="1"/>
        <pt x="48" y="71" on="1"/>
        <pt x="109" y="84" on="1"/>
        <pt x="109" y="611" on="1"/>
        <pt x="49" y="616" on="1"/>
      </contour>
    </TTGlyph>
    <TTGlyph name="Ecircumflex" xMin="48" yMin="0" xMax="502" yMax="894">
      <contour>
        <pt x="284" y="894" on="1"/>
        <pt x="440" y="731" on="1"/>
        <pt x="438" y="726" on="1"/>
        <pt x="357" y="726" on="1"/>
        <pt x="270" y="785" on="1"/>
        <pt x="184" y="726" on="1"/>
        <pt x="104" y="726" on="1"/>
        <pt x="101" y="732" on="1"/>
        <pt x="258" y="894" on="1"/>
      </contour>
      <contour>
        <pt x="49" y="691" on="1"/>
        <pt x="475" y="691" on="1"/>
        <pt x="495" y="503" on="1"/>
        <pt x="432" y="503" on="1"/>
        <pt x="394" y="605" on="1"/>
        <pt x="208" y="605" on="1"/>
        <pt x="208" y="395" on="1"/>
        <pt x="366" y="395" on="1"/>
        <pt x="366" y="309" on="1"/>
        <pt x="208" y="309" on="1"/>
        <pt x="208" y="86" on="1"/>
        <pt x="404" y="86" on="1"/>
        <pt x="439" y="187" on="1"/>
        <pt x="502" y="187" on="1"/>
        <pt x="482" y="0" on="1"/>
        <pt x="58" y="0" on="1"/>
        <pt x="48" y="71" on="1"/>
        <pt x="109" y="84" on="1"/>
        <pt x="109" y="611" on="1"/>
        <pt x="49" y="616" on="1"/>
      </contour>
    </TTGlyph>
    <TTGlyph name="Edieresis" xMin="48" yMin="0" xMax="502" yMax="948">
      <contour>
        <pt x="49" y="691" on="1"/>
        <pt x="475" y="691" on="1"/>
        <pt x="495" y="503" on="1"/>
        <pt x="432" y="503" on="1"/>
        <pt x="394" y="605" on="1"/>
        <pt x="208" y="605" on="1"/>
        <pt x="208" y="395" on="1"/>
        <pt x="366" y="395" on="1"/>
        <pt x="366" y="309" on="1"/>
        <pt x="208" y="309" on="1"/>
        <pt x="208" y="86" on="1"/>
        <pt x="404" y="86" on="1"/>
        <pt x="439" y="187" on="1"/>
        <pt x="502" y="187" on="1"/>
        <pt x="482" y="0" on="1"/>
        <pt x="58" y="0" on="1"/>
        <pt x="48" y="71" on="1"/>
        <pt x="109" y="84" on="1"/>
        <pt x="109" y="611" on="1"/>
        <pt x="49" y="616" on="1"/>
      </contour>
      <contour>
        <pt x="342" y="820" on="0"/>
        <pt x="303" y="859" on="0"/>
        <pt x="303" y="910" on="0"/>
        <pt x="341" y="948" on="0"/>
        <pt x="394" y="948" on="0"/>
        <pt x="431" y="910" on="0"/>
        <pt x="431" y="884" on="1"/>
        <pt x="431" y="858" on="0"/>
        <pt x="393" y="820" on="0"/>
      </contour>
      <contour>
        <pt x="126" y="884" on="1"/>
        <pt x="126" y="910" on="0"/>
        <pt x="162" y="948" on="0"/>
        <pt x="215" y="948" on="0"/>
        <pt x="252" y="910" on="0"/>
        <pt x="252" y="857" on="0"/>
        <pt x="213" y="820" on="0"/>
        <pt x="163" y="820" on="0"/>
        <pt x="126" y="858" on="0"/>
      </contour>
    </TTGlyph>
    <TTGlyph name="Egrave" xMin="48" yMin="0" xMax="502" yMax="925">
      <contour>
        <pt x="147" y="843" on="1"/>
        <pt x="204" y="925" on="1"/>
        <pt x="238" y="919" on="1"/>
        <pt x="377" y="764" on="1"/>
        <pt x="341" y="720" on="1"/>
      </contour>
      <contour>
        <pt x="49" y="691" on="1"/>
        <pt x="475" y="691" on="1"/>
        <pt x="495" y="503" on="1"/>
        <pt x="432" y="503" on="1"/>
        <pt x="394" y="605" on="1"/>
        <pt x="208" y="605" on="1"/>
        <pt x="208" y="395" on="1"/>
        <pt x="366" y="395" on="1"/>
        <pt x="366" y="309" on="1"/>
        <pt x="208" y="309" on="1"/>
        <pt x="208" y="86" on="1"/>
        <pt x="404" y="86" on="1"/>
        <pt x="439" y="187" on="1"/>
        <pt x="502" y="187" on="1"/>
        <pt x="482" y="0" on="1"/>
        <pt x="58" y="0" on="1"/>
        <pt x="48" y="71" on="1"/>
        <pt x="109" y="84" on="1"/>
        <pt x="109" y="611" on="1"/>
        <pt x="49" y="616" on="1"/>
      </contour>
    </TTGlyph>
    <TTGlyph name="Eth" xMin="37" yMin="0" xMax="596" yMax="691">
      <contour>
        <pt x="37" y="379" on="1"/>
        <pt x="47" y="390" on="1"/>
        <pt x="109" y="390" on="1"/>
        <pt x="109" y="611" on="1"/>
        <pt x="49" y="617" on="1"/>
        <pt x="49" y="691" on="1"/>
        <pt x="238" y="691" on="1"/>
        <pt x="401" y="691" on="0"/>
        <pt x="497" y="604" on="1"/>
        <pt x="596" y="515" on="0"/>
        <pt x="596" y="185" on="0"/>
        <pt x="501" y="92" on="1"/>
        <pt x="407" y="0" on="0"/>
        <pt x="242" y="0" on="1"/>
        <pt x="58" y="0" on="1"/>
        <pt x="48" y="71" on="1"/>
        <pt x="109" y="85" on="1"/>
        <pt x="109" y="311" on="1"/>
        <pt x="37" y="311" on="1"/>
      </contour>
      <contour>
        <pt x="491" y="354" on="1"/>
        <pt x="491" y="417" on="0"/>
        <pt x="450" y="513" on="0"/>
        <pt x="412" y="544" on="1"/>
        <pt x="338" y="607" on="0"/>
        <pt x="208" y="607" on="1"/>
        <pt x="208" y="390" on="1"/>
        <pt x="374" y="390" on="1"/>
        <pt x="381" y="390" on="0"/>
        <pt x="381" y="382" on="1"/>
        <pt x="381" y="311" on="1"/>
        <pt x="208" y="311" on="1"/>
        <pt x="208" y="86" on="1"/>
        <pt x="232" y="86" on="1"/>
        <pt x="361" y="86" on="0"/>
        <pt x="427" y="158" on="1"/>
        <pt x="491" y="226" on="0"/>
      </contour>
    </TTGlyph>
    <TTGlyph name="Euro" xMin="31" yMin="-4" xMax="531" yMax="693">
      <contour>
        <pt x="353" y="-4" on="1"/>
        <pt x="142" y="-4" on="0"/>
        <pt x="97" y="222" on="1"/>
        <pt x="31" y="222" on="1"/>
        <pt x="31" y="298" on="1"/>
        <pt x="88" y="298" on="1"/>
        <pt x="87" y="308" on="0"/>
        <pt x="87" y="317" on="1"/>
        <pt x="87" y="348" on="1"/>
        <pt x="31" y="348" on="1"/>
        <pt x="31" y="424" on="1"/>
        <pt x="92" y="424" on="1"/>
        <pt x="109" y="562" on="0"/>
        <pt x="250" y="693" on="0"/>
        <pt x="363" y="693" on="1"/>
        <pt x="455" y="693" on="0"/>
        <pt x="512" y="676" on="1"/>
        <pt x="531" y="500" on="1"/>
        <pt x="463" y="500" on="1"/>
        <pt x="424" y="598" on="1"/>
        <pt x="400" y="607" on="0"/>
        <pt x="324" y="607" on="0"/>
        <pt x="262" y="579" on="0"/>
        <pt x="242" y="554" on="1"/>
        <pt x="205" y="507" on="0"/>
        <pt x="196" y="424" on="1"/>
        <pt x="450" y="424" on="1"/>
        <pt x="450" y="348" on="1"/>
        <pt x="192" y="348" on="1"/>
        <pt x="193" y="298" on="1"/>
        <pt x="450" y="298" on="1"/>
        <pt x="450" y="222" on="1"/>
        <pt x="201" y="222" on="1"/>
        <pt x="214" y="153" on="0"/>
        <pt x="251" y="120" on="1"/>
        <pt x="293" y="82" on="0"/>
        <pt x="370" y="82" on="1"/>
        <pt x="413" y="82" on="0"/>
        <pt x="478" y="108" on="0"/>
        <pt x="494" y="120" on="1"/>
        <pt x="523" y="41" on="1"/>
        <pt x="460" y="-4" on="0"/>
      </contour>
    </TTGlyph>
    <TTGlyph name="F" xMin="48" yMin="0" xMax="496" yMax="691">
      <contour>
        <pt x="58" y="0" on="1"/>
        <pt x="48" y="71" on="1"/>
        <pt x="109" y="84" on="1"/>
        <pt x="109" y="611" on="1"/>
        <pt x="49" y="616" on="1"/>
        <pt x="49" y="691" on="1"/>
        <pt x="475" y="691" on="1"/>
        <pt x="496" y="503" on="1"/>
        <pt x="434" y="503" on="1"/>
        <pt x="394" y="605" on="1"/>
        <pt x="208" y="605" on="1"/>
        <pt x="208" y="395" on="1"/>
        <pt x="366" y="395" on="1"/>
        <pt x="366" y="309" on="1"/>
        <pt x="208" y="309" on="1"/>
        <pt x="208" y="88" on="1"/>
        <pt x="370" y="65" on="1"/>
        <pt x="364" y="0" on="1"/>
      </contour>
    </TTGlyph>
    <TTGlyph name="G" xMin="33" yMin="-4" xMax="559" yMax="691">
      <contour>
        <pt x="459" y="86" on="1"/>
        <pt x="460" y="233" on="1"/>
        <pt x="346" y="247" on="1"/>
        <pt x="364" y="318" on="1"/>
        <pt x="559" y="318" on="1"/>
        <pt x="559" y="14" on="1"/>
        <pt x="487" y="-4" on="0"/>
        <pt x="317" y="-4" on="0"/>
        <pt x="186" y="42" on="0"/>
        <pt x="137" y="86" on="1"/>
        <pt x="33" y="179" on="0"/>
        <pt x="33" y="337" on="1"/>
        <pt x="33" y="497" on="0"/>
        <pt x="130" y="594" on="1"/>
        <pt x="227" y="691" on="0"/>
        <pt x="381" y="691" on="1"/>
        <pt x="456" y="691" on="0"/>
        <pt x="537" y="670" on="1"/>
        <pt x="552" y="489" on="1"/>
        <pt x="479" y="489" on="1"/>
        <pt x="443" y="600" on="1"/>
        <pt x="413" y="605" on="0"/>
        <pt x="325" y="605" on="0"/>
        <pt x="237" y="565" on="0"/>
        <pt x="206" y="530" on="1"/>
        <pt x="138" y="453" on="0"/>
        <pt x="138" y="340" on="1"/>
        <pt x="138" y="223" on="0"/>
        <pt x="210" y="153" on="1"/>
        <pt x="283" y="82" on="0"/>
        <pt x="405" y="82" on="1"/>
        <pt x="439" y="82" on="0"/>
      </contour>
    </TTGlyph>
    <TTGlyph name="H" xMin="49" yMin="0" xMax="623" yMax="691">
      <contour>
        <pt x="109" y="610" on="1"/>
        <pt x="49" y="615" on="1"/>
        <pt x="49" y="691" on="1"/>
        <pt x="259" y="691" on="1"/>
        <pt x="269" y="616" on="1"/>
        <pt x="209" y="606" on="1"/>
        <pt x="209" y="399" on="1"/>
        <pt x="463" y="399" on="1"/>
        <pt x="463" y="610" on="1"/>
        <pt x="406" y="615" on="1"/>
        <pt x="406" y="691" on="1"/>
        <pt x="613" y="691" on="1"/>
        <pt x="623" y="616" on="1"/>
        <pt x="563" y="606" on="1"/>
        <pt x="563" y="81" on="1"/>
        <pt x="623" y="73" on="1"/>
        <pt x="623" y="0" on="1"/>
        <pt x="416" y="0" on="1"/>
        <pt x="406" y="72" on="1"/>
        <pt x="463" y="83" on="1"/>
        <pt x="463" y="313" on="1"/>
        <pt x="209" y="313" on="1"/>
        <pt x="209" y="81" on="1"/>
        <pt x="270" y="73" on="1"/>
        <pt x="270" y="0" on="1"/>
        <pt x="59" y="0" on="1"/>
        <pt x="49" y="72" on="1"/>
        <pt x="109" y="83" on="1"/>
      </contour>
    </TTGlyph>
    <TTGlyph name="I" xMin="46" yMin="0" xMax="274" yMax="691">
      <contour>
        <pt x="109" y="610" on="1"/>
        <pt x="46" y="615" on="1"/>
        <pt x="46" y="691" on="1"/>
        <pt x="264" y="691" on="1"/>
        <pt x="274" y="616" on="1"/>
        <pt x="209" y="606" on="1"/>
        <pt x="209" y="81" on="1"/>
        <pt x="274" y="73" on="1"/>
        <pt x="274" y="0" on="1"/>
        <pt x="55" y="0" on="1"/>
        <pt x="46" y="72" on="1"/>
        <pt x="109" y="83" on="1"/>
      </contour>
    </TTGlyph>
    <TTGlyph name="Iacute" xMin="46" yMin="0" xMax="281" yMax="932">
      <contour>
        <pt x="190" y="928" on="1"/>
        <pt x="224" y="932" on="1"/>
        <pt x="281" y="841" on="1"/>
        <pt x="86" y="729" on="1"/>
        <pt x="47" y="780" on="1"/>
      </contour>
      <contour>
        <pt x="109" y="610" on="1"/>
        <pt x="46" y="615" on="1"/>
        <pt x="46" y="691" on="1"/>
        <pt x="264" y="691" on="1"/>
        <pt x="274" y="616" on="1"/>
        <pt x="209" y="606" on="1"/>
        <pt x="209" y="81" on="1"/>
        <pt x="274" y="73" on="1"/>
        <pt x="274" y="0" on="1"/>
        <pt x="55" y="0" on="1"/>
        <pt x="46" y="72" on="1"/>
        <pt x="109" y="83" on="1"/>
      </contour>
    </TTGlyph>
    <TTGlyph name="Icircumflex" xMin="-10" yMin="0" xMax="329" yMax="894">
      <contour>
        <pt x="109" y="610" on="1"/>
        <pt x="46" y="615" on="1"/>
        <pt x="46" y="691" on="1"/>
        <pt x="264" y="691" on="1"/>
        <pt x="274" y="616" on="1"/>
        <pt x="209" y="606" on="1"/>
        <pt x="209" y="81" on="1"/>
        <pt x="274" y="73" on="1"/>
        <pt x="274" y="0" on="1"/>
        <pt x="55" y="0" on="1"/>
        <pt x="46" y="72" on="1"/>
        <pt x="109" y="83" on="1"/>
      </contour>
      <contour>
        <pt x="173" y="894" on="1"/>
        <pt x="329" y="731" on="1"/>
        <pt x="327" y="726" on="1"/>
        <pt x="246" y="726" on="1"/>
        <pt x="159" y="785" on="1"/>
        <pt x="73" y="726" on="1"/>
        <pt x="-7" y="726" on="1"/>
        <pt x="-10" y="732" on="1"/>
        <pt x="147" y="894" on="1"/>
      </contour>
    </TTGlyph>
    <TTGlyph name="Idieresis" xMin="21" yMin="0" xMax="306" yMax="861">
      <contour>
        <pt x="109" y="610" on="1"/>
        <pt x="46" y="615" on="1"/>
        <pt x="46" y="691" on="1"/>
        <pt x="264" y="691" on="1"/>
        <pt x="274" y="616" on="1"/>
        <pt x="209" y="606" on="1"/>
        <pt x="209" y="81" on="1"/>
        <pt x="274" y="73" on="1"/>
        <pt x="274" y="0" on="1"/>
        <pt x="55" y="0" on="1"/>
        <pt x="46" y="72" on="1"/>
        <pt x="109" y="83" on="1"/>
      </contour>
      <contour>
        <pt x="219" y="735" on="0"/>
        <pt x="181" y="771" on="0"/>
        <pt x="181" y="824" on="0"/>
        <pt x="219" y="861" on="0"/>
        <pt x="245" y="861" on="1"/>
        <pt x="271" y="861" on="0"/>
        <pt x="306" y="823" on="0"/>
        <pt x="306" y="772" on="0"/>
        <pt x="270" y="735" on="0"/>
      </contour>
      <contour>
        <pt x="21" y="798" on="1"/>
        <pt x="21" y="824" on="0"/>
        <pt x="57" y="861" on="0"/>
        <pt x="107" y="861" on="0"/>
        <pt x="146" y="824" on="0"/>
        <pt x="146" y="798" on="1"/>
        <pt x="146" y="772" on="0"/>
        <pt x="107" y="735" on="0"/>
        <pt x="57" y="735" on="0"/>
        <pt x="21" y="772" on="0"/>
      </contour>
    </TTGlyph>
    <TTGlyph name="Igrave" xMin="38" yMin="0" xMax="275" yMax="925">
      <contour>
        <pt x="38" y="843" on="1"/>
        <pt x="95" y="925" on="1"/>
        <pt x="127" y="919" on="1"/>
        <pt x="267" y="764" on="1"/>
        <pt x="231" y="720" on="1"/>
      </contour>
      <contour>
        <pt x="110" y="610" on="1"/>
        <pt x="47" y="615" on="1"/>
        <pt x="47" y="691" on="1"/>
        <pt x="265" y="691" on="1"/>
        <pt x="275" y="616" on="1"/>
        <pt x="210" y="606" on="1"/>
        <pt x="210" y="81" on="1"/>
        <pt x="275" y="73" on="1"/>
        <pt x="275" y="0" on="1"/>
        <pt x="56" y="0" on="1"/>
        <pt x="38" y="72" on="1"/>
        <pt x="110" y="83" on="1"/>
      </contour>
    </TTGlyph>
    <TTGlyph name="J" xMin="8" yMin="-4" xMax="333" yMax="691">
      <contour>
        <pt x="61" y="126" on="1"/>
        <pt x="105" y="85" on="0"/>
        <pt x="134" y="85" on="1"/>
        <pt x="171" y="85" on="0"/>
        <pt x="171" y="140" on="1"/>
        <pt x="171" y="606" on="1"/>
        <pt x="94" y="616" on="1"/>
        <pt x="104" y="691" on="1"/>
        <pt x="333" y="691" on="1"/>
        <pt x="333" y="615" on="1"/>
        <pt x="271" y="610" on="1"/>
        <pt x="271" y="149" on="1"/>
        <pt x="271" y="60" on="0"/>
        <pt x="218" y="21" on="1"/>
        <pt x="184" y="-4" on="0"/>
        <pt x="139" y="-4" on="1"/>
        <pt x="61" y="-4" on="0"/>
        <pt x="8" y="47" on="1"/>
      </contour>
    </TTGlyph>
    <TTGlyph name="K" xMin="46" yMin="0" xMax="595" yMax="691">
      <contour>
        <pt x="595" y="71" on="1"/>
        <pt x="595" y="0" on="1"/>
        <pt x="456" y="0" on="1"/>
        <pt x="298" y="297" on="1"/>
        <pt x="209" y="190" on="1"/>
        <pt x="209" y="81" on="1"/>
        <pt x="270" y="73" on="1"/>
        <pt x="270" y="0" on="1"/>
        <pt x="55" y="0" on="1"/>
        <pt x="46" y="72" on="1"/>
        <pt x="109" y="83" on="1"/>
        <pt x="109" y="610" on="1"/>
        <pt x="46" y="614" on="1"/>
        <pt x="46" y="691" on="1"/>
        <pt x="260" y="691" on="1"/>
        <pt x="269" y="617" on="1"/>
        <pt x="209" y="606" on="1"/>
        <pt x="209" y="324" on="1"/>
        <pt x="442" y="608" on="1"/>
        <pt x="371" y="619" on="1"/>
        <pt x="371" y="691" on="1"/>
        <pt x="592" y="691" on="1"/>
        <pt x="592" y="618" on="1"/>
        <pt x="559" y="611" on="1"/>
        <pt x="367" y="380" on="1"/>
        <pt x="540" y="81" on="1"/>
      </contour>
    </TTGlyph>
    <TTGlyph name="L" xMin="48" yMin="0" xMax="502" yMax="691">
      <contour>
        <pt x="49" y="691" on="1"/>
        <pt x="264" y="691" on="1"/>
        <pt x="273" y="617" on="1"/>
        <pt x="208" y="606" on="1"/>
        <pt x="208" y="86" on="1"/>
        <pt x="404" y="86" on="1"/>
        <pt x="439" y="187" on="1"/>
        <pt x="502" y="187" on="1"/>
        <pt x="482" y="0" on="1"/>
        <pt x="58" y="0" on="1"/>
        <pt x="48" y="71" on="1"/>
        <pt x="109" y="82" on="1"/>
        <pt x="109" y="611" on="1"/>
        <pt x="49" y="616" on="1"/>
      </contour>
    </TTGlyph>
    <TTGlyph name="M" xMin="45" yMin="0" xMax="802" yMax="691">
      <contour>
        <pt x="747" y="81" on="1"/>
        <pt x="802" y="70" on="1"/>
        <pt x="798" y="0" on="1"/>
        <pt x="604" y="0" on="1"/>
        <pt x="596" y="72" on="1"/>
        <pt x="654" y="85" on="1"/>
        <pt x="654" y="599" on="1"/>
        <pt x="477" y="15" on="1"/>
        <pt x="362" y="15" on="1"/>
        <pt x="191" y="604" on="1"/>
        <pt x="191" y="82" on="1"/>
        <pt x="250" y="71" on="1"/>
        <pt x="250" y="0" on="1"/>
        <pt x="57" y="0" on="1"/>
        <pt x="45" y="71" on="1"/>
        <pt x="108" y="84" on="1"/>
        <pt x="108" y="609" on="1"/>
        <pt x="58" y="614" on="1"/>
        <pt x="58" y="691" on="1"/>
        <pt x="264" y="691" on="1"/>
        <pt x="426" y="131" on="1"/>
        <pt x="594" y="691" on="1"/>
        <pt x="789" y="691" on="1"/>
        <pt x="799" y="614" on="1"/>
        <pt x="747" y="606" on="1"/>
      </contour>
    </TTGlyph>
    <TTGlyph name="N" xMin="47" yMin="0" xMax="659" yMax="691">
      <contour>
        <pt x="194" y="161" on="1"/>
        <pt x="195" y="90" on="1"/>
        <pt x="195" y="84" on="0"/>
        <pt x="196" y="81" on="1"/>
        <pt x="253" y="71" on="1"/>
        <pt x="253" y="0" on="1"/>
        <pt x="59" y="0" on="1"/>
        <pt x="47" y="71" on="1"/>
        <pt x="110" y="84" on="1"/>
        <pt x="110" y="609" on="1"/>
        <pt x="50" y="615" on="1"/>
        <pt x="50" y="691" on="1"/>
        <pt x="259" y="691" on="1"/>
        <pt x="511" y="96" on="1"/>
        <pt x="511" y="609" on="1"/>
        <pt x="449" y="617" on="1"/>
        <pt x="449" y="691" on="1"/>
        <pt x="646" y="691" on="1"/>
        <pt x="659" y="616" on="1"/>
        <pt x="595" y="604" on="1"/>
        <pt x="595" y="0" on="1"/>
        <pt x="447" y="0" on="1"/>
        <pt x="194" y="596" on="1"/>
      </contour>
    </TTGlyph>
    <TTGlyph name="Ntilde" xMin="47" yMin="0" xMax="659" yMax="858">
      <contour>
        <pt x="194" y="161" on="1"/>
        <pt x="195" y="90" on="1"/>
        <pt x="195" y="84" on="0"/>
        <pt x="196" y="81" on="1"/>
        <pt x="253" y="71" on="1"/>
        <pt x="253" y="0" on="1"/>
        <pt x="59" y="0" on="1"/>
        <pt x="47" y="71" on="1"/>
        <pt x="110" y="84" on="1"/>
        <pt x="110" y="609" on="1"/>
        <pt x="50" y="615" on="1"/>
        <pt x="50" y="691" on="1"/>
        <pt x="259" y="691" on="1"/>
        <pt x="511" y="96" on="1"/>
        <pt x="511" y="609" on="1"/>
        <pt x="449" y="617" on="1"/>
        <pt x="449" y="691" on="1"/>
        <pt x="646" y="691" on="1"/>
        <pt x="659" y="616" on="1"/>
        <pt x="595" y="604" on="1"/>
        <pt x="595" y="0" on="1"/>
        <pt x="478" y="0" on="1"/>
        <pt x="194" y="597" on="1"/>
      </contour>
      <contour>
        <pt x="537" y="791" on="1"/>
        <pt x="482" y="730" on="0"/>
        <pt x="437" y="730" on="1"/>
        <pt x="413" y="730" on="0"/>
        <pt x="379" y="745" on="0"/>
        <pt x="348" y="763" on="0"/>
        <pt x="316" y="778" on="0"/>
        <pt x="263" y="778" on="0"/>
        <pt x="231" y="744" on="0"/>
        <pt x="223" y="727" on="1"/>
        <pt x="167" y="761" on="1"/>
        <pt x="167" y="778" on="1"/>
        <pt x="189" y="827" on="0"/>
        <pt x="240" y="848" on="1"/>
        <pt x="261" y="857" on="0"/>
        <pt x="328" y="857" on="0"/>
        <pt x="385" y="825" on="0"/>
        <pt x="408" y="808" on="1"/>
        <pt x="417" y="802" on="1"/>
        <pt x="478" y="858" on="1"/>
      </contour>
    </TTGlyph>
    <TTGlyph name="O" xMin="43" yMin="-4" xMax="609" yMax="692">
      <contour>
        <pt x="148" y="342" on="1"/>
        <pt x="148" y="234" on="0"/>
        <pt x="192" y="161" on="1"/>
        <pt x="239" y="82" on="0"/>
        <pt x="325" y="82" on="1"/>
        <pt x="412" y="82" on="0"/>
        <pt x="460" y="161" on="1"/>
        <pt x="504" y="233" on="0"/>
        <pt x="504" y="342" on="1"/>
        <pt x="504" y="452" on="0"/>
        <pt x="460" y="526" on="1"/>
        <pt x="411" y="606" on="0"/>
        <pt x="325" y="606" on="1"/>
        <pt x="239" y="606" on="0"/>
        <pt x="192" y="526" on="1"/>
        <pt x="148" y="452" on="0"/>
      </contour>
      <contour>
        <pt x="325" y="-4" on="1"/>
        <pt x="189" y="-4" on="0"/>
        <pt x="113" y="100" on="1"/>
        <pt x="43" y="196" on="0"/>
        <pt x="43" y="344" on="1"/>
        <pt x="43" y="492" on="0"/>
        <pt x="113" y="588" on="1"/>
        <pt x="189" y="692" on="0"/>
        <pt x="325" y="692" on="1"/>
        <pt x="461" y="692" on="0"/>
        <pt x="538" y="588" on="1"/>
        <pt x="609" y="491" on="0"/>
        <pt x="609" y="344" on="1"/>
        <pt x="609" y="197" on="0"/>
        <pt x="538" y="100" on="1"/>
        <pt x="461" y="-4" on="0"/>
      </contour>
    </TTGlyph>
    <TTGlyph name="OE" xMin="43" yMin="-4" xMax="836" yMax="692">
      <contour>
        <pt x="390" y="0" on="1"/>
        <pt x="356" y="-4" on="0"/>
        <pt x="325" y="-4" on="1"/>
        <pt x="189" y="-4" on="0"/>
        <pt x="113" y="100" on="1"/>
        <pt x="43" y="196" on="0"/>
        <pt x="43" y="344" on="1"/>
        <pt x="43" y="492" on="0"/>
        <pt x="113" y="588" on="1"/>
        <pt x="189" y="692" on="0"/>
        <pt x="325" y="692" on="1"/>
        <pt x="352" y="691" on="1"/>
        <pt x="809" y="691" on="1"/>
        <pt x="829" y="503" on="1"/>
        <pt x="766" y="503" on="1"/>
        <pt x="728" y="605" on="1"/>
        <pt x="542" y="605" on="1"/>
        <pt x="542" y="395" on="1"/>
        <pt x="700" y="395" on="1"/>
        <pt x="700" y="309" on="1"/>
        <pt x="542" y="309" on="1"/>
        <pt x="542" y="86" on="1"/>
        <pt x="738" y="86" on="1"/>
        <pt x="773" y="187" on="1"/>
        <pt x="836" y="187" on="1"/>
        <pt x="816" y="0" on="1"/>
      </contour>
      <contour>
        <pt x="443" y="568" on="1"/>
        <pt x="396" y="606" on="0"/>
        <pt x="295" y="606" on="0"/>
        <pt x="222" y="562" on="0"/>
        <pt x="198" y="526" on="1"/>
        <pt x="148" y="452" on="0"/>
        <pt x="148" y="342" on="1"/>
        <pt x="148" y="237" on="0"/>
        <pt x="202" y="161" on="1"/>
        <pt x="257" y="82" on="0"/>
        <pt x="345" y="82" on="1"/>
        <pt x="410" y="82" on="0"/>
        <pt x="443" y="117" on="1"/>
      </contour>
    </TTGlyph>
    <TTGlyph name="Oacute" xMin="43" yMin="-4" xMax="609" yMax="932">
      <contour>
        <pt x="148" y="342" on="1"/>
        <pt x="148" y="234" on="0"/>
        <pt x="192" y="161" on="1"/>
        <pt x="239" y="82" on="0"/>
        <pt x="325" y="82" on="1"/>
        <pt x="412" y="82" on="0"/>
        <pt x="460" y="161" on="1"/>
        <pt x="504" y="233" on="0"/>
        <pt x="504" y="342" on="1"/>
        <pt x="504" y="452" on="0"/>
        <pt x="460" y="526" on="1"/>
        <pt x="411" y="606" on="0"/>
        <pt x="325" y="606" on="1"/>
        <pt x="239" y="606" on="0"/>
        <pt x="192" y="526" on="1"/>
        <pt x="148" y="452" on="0"/>
      </contour>
      <contour>
        <pt x="325" y="-4" on="1"/>
        <pt x="189" y="-4" on="0"/>
        <pt x="113" y="100" on="1"/>
        <pt x="43" y="196" on="0"/>
        <pt x="43" y="344" on="1"/>
        <pt x="43" y="492" on="0"/>
        <pt x="113" y="588" on="1"/>
        <pt x="189" y="692" on="0"/>
        <pt x="325" y="692" on="1"/>
        <pt x="461" y="692" on="0"/>
        <pt x="538" y="588" on="1"/>
        <pt x="609" y="491" on="0"/>
        <pt x="609" y="344" on="1"/>
        <pt x="609" y="197" on="0"/>
        <pt x="538" y="100" on="1"/>
        <pt x="461" y="-4" on="0"/>
      </contour>
      <contour>
        <pt x="362" y="928" on="1"/>
        <pt x="396" y="932" on="1"/>
        <pt x="453" y="841" on="1"/>
        <pt x="258" y="729" on="1"/>
        <pt x="219" y="780" on="1"/>
      </contour>
    </TTGlyph>
    <TTGlyph name="Ocircumflex" xMin="43" yMin="-4" xMax="609" yMax="894">
      <contour>
        <pt x="148" y="342" on="1"/>
        <pt x="148" y="234" on="0"/>
        <pt x="192" y="161" on="1"/>
        <pt x="239" y="82" on="0"/>
        <pt x="325" y="82" on="1"/>
        <pt x="412" y="82" on="0"/>
        <pt x="460" y="161" on="1"/>
        <pt x="504" y="233" on="0"/>
        <pt x="504" y="342" on="1"/>
        <pt x="504" y="452" on="0"/>
        <pt x="460" y="526" on="1"/>
        <pt x="411" y="606" on="0"/>
        <pt x="325" y="606" on="1"/>
        <pt x="239" y="606" on="0"/>
        <pt x="192" y="526" on="1"/>
        <pt x="148" y="452" on="0"/>
      </contour>
      <contour>
        <pt x="325" y="-4" on="1"/>
        <pt x="189" y="-4" on="0"/>
        <pt x="113" y="100" on="1"/>
        <pt x="43" y="196" on="0"/>
        <pt x="43" y="344" on="1"/>
        <pt x="43" y="492" on="0"/>
        <pt x="113" y="588" on="1"/>
        <pt x="189" y="692" on="0"/>
        <pt x="325" y="692" on="1"/>
        <pt x="461" y="692" on="0"/>
        <pt x="538" y="588" on="1"/>
        <pt x="609" y="491" on="0"/>
        <pt x="609" y="344" on="1"/>
        <pt x="609" y="197" on="0"/>
        <pt x="538" y="100" on="1"/>
        <pt x="461" y="-4" on="0"/>
      </contour>
      <contour>
        <pt x="339" y="894" on="1"/>
        <pt x="495" y="731" on="1"/>
        <pt x="494" y="726" on="1"/>
        <pt x="412" y="726" on="1"/>
        <pt x="325" y="785" on="1"/>
        <pt x="239" y="726" on="1"/>
        <pt x="157" y="726" on="1"/>
        <pt x="156" y="732" on="1"/>
        <pt x="313" y="894" on="1"/>
      </contour>
    </TTGlyph>
    <TTGlyph name="Odieresis" xMin="43" yMin="-4" xMax="609" yMax="948">
      <contour>
        <pt x="148" y="342" on="1"/>
        <pt x="148" y="234" on="0"/>
        <pt x="192" y="161" on="1"/>
        <pt x="239" y="82" on="0"/>
        <pt x="325" y="82" on="1"/>
        <pt x="412" y="82" on="0"/>
        <pt x="460" y="161" on="1"/>
        <pt x="504" y="233" on="0"/>
        <pt x="504" y="342" on="1"/>
        <pt x="504" y="452" on="0"/>
        <pt x="460" y="526" on="1"/>
        <pt x="411" y="606" on="0"/>
        <pt x="325" y="606" on="1"/>
        <pt x="239" y="606" on="0"/>
        <pt x="192" y="526" on="1"/>
        <pt x="148" y="452" on="0"/>
      </contour>
      <contour>
        <pt x="325" y="-4" on="1"/>
        <pt x="189" y="-4" on="0"/>
        <pt x="113" y="100" on="1"/>
        <pt x="43" y="196" on="0"/>
        <pt x="43" y="344" on="1"/>
        <pt x="43" y="492" on="0"/>
        <pt x="113" y="588" on="1"/>
        <pt x="189" y="692" on="0"/>
        <pt x="325" y="692" on="1"/>
        <pt x="461" y="692" on="0"/>
        <pt x="538" y="588" on="1"/>
        <pt x="609" y="491" on="0"/>
        <pt x="609" y="344" on="1"/>
        <pt x="609" y="197" on="0"/>
        <pt x="538" y="100" on="1"/>
        <pt x="461" y="-4" on="0"/>
      </contour>
      <contour>
        <pt x="397" y="820" on="0"/>
        <pt x="358" y="859" on="0"/>
        <pt x="358" y="910" on="0"/>
        <pt x="396" y="948" on="0"/>
        <pt x="449" y="948" on="0"/>
        <pt x="486" y="910" on="0"/>
        <pt x="486" y="884" on="1"/>
        <pt x="486" y="858" on="0"/>
        <pt x="448" y="820" on="0"/>
      </contour>
      <contour>
        <pt x="181" y="884" on="1"/>
        <pt x="181" y="910" on="0"/>
        <pt x="217" y="948" on="0"/>
        <pt x="270" y="948" on="0"/>
        <pt x="307" y="910" on="0"/>
        <pt x="307" y="857" on="0"/>
        <pt x="268" y="820" on="0"/>
        <pt x="218" y="820" on="0"/>
        <pt x="181" y="858" on="0"/>
      </contour>
    </TTGlyph>
    <TTGlyph name="Ograve" xMin="43" yMin="-4" xMax="609" yMax="925">
      <contour>
        <pt x="148" y="342" on="1"/>
        <pt x="148" y="234" on="0"/>
        <pt x="192" y="161" on="1"/>
        <pt x="239" y="82" on="0"/>
        <pt x="325" y="82" on="1"/>
        <pt x="412" y="82" on="0"/>
        <pt x="460" y="161" on="1"/>
        <pt x="504" y="233" on="0"/>
        <pt x="504" y="342" on="1"/>
        <pt x="504" y="452" on="0"/>
        <pt x="460" y="526" on="1"/>
        <pt x="411" y="606" on="0"/>
        <pt x="325" y="606" on="1"/>
        <pt x="239" y="606" on="0"/>
        <pt x="192" y="526" on="1"/>
        <pt x="148" y="452" on="0"/>
      </contour>
      <contour>
        <pt x="325" y="-4" on="1"/>
        <pt x="189" y="-4" on="0"/>
        <pt x="113" y="100" on="1"/>
        <pt x="43" y="196" on="0"/>
        <pt x="43" y="344" on="1"/>
        <pt x="43" y="492" on="0"/>
        <pt x="113" y="588" on="1"/>
        <pt x="189" y="692" on="0"/>
        <pt x="325" y="692" on="1"/>
        <pt x="461" y="692" on="0"/>
        <pt x="538" y="588" on="1"/>
        <pt x="609" y="491" on="0"/>
        <pt x="609" y="344" on="1"/>
        <pt x="609" y="197" on="0"/>
        <pt x="538" y="100" on="1"/>
        <pt x="461" y="-4" on="0"/>
      </contour>
      <contour>
        <pt x="209" y="843" on="1"/>
        <pt x="265" y="925" on="1"/>
        <pt x="298" y="919" on="1"/>
        <pt x="438" y="764" on="1"/>
        <pt x="402" y="720" on="1"/>
      </contour>
    </TTGlyph>
    <TTGlyph name="Oslash" xMin="43" yMin="-53" xMax="609" yMax="751">
      <contour>
        <pt x="552" y="751" on="1"/>
        <pt x="551" y="732" on="1"/>
        <pt x="502" y="626" on="1"/>
        <pt x="556" y="578" on="0"/>
        <pt x="609" y="429" on="0"/>
        <pt x="609" y="274" on="0"/>
        <pt x="573" y="148" on="0"/>
        <pt x="538" y="100" on="1"/>
        <pt x="461" y="-4" on="0"/>
        <pt x="325" y="-4" on="1"/>
        <pt x="265" y="-4" on="0"/>
        <pt x="220" y="15" on="1"/>
        <pt x="189" y="-53" on="1"/>
        <pt x="95" y="-53" on="1"/>
        <pt x="92" y="-35" on="1"/>
        <pt x="140" y="69" on="1"/>
        <pt x="91" y="117" on="0"/>
        <pt x="43" y="261" on="0"/>
        <pt x="43" y="414" on="0"/>
        <pt x="78" y="540" on="0"/>
        <pt x="113" y="588" on="1"/>
        <pt x="189" y="692" on="0"/>
        <pt x="325" y="692" on="1"/>
        <pt x="376" y="692" on="0"/>
        <pt x="420" y="676" on="1"/>
        <pt x="454" y="751" on="1"/>
      </contour>
      <contour>
        <pt x="457" y="529" on="1"/>
        <pt x="258" y="97" on="1"/>
        <pt x="288" y="82" on="0"/>
        <pt x="370" y="82" on="0"/>
        <pt x="438" y="125" on="0"/>
        <pt x="460" y="161" on="1"/>
        <pt x="504" y="233" on="0"/>
        <pt x="504" y="453" on="0"/>
      </contour>
      <contour>
        <pt x="148" y="452" on="0"/>
        <pt x="148" y="236" on="0"/>
        <pt x="186" y="169" on="1"/>
        <pt x="382" y="595" on="1"/>
        <pt x="355" y="606" on="0"/>
        <pt x="280" y="606" on="0"/>
        <pt x="213" y="562" on="0"/>
        <pt x="192" y="526" on="1"/>
      </contour>
    </TTGlyph>
    <TTGlyph name="Otilde" xMin="43" yMin="-4" xMax="609" yMax="858">
      <contour>
        <pt x="148" y="342" on="1"/>
        <pt x="148" y="234" on="0"/>
        <pt x="192" y="161" on="1"/>
        <pt x="239" y="82" on="0"/>
        <pt x="325" y="82" on="1"/>
        <pt x="412" y="82" on="0"/>
        <pt x="460" y="161" on="1"/>
        <pt x="504" y="233" on="0"/>
        <pt x="504" y="342" on="1"/>
        <pt x="504" y="452" on="0"/>
        <pt x="460" y="526" on="1"/>
        <pt x="411" y="606" on="0"/>
        <pt x="325" y="606" on="1"/>
        <pt x="239" y="606" on="0"/>
        <pt x="192" y="526" on="1"/>
        <pt x="148" y="452" on="0"/>
      </contour>
      <contour>
        <pt x="325" y="-4" on="1"/>
        <pt x="189" y="-4" on="0"/>
        <pt x="113" y="100" on="1"/>
        <pt x="43" y="196" on="0"/>
        <pt x="43" y="344" on="1"/>
        <pt x="43" y="492" on="0"/>
        <pt x="113" y="588" on="1"/>
        <pt x="189" y="692" on="0"/>
        <pt x="325" y="692" on="1"/>
        <pt x="461" y="692" on="0"/>
        <pt x="538" y="588" on="1"/>
        <pt x="609" y="491" on="0"/>
        <pt x="609" y="344" on="1"/>
        <pt x="609" y="197" on="0"/>
        <pt x="538" y="100" on="1"/>
        <pt x="461" y="-4" on="0"/>
      </contour>
      <contour>
        <pt x="454" y="858" on="1"/>
        <pt x="513" y="791" on="1"/>
        <pt x="481" y="751" on="0"/>
        <pt x="441" y="736" on="1"/>
        <pt x="427" y="730" on="0"/>
        <pt x="390" y="730" on="0"/>
        <pt x="355" y="745" on="0"/>
        <pt x="325" y="763" on="0"/>
        <pt x="293" y="778" on="0"/>
        <pt x="267" y="778" on="1"/>
        <pt x="226" y="778" on="0"/>
        <pt x="199" y="727" on="1"/>
        <pt x="145" y="761" on="1"/>
        <pt x="145" y="778" on="1"/>
        <pt x="167" y="827" on="0"/>
        <pt x="216" y="848" on="1"/>
        <pt x="238" y="857" on="0"/>
        <pt x="308" y="857" on="0"/>
        <pt x="370" y="820" on="0"/>
        <pt x="393" y="802" on="1"/>
      </contour>
    </TTGlyph>
    <TTGlyph name="P" xMin="46" yMin="0" xMax="532" yMax="691">
      <contour>
        <pt x="210" y="87" on="1"/>
        <pt x="235" y="82" on="0"/>
        <pt x="355" y="67" on="1"/>
        <pt x="352" y="0" on="1"/>
        <pt x="56" y="0" on="1"/>
        <pt x="46" y="70" on="1"/>
        <pt x="110" y="84" on="1"/>
        <pt x="110" y="610" on="1"/>
        <pt x="47" y="615" on="1"/>
        <pt x="47" y="691" on="1"/>
        <pt x="258" y="691" on="1"/>
        <pt x="397" y="691" on="0"/>
        <pt x="468" y="628" on="1"/>
        <pt x="532" y="570" on="0"/>
        <pt x="532" y="470" on="1"/>
        <pt x="532" y="353" on="0"/>
        <pt x="453" y="295" on="1"/>
        <pt x="383" y="244" on="0"/>
        <pt x="256" y="244" on="1"/>
        <pt x="210" y="244" on="1"/>
      </contour>
      <contour>
        <pt x="427" y="471" on="1"/>
        <pt x="427" y="605" on="0"/>
        <pt x="245" y="605" on="1"/>
        <pt x="210" y="605" on="1"/>
        <pt x="210" y="330" on="1"/>
        <pt x="252" y="330" on="1"/>
        <pt x="344" y="330" on="0"/>
        <pt x="388" y="372" on="1"/>
        <pt x="427" y="409" on="0"/>
      </contour>
    </TTGlyph>
    <TTGlyph name="Q" xMin="43" yMin="-209" xMax="609" yMax="692">
      <contour>
        <pt x="148" y="342" on="1"/>
        <pt x="148" y="234" on="0"/>
        <pt x="192" y="161" on="1"/>
        <pt x="239" y="82" on="0"/>
        <pt x="325" y="82" on="1"/>
        <pt x="412" y="82" on="0"/>
        <pt x="460" y="161" on="1"/>
        <pt x="504" y="233" on="0"/>
        <pt x="504" y="342" on="1"/>
        <pt x="504" y="452" on="0"/>
        <pt x="460" y="526" on="1"/>
        <pt x="411" y="606" on="0"/>
        <pt x="325" y="606" on="1"/>
        <pt x="239" y="606" on="0"/>
        <pt x="192" y="526" on="1"/>
        <pt x="148" y="452" on="0"/>
      </contour>
      <contour>
        <pt x="325" y="-4" on="1"/>
        <pt x="189" y="-4" on="0"/>
        <pt x="113" y="100" on="1"/>
        <pt x="43" y="196" on="0"/>
        <pt x="43" y="344" on="1"/>
        <pt x="43" y="492" on="0"/>
        <pt x="113" y="588" on="1"/>
        <pt x="189" y="692" on="0"/>
        <pt x="325" y="692" on="1"/>
        <pt x="461" y="692" on="0"/>
        <pt x="538" y="588" on="1"/>
        <pt x="609" y="491" on="0"/>
        <pt x="609" y="344" on="1"/>
        <pt x="609" y="197" on="0"/>
        <pt x="538" y="100" on="1"/>
        <pt x="461" y="-4" on="0"/>
      </contour>
      <contour>
        <pt x="508" y="-97" on="1"/>
        <pt x="514" y="-130" on="1"/>
        <pt x="425" y="-209" on="1"/>
        <pt x="382" y="-174" on="0"/>
        <pt x="301" y="-101" on="0"/>
        <pt x="259" y="-64" on="1"/>
        <pt x="298" y="-22" on="1"/>
      </contour>
    </TTGlyph>
    <TTGlyph name="R" xMin="46" yMin="0" xMax="556" yMax="691">
      <contour>
        <pt x="110" y="84" on="1"/>
        <pt x="110" y="610" on="1"/>
        <pt x="47" y="615" on="1"/>
        <pt x="47" y="691" on="1"/>
        <pt x="258" y="691" on="1"/>
        <pt x="397" y="691" on="0"/>
        <pt x="468" y="628" on="1"/>
        <pt x="532" y="570" on="0"/>
        <pt x="532" y="470" on="1"/>
        <pt x="532" y="401" on="0"/>
        <pt x="462" y="305" on="0"/>
        <pt x="402" y="280" on="1"/>
        <pt x="499" y="81" on="1"/>
        <pt x="556" y="69" on="1"/>
        <pt x="556" y="0" on="1"/>
        <pt x="417" y="0" on="1"/>
        <pt x="305" y="256" on="1"/>
        <pt x="281" y="253" on="0"/>
        <pt x="256" y="253" on="1"/>
        <pt x="210" y="253" on="1"/>
        <pt x="210" y="83" on="1"/>
        <pt x="289" y="69" on="1"/>
        <pt x="289" y="0" on="1"/>
        <pt x="56" y="0" on="1"/>
        <pt x="46" y="70" on="1"/>
      </contour>
      <contour>
        <pt x="427" y="471" on="1"/>
        <pt x="427" y="605" on="0"/>
        <pt x="245" y="605" on="1"/>
        <pt x="210" y="605" on="1"/>
        <pt x="210" y="339" on="1"/>
        <pt x="252" y="339" on="1"/>
        <pt x="341" y="339" on="0"/>
        <pt x="388" y="382" on="1"/>
        <pt x="427" y="416" on="0"/>
      </contour>
    </TTGlyph>
    <TTGlyph name="S" xMin="47" yMin="-5" xMax="466" yMax="691">
      <contour>
        <pt x="52" y="34" on="1"/>
        <pt x="59" y="203" on="1"/>
        <pt x="129" y="203" on="1"/>
        <pt x="147" y="96" on="1"/>
        <pt x="190" y="80" on="0"/>
        <pt x="233" y="80" on="1"/>
        <pt x="319" y="80" on="0"/>
        <pt x="351" y="136" on="1"/>
        <pt x="362" y="155" on="0"/>
        <pt x="362" y="216" on="0"/>
        <pt x="325" y="265" on="0"/>
        <pt x="240" y="307" on="0"/>
        <pt x="157" y="341" on="0"/>
        <pt x="90" y="388" on="0"/>
        <pt x="47" y="457" on="0"/>
        <pt x="47" y="554" on="0"/>
        <pt x="82" y="620" on="0"/>
        <pt x="112" y="643" on="1"/>
        <pt x="175" y="691" on="0"/>
        <pt x="266" y="691" on="1"/>
        <pt x="354" y="691" on="0"/>
        <pt x="435" y="661" on="1"/>
        <pt x="449" y="489" on="1"/>
        <pt x="380" y="489" on="1"/>
        <pt x="336" y="597" on="1"/>
        <pt x="306" y="607" on="0"/>
        <pt x="215" y="607" on="0"/>
        <pt x="152" y="565" on="0"/>
        <pt x="152" y="522" on="1"/>
        <pt x="152" y="472" on="0"/>
        <pt x="202" y="440" on="1"/>
        <pt x="224" y="425" on="0"/>
        <pt x="278" y="402" on="0"/>
        <pt x="349" y="370" on="0"/>
        <pt x="411" y="326" on="0"/>
        <pt x="430" y="302" on="1"/>
        <pt x="466" y="257" on="0"/>
        <pt x="466" y="141" on="0"/>
        <pt x="427" y="66" on="0"/>
        <pt x="394" y="42" on="1"/>
        <pt x="332" y="-4" on="0"/>
        <pt x="128" y="-4" on="0"/>
      </contour>
    </TTGlyph>
    <TTGlyph name="T" xMin="14" yMin="0" xMax="567" yMax="691">
      <contour>
        <pt x="125" y="66" on="1"/>
        <pt x="239" y="86" on="1"/>
        <pt x="239" y="605" on="1"/>
        <pt x="116" y="605" on="1"/>
        <pt x="75" y="506" on="1"/>
        <pt x="14" y="506" on="1"/>
        <pt x="35" y="691" on="1"/>
        <pt x="545" y="691" on="1"/>
        <pt x="567" y="506" on="1"/>
        <pt x="506" y="506" on="1"/>
        <pt x="464" y="605" on="1"/>
        <pt x="339" y="605" on="1"/>
        <pt x="339" y="86" on="1"/>
        <pt x="455" y="66" on="1"/>
        <pt x="446" y="0" on="1"/>
        <pt x="138" y="0" on="1"/>
      </contour>
    </TTGlyph>
    <TTGlyph name="Thorn" xMin="46" yMin="0" xMax="505" yMax="691">
      <contour>
        <pt x="109" y="610" on="1"/>
        <pt x="46" y="615" on="1"/>
        <pt x="46" y="691" on="1"/>
        <pt x="264" y="691" on="1"/>
        <pt x="274" y="616" on="1"/>
        <pt x="209" y="606" on="1"/>
        <pt x="211" y="569" on="1"/>
        <pt x="358" y="569" on="0"/>
        <pt x="505" y="468" on="0"/>
        <pt x="505" y="362" on="1"/>
        <pt x="505" y="255" on="0"/>
        <pt x="426" y="200" on="1"/>
        <pt x="356" y="152" on="0"/>
        <pt x="229" y="152" on="1"/>
        <pt x="209" y="152" on="1"/>
        <pt x="209" y="81" on="1"/>
        <pt x="324" y="63" on="1"/>
        <pt x="324" y="0" on="1"/>
        <pt x="55" y="0" on="1"/>
        <pt x="46" y="72" on="1"/>
        <pt x="109" y="83" on="1"/>
      </contour>
      <contour>
        <pt x="209" y="478" on="1"/>
        <pt x="209" y="238" on="1"/>
        <pt x="225" y="238" on="1"/>
        <pt x="322" y="238" on="0"/>
        <pt x="400" y="301" on="0"/>
        <pt x="400" y="354" on="1"/>
        <pt x="400" y="423" on="0"/>
        <pt x="308" y="478" on="0"/>
        <pt x="217" y="478" on="1"/>
      </contour>
    </TTGlyph>
    <TTGlyph name="U" xMin="30" yMin="-4" xMax="613" yMax="691">
      <contour>
        <pt x="411" y="691" on="1"/>
        <pt x="613" y="691" on="1"/>
        <pt x="613" y="617" on="1"/>
        <pt x="556" y="607" on="1"/>
        <pt x="556" y="230" on="1"/>
        <pt x="556" y="114" on="0"/>
        <pt x="486" y="52" on="1"/>
        <pt x="425" y="-4" on="0"/>
        <pt x="331" y="-4" on="1"/>
        <pt x="216" y="-4" on="0"/>
        <pt x="92" y="119" on="0"/>
        <pt x="92" y="230" on="1"/>
        <pt x="92" y="610" on="1"/>
        <pt x="30" y="616" on="1"/>
        <pt x="30" y="691" on="1"/>
        <pt x="261" y="691" on="1"/>
        <pt x="261" y="617" on="1"/>
        <pt x="192" y="608" on="1"/>
        <pt x="192" y="233" on="1"/>
        <pt x="192" y="162" on="0"/>
        <pt x="262" y="82" on="0"/>
        <pt x="334" y="82" on="1"/>
        <pt x="427" y="82" on="0"/>
        <pt x="460" y="162" on="1"/>
        <pt x="472" y="191" on="0"/>
        <pt x="472" y="234" on="1"/>
        <pt x="472" y="609" on="1"/>
        <pt x="411" y="618" on="1"/>
      </contour>
    </TTGlyph>
    <TTGlyph name="Uacute" xMin="30" yMin="-4" xMax="604" yMax="932">
      <contour>
        <pt x="381" y="928" on="1"/>
        <pt x="415" y="932" on="1"/>
        <pt x="471" y="841" on="1"/>
        <pt x="277" y="729" on="1"/>
        <pt x="237" y="780" on="1"/>
      </contour>
      <contour>
        <pt x="192" y="233" on="1"/>
        <pt x="192" y="82" on="0"/>
        <pt x="330" y="82" on="1"/>
        <pt x="422" y="82" on="0"/>
        <pt x="452" y="162" on="1"/>
        <pt x="463" y="191" on="0"/>
        <pt x="463" y="234" on="1"/>
        <pt x="463" y="609" on="1"/>
        <pt x="402" y="618" on="1"/>
        <pt x="402" y="691" on="1"/>
        <pt x="604" y="691" on="1"/>
        <pt x="604" y="617" on="1"/>
        <pt x="547" y="607" on="1"/>
        <pt x="547" y="230" on="1"/>
        <pt x="547" y="114" on="0"/>
        <pt x="480" y="52" on="1"/>
        <pt x="421" y="-4" on="0"/>
        <pt x="327" y="-4" on="1"/>
        <pt x="212" y="-4" on="0"/>
        <pt x="92" y="119" on="0"/>
        <pt x="92" y="230" on="1"/>
        <pt x="92" y="610" on="1"/>
        <pt x="30" y="616" on="1"/>
        <pt x="30" y="691" on="1"/>
        <pt x="261" y="691" on="1"/>
        <pt x="261" y="617" on="1"/>
        <pt x="192" y="608" on="1"/>
      </contour>
    </TTGlyph>
    <TTGlyph name="Ucircumflex" xMin="30" yMin="-4" xMax="604" yMax="894">
      <contour>
        <pt x="192" y="233" on="1"/>
        <pt x="192" y="82" on="0"/>
        <pt x="330" y="82" on="1"/>
        <pt x="422" y="82" on="0"/>
        <pt x="452" y="162" on="1"/>
        <pt x="463" y="191" on="0"/>
        <pt x="463" y="234" on="1"/>
        <pt x="463" y="609" on="1"/>
        <pt x="402" y="618" on="1"/>
        <pt x="402" y="691" on="1"/>
        <pt x="604" y="691" on="1"/>
        <pt x="604" y="617" on="1"/>
        <pt x="547" y="607" on="1"/>
        <pt x="547" y="230" on="1"/>
        <pt x="547" y="114" on="0"/>
        <pt x="480" y="52" on="1"/>
        <pt x="421" y="-4" on="0"/>
        <pt x="327" y="-4" on="1"/>
        <pt x="212" y="-4" on="0"/>
        <pt x="92" y="119" on="0"/>
        <pt x="92" y="230" on="1"/>
        <pt x="92" y="610" on="1"/>
        <pt x="30" y="616" on="1"/>
        <pt x="30" y="691" on="1"/>
        <pt x="261" y="691" on="1"/>
        <pt x="261" y="617" on="1"/>
        <pt x="192" y="608" on="1"/>
      </contour>
      <contour>
        <pt x="342" y="894" on="1"/>
        <pt x="498" y="731" on="1"/>
        <pt x="497" y="726" on="1"/>
        <pt x="415" y="726" on="1"/>
        <pt x="328" y="785" on="1"/>
        <pt x="242" y="726" on="1"/>
        <pt x="160" y="726" on="1"/>
        <pt x="159" y="732" on="1"/>
        <pt x="316" y="894" on="1"/>
      </contour>
    </TTGlyph>
    <TTGlyph name="Udieresis" xMin="30" yMin="-4" xMax="613" yMax="948">
      <contour>
        <pt x="411" y="691" on="1"/>
        <pt x="613" y="691" on="1"/>
        <pt x="613" y="617" on="1"/>
        <pt x="556" y="607" on="1"/>
        <pt x="556" y="230" on="1"/>
        <pt x="556" y="114" on="0"/>
        <pt x="486" y="52" on="1"/>
        <pt x="425" y="-4" on="0"/>
        <pt x="331" y="-4" on="1"/>
        <pt x="216" y="-4" on="0"/>
        <pt x="92" y="119" on="0"/>
        <pt x="92" y="230" on="1"/>
        <pt x="92" y="610" on="1"/>
        <pt x="30" y="616" on="1"/>
        <pt x="30" y="691" on="1"/>
        <pt x="261" y="691" on="1"/>
        <pt x="261" y="617" on="1"/>
        <pt x="192" y="608" on="1"/>
        <pt x="192" y="233" on="1"/>
        <pt x="192" y="162" on="0"/>
        <pt x="262" y="82" on="0"/>
        <pt x="334" y="82" on="1"/>
        <pt x="427" y="82" on="0"/>
        <pt x="460" y="162" on="1"/>
        <pt x="472" y="191" on="0"/>
        <pt x="472" y="234" on="1"/>
        <pt x="472" y="609" on="1"/>
        <pt x="411" y="618" on="1"/>
      </contour>
      <contour>
        <pt x="409" y="820" on="0"/>
        <pt x="370" y="859" on="0"/>
        <pt x="370" y="910" on="0"/>
        <pt x="408" y="948" on="0"/>
        <pt x="461" y="948" on="0"/>
        <pt x="498" y="910" on="0"/>
        <pt x="498" y="884" on="1"/>
        <pt x="498" y="858" on="0"/>
        <pt x="460" y="820" on="0"/>
      </contour>
      <contour>
        <pt x="193" y="884" on="1"/>
        <pt x="193" y="910" on="0"/>
        <pt x="229" y="948" on="0"/>
        <pt x="282" y="948" on="0"/>
        <pt x="319" y="910" on="0"/>
        <pt x="319" y="857" on="0"/>
        <pt x="280" y="820" on="0"/>
        <pt x="230" y="820" on="0"/>
        <pt x="193" y="858" on="0"/>
      </contour>
    </TTGlyph>
    <TTGlyph name="Ugrave" xMin="30" yMin="-4" xMax="604" yMax="925">
      <contour>
        <pt x="205" y="843" on="1"/>
        <pt x="261" y="925" on="1"/>
        <pt x="295" y="919" on="1"/>
        <pt x="435" y="764" on="1"/>
        <pt x="398" y="720" on="1"/>
      </contour>
      <contour>
        <pt x="192" y="233" on="1"/>
        <pt x="192" y="82" on="0"/>
        <pt x="330" y="82" on="1"/>
        <pt x="422" y="82" on="0"/>
        <pt x="452" y="162" on="1"/>
        <pt x="463" y="191" on="0"/>
        <pt x="463" y="234" on="1"/>
        <pt x="463" y="609" on="1"/>
        <pt x="402" y="618" on="1"/>
        <pt x="402" y="691" on="1"/>
        <pt x="604" y="691" on="1"/>
        <pt x="604" y="617" on="1"/>
        <pt x="547" y="607" on="1"/>
        <pt x="547" y="230" on="1"/>
        <pt x="547" y="114" on="0"/>
        <pt x="480" y="52" on="1"/>
        <pt x="421" y="-4" on="0"/>
        <pt x="327" y="-4" on="1"/>
        <pt x="212" y="-4" on="0"/>
        <pt x="92" y="119" on="0"/>
        <pt x="92" y="230" on="1"/>
        <pt x="92" y="610" on="1"/>
        <pt x="30" y="616" on="1"/>
        <pt x="30" y="691" on="1"/>
        <pt x="261" y="691" on="1"/>
        <pt x="261" y="617" on="1"/>
        <pt x="192" y="608" on="1"/>
      </contour>
    </TTGlyph>
    <TTGlyph name="V" xMin="7" yMin="0" xMax="575" yMax="691">
      <contour>
        <pt x="575" y="623" on="1"/>
        <pt x="537" y="610" on="1"/>
        <pt x="335" y="0" on="1"/>
        <pt x="243" y="0" on="1"/>
        <pt x="43" y="610" on="1"/>
        <pt x="7" y="623" on="1"/>
        <pt x="7" y="691" on="1"/>
        <pt x="233" y="691" on="1"/>
        <pt x="241" y="629" on="1"/>
        <pt x="150" y="610" on="1"/>
        <pt x="297" y="156" on="1"/>
        <pt x="446" y="612" on="1"/>
        <pt x="356" y="629" on="1"/>
        <pt x="356" y="691" on="1"/>
        <pt x="575" y="691" on="1"/>
      </contour>
    </TTGlyph>
    <TTGlyph name="W" xMin="15" yMin="0" xMax="889" yMax="691">
      <contour>
        <pt x="239" y="629" on="1"/>
        <pt x="166" y="613" on="1"/>
        <pt x="257" y="113" on="1"/>
        <pt x="406" y="673" on="1"/>
        <pt x="506" y="673" on="1"/>
        <pt x="656" y="109" on="1"/>
        <pt x="750" y="615" on="1"/>
        <pt x="668" y="630" on="1"/>
        <pt x="674" y="691" on="1"/>
        <pt x="889" y="691" on="1"/>
        <pt x="889" y="623" on="1"/>
        <pt x="830" y="604" on="1"/>
        <pt x="712" y="0" on="1"/>
        <pt x="580" y="0" on="1"/>
        <pt x="446" y="511" on="1"/>
        <pt x="311" y="0" on="1"/>
        <pt x="178" y="0" on="1"/>
        <pt x="65" y="607" on="1"/>
        <pt x="15" y="622" on="1"/>
        <pt x="15" y="691" on="1"/>
        <pt x="230" y="691" on="1"/>
      </contour>
    </TTGlyph>
    <TTGlyph name="X" xMin="20" yMin="0" xMax="553" yMax="691">
      <contour>
        <pt x="20" y="62" on="1"/>
        <pt x="64" y="69" on="1"/>
        <pt x="227" y="335" on="1"/>
        <pt x="62" y="609" on="1"/>
        <pt x="20" y="621" on="1"/>
        <pt x="20" y="691" on="1"/>
        <pt x="243" y="691" on="1"/>
        <pt x="251" y="630" on="1"/>
        <pt x="180" y="615" on="1"/>
        <pt x="297" y="424" on="1"/>
        <pt x="409" y="614" on="1"/>
        <pt x="350" y="628" on="1"/>
        <pt x="350" y="691" on="1"/>
        <pt x="553" y="691" on="1"/>
        <pt x="553" y="618" on="1"/>
        <pt x="510" y="611" on="1"/>
        <pt x="347" y="343" on="1"/>
        <pt x="509" y="78" on="1"/>
        <pt x="553" y="66" on="1"/>
        <pt x="553" y="0" on="1"/>
        <pt x="327" y="0" on="1"/>
        <pt x="327" y="62" on="1"/>
        <pt x="390" y="67" on="1"/>
        <pt x="277" y="254" on="1"/>
        <pt x="167" y="66" on="1"/>
        <pt x="223" y="59" on="1"/>
        <pt x="223" y="0" on="1"/>
        <pt x="20" y="0" on="1"/>
      </contour>
    </TTGlyph>
    <TTGlyph name="Y" xMin="4" yMin="0" xMax="556" yMax="691">
      <contour>
        <pt x="556" y="616" on="1"/>
        <pt x="513" y="606" on="1"/>
        <pt x="333" y="246" on="1"/>
        <pt x="333" y="83" on="1"/>
        <pt x="449" y="63" on="1"/>
        <pt x="439" y="0" on="1"/>
        <pt x="129" y="0" on="1"/>
        <pt x="119" y="63" on="1"/>
        <pt x="234" y="83" on="1"/>
        <pt x="234" y="252" on="1"/>
        <pt x="44" y="607" on="1"/>
        <pt x="4" y="616" on="1"/>
        <pt x="4" y="691" on="1"/>
        <pt x="217" y="691" on="1"/>
        <pt x="224" y="625" on="1"/>
        <pt x="160" y="613" on="1"/>
        <pt x="296" y="363" on="1"/>
        <pt x="418" y="614" on="1"/>
        <pt x="361" y="625" on="1"/>
        <pt x="361" y="691" on="1"/>
        <pt x="556" y="691" on="1"/>
      </contour>
    </TTGlyph>
    <TTGlyph name="Yacute" xMin="4" yMin="0" xMax="556" yMax="932">
      <contour>
        <pt x="556" y="616" on="1"/>
        <pt x="513" y="606" on="1"/>
        <pt x="333" y="246" on="1"/>
        <pt x="333" y="83" on="1"/>
        <pt x="449" y="63" on="1"/>
        <pt x="439" y="0" on="1"/>
        <pt x="129" y="0" on="1"/>
        <pt x="119" y="63" on="1"/>
        <pt x="234" y="83" on="1"/>
        <pt x="234" y="252" on="1"/>
        <pt x="44" y="607" on="1"/>
        <pt x="4" y="616" on="1"/>
        <pt x="4" y="691" on="1"/>
        <pt x="217" y="691" on="1"/>
        <pt x="224" y="625" on="1"/>
        <pt x="157" y="613" on="1"/>
        <pt x="296" y="357" on="1"/>
        <pt x="422" y="614" on="1"/>
        <pt x="361" y="625" on="1"/>
        <pt x="361" y="691" on="1"/>
        <pt x="556" y="691" on="1"/>
      </contour>
      <contour>
        <pt x="345" y="928" on="1"/>
        <pt x="379" y="932" on="1"/>
        <pt x="435" y="841" on="1"/>
        <pt x="241" y="729" on="1"/>
        <pt x="201" y="780" on="1"/>
      </contour>
    </TTGlyph>
    <TTGlyph name="Z" xMin="37" yMin="0" xMax="507" yMax="691">
      <contour>
        <pt x="504" y="598" on="1"/>
        <pt x="472" y="549" on="0"/>
        <pt x="388" y="419" on="0"/>
        <pt x="297" y="280" on="0"/>
        <pt x="206" y="143" on="0"/>
        <pt x="169" y="86" on="1"/>
        <pt x="424" y="86" on="1"/>
        <pt x="443" y="192" on="1"/>
        <pt x="507" y="192" on="1"/>
        <pt x="507" y="0" on="1"/>
        <pt x="53" y="0" on="1"/>
        <pt x="37" y="77" on="1"/>
        <pt x="392" y="605" on="1"/>
        <pt x="133" y="605" on="1"/>
        <pt x="113" y="498" on="1"/>
        <pt x="50" y="498" on="1"/>
        <pt x="50" y="691" on="1"/>
        <pt x="492" y="691" on="1"/>
      </contour>
    </TTGlyph>
    <TTGlyph name="a" xMin="36" yMin="-6" xMax="440" yMax="486">
      <contour>
        <pt x="299" y="41" on="1"/>
        <pt x="255" y="-5" on="0"/>
        <pt x="119" y="-5" on="0"/>
        <pt x="36" y="71" on="0"/>
        <pt x="36" y="177" on="0"/>
        <pt x="79" y="239" on="0"/>
        <pt x="114" y="257" on="1"/>
        <pt x="175" y="288" on="0"/>
        <pt x="293" y="290" on="1"/>
        <pt x="293" y="361" on="1"/>
        <pt x="293" y="381" on="0"/>
        <pt x="256" y="414" on="0"/>
        <pt x="217" y="414" on="1"/>
        <pt x="180" y="414" on="0"/>
        <pt x="162" y="398" on="1"/>
        <pt x="142" y="333" on="1"/>
        <pt x="37" y="364" on="1"/>
        <pt x="60" y="447" on="0"/>
        <pt x="150" y="476" on="1"/>
        <pt x="182" y="486" on="0"/>
        <pt x="222" y="486" on="1"/>
        <pt x="300" y="486" on="0"/>
        <pt x="383" y="408" on="0"/>
        <pt x="383" y="345" on="1"/>
        <pt x="383" y="89" on="1"/>
        <pt x="383" y="68" on="0"/>
        <pt x="397" y="68" on="1"/>
        <pt x="404" y="68" on="0"/>
        <pt x="418" y="75" on="1"/>
        <pt x="440" y="22" on="1"/>
        <pt x="409" y="-4" on="0"/>
        <pt x="371" y="-4" on="1"/>
        <pt x="314" y="-4" on="0"/>
      </contour>
      <contour>
        <pt x="168" y="74" on="0"/>
        <pt x="192" y="69" on="0"/>
        <pt x="222" y="69" on="0"/>
        <pt x="253" y="82" on="0"/>
        <pt x="264" y="91" on="1"/>
        <pt x="285" y="107" on="0"/>
        <pt x="293" y="131" on="1"/>
        <pt x="293" y="217" on="1"/>
        <pt x="227" y="217" on="0"/>
        <pt x="165" y="196" on="0"/>
        <pt x="131" y="163" on="0"/>
        <pt x="131" y="114" on="0"/>
        <pt x="146" y="89" on="0"/>
      </contour>
    </TTGlyph>
    <TTGlyph name="aacute" xMin="36" yMin="-6" xMax="440" yMax="730">
      <contour>
        <pt x="299" y="41" on="1"/>
        <pt x="255" y="-5" on="0"/>
        <pt x="119" y="-5" on="0"/>
        <pt x="36" y="71" on="0"/>
        <pt x="36" y="177" on="0"/>
        <pt x="79" y="239" on="0"/>
        <pt x="114" y="257" on="1"/>
        <pt x="175" y="288" on="0"/>
        <pt x="293" y="290" on="1"/>
        <pt x="293" y="361" on="1"/>
        <pt x="293" y="381" on="0"/>
        <pt x="256" y="414" on="0"/>
        <pt x="217" y="414" on="1"/>
        <pt x="180" y="414" on="0"/>
        <pt x="162" y="398" on="1"/>
        <pt x="142" y="333" on="1"/>
        <pt x="37" y="364" on="1"/>
        <pt x="60" y="447" on="0"/>
        <pt x="150" y="476" on="1"/>
        <pt x="182" y="486" on="0"/>
        <pt x="222" y="486" on="1"/>
        <pt x="300" y="486" on="0"/>
        <pt x="383" y="408" on="0"/>
        <pt x="383" y="345" on="1"/>
        <pt x="383" y="89" on="1"/>
        <pt x="383" y="68" on="0"/>
        <pt x="397" y="68" on="1"/>
        <pt x="404" y="68" on="0"/>
        <pt x="418" y="75" on="1"/>
        <pt x="440" y="22" on="1"/>
        <pt x="409" y="-4" on="0"/>
        <pt x="371" y="-4" on="1"/>
        <pt x="314" y="-4" on="0"/>
      </contour>
      <contour>
        <pt x="168" y="74" on="0"/>
        <pt x="192" y="69" on="0"/>
        <pt x="222" y="69" on="0"/>
        <pt x="253" y="82" on="0"/>
        <pt x="264" y="91" on="1"/>
        <pt x="285" y="107" on="0"/>
        <pt x="293" y="131" on="1"/>
        <pt x="293" y="217" on="1"/>
        <pt x="227" y="217" on="0"/>
        <pt x="165" y="196" on="0"/>
        <pt x="131" y="163" on="0"/>
        <pt x="131" y="114" on="0"/>
        <pt x="146" y="89" on="0"/>
      </contour>
      <contour>
        <pt x="247" y="722" on="1"/>
        <pt x="279" y="730" on="1"/>
        <pt x="339" y="650" on="1"/>
        <pt x="173" y="529" on="1"/>
        <pt x="132" y="573" on="1"/>
      </contour>
    </TTGlyph>
    <TTGlyph name="acircumflex" xMin="36" yMin="-6" xMax="440" yMax="700">
      <contour>
        <pt x="60" y="541" on="1"/>
        <pt x="193" y="700" on="1"/>
        <pt x="226" y="700" on="1"/>
        <pt x="360" y="540" on="1"/>
        <pt x="354" y="529" on="1"/>
        <pt x="276" y="529" on="1"/>
        <pt x="209" y="581" on="1"/>
        <pt x="142" y="529" on="1"/>
        <pt x="65" y="529" on="1"/>
      </contour>
      <contour>
        <pt x="299" y="41" on="1"/>
        <pt x="255" y="-5" on="0"/>
        <pt x="119" y="-5" on="0"/>
        <pt x="36" y="71" on="0"/>
        <pt x="36" y="177" on="0"/>
        <pt x="79" y="239" on="0"/>
        <pt x="114" y="257" on="1"/>
        <pt x="175" y="288" on="0"/>
        <pt x="293" y="290" on="1"/>
        <pt x="293" y="361" on="1"/>
        <pt x="293" y="381" on="0"/>
        <pt x="256" y="414" on="0"/>
        <pt x="217" y="414" on="1"/>
        <pt x="180" y="414" on="0"/>
        <pt x="162" y="398" on="1"/>
        <pt x="142" y="333" on="1"/>
        <pt x="37" y="364" on="1"/>
        <pt x="60" y="447" on="0"/>
        <pt x="150" y="476" on="1"/>
        <pt x="182" y="486" on="0"/>
        <pt x="222" y="486" on="1"/>
        <pt x="300" y="486" on="0"/>
        <pt x="383" y="408" on="0"/>
        <pt x="383" y="345" on="1"/>
        <pt x="383" y="89" on="1"/>
        <pt x="383" y="68" on="0"/>
        <pt x="397" y="68" on="1"/>
        <pt x="404" y="68" on="0"/>
        <pt x="418" y="75" on="1"/>
        <pt x="440" y="22" on="1"/>
        <pt x="409" y="-4" on="0"/>
        <pt x="371" y="-4" on="1"/>
        <pt x="314" y="-4" on="0"/>
      </contour>
      <contour>
        <pt x="168" y="74" on="0"/>
        <pt x="192" y="69" on="0"/>
        <pt x="222" y="69" on="0"/>
        <pt x="253" y="82" on="0"/>
        <pt x="264" y="91" on="1"/>
        <pt x="285" y="107" on="0"/>
        <pt x="293" y="131" on="1"/>
        <pt x="293" y="217" on="1"/>
        <pt x="227" y="217" on="0"/>
        <pt x="165" y="196" on="0"/>
        <pt x="131" y="163" on="0"/>
        <pt x="131" y="114" on="0"/>
        <pt x="146" y="89" on="0"/>
      </contour>
    </TTGlyph>
    <TTGlyph name="acute" xMin="52" yMin="505" xMax="261" yMax="708">
      <contour>
        <pt x="168" y="700" on="1"/>
        <pt x="200" y="708" on="1"/>
        <pt x="261" y="627" on="1"/>
        <pt x="93" y="505" on="1"/>
        <pt x="52" y="549" on="1"/>
      </contour>
    </TTGlyph>
    <TTGlyph name="adieresis" xMin="36" yMin="-6" xMax="440" yMax="686">
      <contour>
        <pt x="69" y="624" on="1"/>
        <pt x="69" y="650" on="0"/>
        <pt x="105" y="686" on="0"/>
        <pt x="131" y="686" on="1"/>
        <pt x="157" y="686" on="0"/>
        <pt x="193" y="650" on="0"/>
        <pt x="193" y="624" on="1"/>
        <pt x="193" y="598" on="0"/>
        <pt x="157" y="562" on="0"/>
        <pt x="131" y="562" on="1"/>
        <pt x="105" y="562" on="0"/>
        <pt x="69" y="598" on="0"/>
      </contour>
      <contour>
        <pt x="230" y="624" on="1"/>
        <pt x="230" y="650" on="0"/>
        <pt x="266" y="686" on="0"/>
        <pt x="292" y="686" on="1"/>
        <pt x="318" y="686" on="0"/>
        <pt x="354" y="650" on="0"/>
        <pt x="354" y="624" on="1"/>
        <pt x="354" y="598" on="0"/>
        <pt x="318" y="562" on="0"/>
        <pt x="292" y="562" on="1"/>
        <pt x="266" y="562" on="0"/>
        <pt x="230" y="598" on="0"/>
      </contour>
      <contour>
        <pt x="299" y="41" on="1"/>
        <pt x="255" y="-5" on="0"/>
        <pt x="119" y="-5" on="0"/>
        <pt x="36" y="71" on="0"/>
        <pt x="36" y="177" on="0"/>
        <pt x="79" y="239" on="0"/>
        <pt x="114" y="257" on="1"/>
        <pt x="175" y="288" on="0"/>
        <pt x="293" y="290" on="1"/>
        <pt x="293" y="361" on="1"/>
        <pt x="293" y="381" on="0"/>
        <pt x="256" y="414" on="0"/>
        <pt x="217" y="414" on="1"/>
        <pt x="180" y="414" on="0"/>
        <pt x="162" y="398" on="1"/>
        <pt x="142" y="333" on="1"/>
        <pt x="37" y="364" on="1"/>
        <pt x="60" y="447" on="0"/>
        <pt x="150" y="476" on="1"/>
        <pt x="182" y="486" on="0"/>
        <pt x="222" y="486" on="1"/>
        <pt x="300" y="486" on="0"/>
        <pt x="383" y="408" on="0"/>
        <pt x="383" y="345" on="1"/>
        <pt x="383" y="89" on="1"/>
        <pt x="383" y="68" on="0"/>
        <pt x="397" y="68" on="1"/>
        <pt x="404" y="68" on="0"/>
        <pt x="418" y="75" on="1"/>
        <pt x="440" y="22" on="1"/>
        <pt x="409" y="-4" on="0"/>
        <pt x="371" y="-4" on="1"/>
        <pt x="314" y="-4" on="0"/>
      </contour>
      <contour>
        <pt x="168" y="74" on="0"/>
        <pt x="192" y="69" on="0"/>
        <pt x="222" y="69" on="0"/>
        <pt x="253" y="82" on="0"/>
        <pt x="264" y="91" on="1"/>
        <pt x="285" y="107" on="0"/>
        <pt x="293" y="131" on="1"/>
        <pt x="293" y="217" on="1"/>
        <pt x="227" y="217" on="0"/>
        <pt x="165" y="196" on="0"/>
        <pt x="131" y="163" on="0"/>
        <pt x="131" y="114" on="0"/>
        <pt x="146" y="89" on="0"/>
      </contour>
    </TTGlyph>
    <TTGlyph name="ae" xMin="36" yMin="-5" xMax="676" yMax="486">
      <contour>
        <pt x="362" y="422" on="1"/>
        <pt x="426" y="486" on="0"/>
        <pt x="517" y="486" on="1"/>
        <pt x="584" y="486" on="0"/>
        <pt x="629" y="452" on="1"/>
        <pt x="676" y="417" on="0"/>
        <pt x="676" y="355" on="1"/>
        <pt x="676" y="251" on="0"/>
        <pt x="540" y="217" on="1"/>
        <pt x="492" y="205" on="0"/>
        <pt x="425" y="205" on="1"/>
        <pt x="407" y="205" on="1"/>
        <pt x="398" y="205" on="0"/>
        <pt x="388" y="206" on="1"/>
        <pt x="398" y="112" on="0"/>
        <pt x="468" y="82" on="1"/>
        <pt x="493" y="71" on="0"/>
        <pt x="564" y="71" on="0"/>
        <pt x="621" y="99" on="0"/>
        <pt x="632" y="108" on="1"/>
        <pt x="651" y="40" on="1"/>
        <pt x="639" y="27" on="0"/>
        <pt x="567" y="-4" on="0"/>
        <pt x="461" y="-4" on="0"/>
        <pt x="362" y="41" on="0"/>
        <pt x="330" y="89" on="1"/>
        <pt x="304" y="27" on="0"/>
        <pt x="241" y="4" on="1"/>
        <pt x="218" y="-5" on="0"/>
        <pt x="189" y="-5" on="1"/>
        <pt x="119" y="-5" on="0"/>
        <pt x="36" y="71" on="0"/>
        <pt x="36" y="176" on="0"/>
        <pt x="81" y="238" on="0"/>
        <pt x="118" y="256" on="1"/>
        <pt x="184" y="290" on="0"/>
        <pt x="293" y="290" on="1"/>
        <pt x="293" y="361" on="1"/>
        <pt x="293" y="381" on="0"/>
        <pt x="256" y="414" on="0"/>
        <pt x="217" y="414" on="1"/>
        <pt x="180" y="414" on="0"/>
        <pt x="162" y="398" on="1"/>
        <pt x="142" y="333" on="1"/>
        <pt x="37" y="364" on="1"/>
        <pt x="60" y="447" on="0"/>
        <pt x="150" y="476" on="1"/>
        <pt x="182" y="486" on="0"/>
        <pt x="222" y="486" on="1"/>
        <pt x="319" y="486" on="0"/>
      </contour>
      <contour>
        <pt x="293" y="217" on="1"/>
        <pt x="131" y="217" on="0"/>
        <pt x="131" y="134" on="1"/>
        <pt x="131" y="99" on="0"/>
        <pt x="157" y="82" on="1"/>
        <pt x="175" y="69" on="0"/>
        <pt x="222" y="69" on="0"/>
        <pt x="253" y="82" on="0"/>
        <pt x="264" y="91" on="1"/>
        <pt x="285" y="107" on="0"/>
        <pt x="293" y="131" on="1"/>
      </contour>
      <contour>
        <pt x="560" y="399" on="0"/>
        <pt x="533" y="411" on="0"/>
        <pt x="493" y="411" on="0"/>
        <pt x="452" y="395" on="0"/>
        <pt x="435" y="378" on="1"/>
        <pt x="395" y="340" on="0"/>
        <pt x="388" y="280" on="1"/>
        <pt x="425" y="280" on="1"/>
        <pt x="491" y="280" on="0"/>
        <pt x="551" y="299" on="0"/>
        <pt x="581" y="328" on="0"/>
        <pt x="581" y="361" on="0"/>
        <pt x="575" y="382" on="0"/>
      </contour>
    </TTGlyph>
    <TTGlyph name="agrave" xMin="36" yMin="-6" xMax="440" yMax="703">
      <contour>
        <pt x="299" y="41" on="1"/>
        <pt x="255" y="-5" on="0"/>
        <pt x="119" y="-5" on="0"/>
        <pt x="36" y="71" on="0"/>
        <pt x="36" y="177" on="0"/>
        <pt x="79" y="239" on="0"/>
        <pt x="114" y="257" on="1"/>
        <pt x="175" y="288" on="0"/>
        <pt x="293" y="290" on="1"/>
        <pt x="293" y="361" on="1"/>
        <pt x="293" y="381" on="0"/>
        <pt x="256" y="414" on="0"/>
        <pt x="217" y="414" on="1"/>
        <pt x="180" y="414" on="0"/>
        <pt x="162" y="398" on="1"/>
        <pt x="142" y="333" on="1"/>
        <pt x="37" y="364" on="1"/>
        <pt x="60" y="447" on="0"/>
        <pt x="150" y="476" on="1"/>
        <pt x="182" y="486" on="0"/>
        <pt x="222" y="486" on="1"/>
        <pt x="300" y="486" on="0"/>
        <pt x="383" y="408" on="0"/>
        <pt x="383" y="345" on="1"/>
        <pt x="383" y="89" on="1"/>
        <pt x="383" y="68" on="0"/>
        <pt x="397" y="68" on="1"/>
        <pt x="404" y="68" on="0"/>
        <pt x="418" y="75" on="1"/>
        <pt x="440" y="22" on="1"/>
        <pt x="409" y="-4" on="0"/>
        <pt x="371" y="-4" on="1"/>
        <pt x="314" y="-4" on="0"/>
      </contour>
      <contour>
        <pt x="168" y="74" on="0"/>
        <pt x="192" y="69" on="0"/>
        <pt x="222" y="69" on="0"/>
        <pt x="253" y="82" on="0"/>
        <pt x="264" y="91" on="1"/>
        <pt x="285" y="107" on="0"/>
        <pt x="293" y="131" on="1"/>
        <pt x="293" y="217" on="1"/>
        <pt x="227" y="217" on="0"/>
        <pt x="165" y="196" on="0"/>
        <pt x="131" y="163" on="0"/>
        <pt x="131" y="114" on="0"/>
        <pt x="146" y="89" on="0"/>
      </contour>
      <contour>
        <pt x="125" y="632" on="1"/>
        <pt x="185" y="703" on="1"/>
        <pt x="216" y="695" on="1"/>
        <pt x="323" y="537" on="1"/>
        <pt x="286" y="500" on="1"/>
      </contour>
    </TTGlyph>
    <TTGlyph name="ampersand" xMin="32" yMin="-4" xMax="675" yMax="731">
      <contour>
        <pt x="675" y="29" on="1"/>
        <pt x="637" y="-3" on="0"/>
        <pt x="509" y="-3" on="0"/>
        <pt x="431" y="64" on="1"/>
        <pt x="358" y="-4" on="0"/>
        <pt x="253" y="-4" on="1"/>
        <pt x="157" y="-4" on="0"/>
        <pt x="94" y="56" on="1"/>
        <pt x="32" y="114" on="0"/>
        <pt x="32" y="201" on="1"/>
        <pt x="32" y="307" on="0"/>
        <pt x="158" y="407" on="1"/>
        <pt x="104" y="499" on="0"/>
        <pt x="104" y="563" on="1"/>
        <pt x="104" y="636" on="0"/>
        <pt x="150" y="682" on="1"/>
        <pt x="199" y="731" on="0"/>
        <pt x="340" y="731" on="0"/>
        <pt x="420" y="652" on="0"/>
        <pt x="420" y="591" on="1"/>
        <pt x="420" y="500" on="0"/>
        <pt x="292" y="392" on="1"/>
        <pt x="335" y="333" on="0"/>
        <pt x="381" y="280" on="1"/>
        <pt x="433" y="218" on="1"/>
        <pt x="459" y="272" on="0"/>
        <pt x="471" y="328" on="1"/>
        <pt x="426" y="328" on="1"/>
        <pt x="410" y="398" on="1"/>
        <pt x="566" y="398" on="1"/>
        <pt x="577" y="384" on="1"/>
        <pt x="555" y="253" on="0"/>
        <pt x="504" y="161" on="1"/>
        <pt x="496" y="148" on="1"/>
        <pt x="556" y="86" on="0"/>
        <pt x="573" y="81" on="1"/>
        <pt x="577" y="82" on="0"/>
        <pt x="594" y="95" on="0"/>
        <pt x="604" y="102" on="1"/>
        <pt x="633" y="121" on="1"/>
      </contour>
      <contour>
        <pt x="367" y="128" on="1"/>
        <pt x="284" y="225" on="0"/>
        <pt x="203" y="337" on="1"/>
        <pt x="172" y="307" on="0"/>
        <pt x="136" y="244" on="0"/>
        <pt x="136" y="149" on="0"/>
        <pt x="203" y="82" on="0"/>
        <pt x="319" y="82" on="0"/>
      </contour>
      <contour>
        <pt x="247" y="457" on="1"/>
        <pt x="325" y="528" on="0"/>
        <pt x="325" y="591" on="1"/>
        <pt x="325" y="623" on="0"/>
        <pt x="290" y="656" on="0"/>
        <pt x="231" y="656" on="0"/>
        <pt x="199" y="611" on="0"/>
        <pt x="199" y="583" on="1"/>
        <pt x="199" y="535" on="0"/>
      </contour>
    </TTGlyph>
    <TTGlyph name="aring" xMin="36" yMin="-6" xMax="440" yMax="725">
      <contour>
        <pt x="190" y="630" on="1"/>
        <pt x="190" y="615" on="0"/>
        <pt x="211" y="594" on="0"/>
        <pt x="226" y="594" on="1"/>
        <pt x="241" y="594" on="0"/>
        <pt x="263" y="615" on="0"/>
        <pt x="263" y="630" on="1"/>
        <pt x="263" y="645" on="0"/>
        <pt x="241" y="666" on="0"/>
        <pt x="226" y="666" on="1"/>
        <pt x="211" y="666" on="0"/>
        <pt x="190" y="645" on="0"/>
      </contour>
      <contour>
        <pt x="131" y="630" on="1"/>
        <pt x="131" y="670" on="0"/>
        <pt x="186" y="725" on="0"/>
        <pt x="267" y="725" on="0"/>
        <pt x="322" y="670" on="0"/>
        <pt x="322" y="630" on="1"/>
        <pt x="322" y="590" on="0"/>
        <pt x="267" y="535" on="0"/>
        <pt x="186" y="535" on="0"/>
        <pt x="131" y="590" on="0"/>
      </contour>
      <contour>
        <pt x="299" y="41" on="1"/>
        <pt x="255" y="-5" on="0"/>
        <pt x="119" y="-5" on="0"/>
        <pt x="36" y="71" on="0"/>
        <pt x="36" y="177" on="0"/>
        <pt x="79" y="239" on="0"/>
        <pt x="114" y="257" on="1"/>
        <pt x="175" y="288" on="0"/>
        <pt x="293" y="290" on="1"/>
        <pt x="293" y="361" on="1"/>
        <pt x="293" y="381" on="0"/>
        <pt x="256" y="414" on="0"/>
        <pt x="217" y="414" on="1"/>
        <pt x="180" y="414" on="0"/>
        <pt x="162" y="398" on="1"/>
        <pt x="142" y="333" on="1"/>
        <pt x="37" y="364" on="1"/>
        <pt x="60" y="447" on="0"/>
        <pt x="150" y="476" on="1"/>
        <pt x="182" y="486" on="0"/>
        <pt x="222" y="486" on="1"/>
        <pt x="300" y="486" on="0"/>
        <pt x="383" y="408" on="0"/>
        <pt x="383" y="345" on="1"/>
        <pt x="383" y="89" on="1"/>
        <pt x="383" y="68" on="0"/>
        <pt x="397" y="68" on="1"/>
        <pt x="404" y="68" on="0"/>
        <pt x="418" y="75" on="1"/>
        <pt x="440" y="22" on="1"/>
        <pt x="409" y="-4" on="0"/>
        <pt x="371" y="-4" on="1"/>
        <pt x="314" y="-4" on="0"/>
      </contour>
      <contour>
        <pt x="168" y="74" on="0"/>
        <pt x="192" y="69" on="0"/>
        <pt x="222" y="69" on="0"/>
        <pt x="253" y="82" on="0"/>
        <pt x="264" y="91" on="1"/>
        <pt x="285" y="107" on="0"/>
        <pt x="293" y="131" on="1"/>
        <pt x="293" y="217" on="1"/>
        <pt x="227" y="217" on="0"/>
        <pt x="165" y="196" on="0"/>
        <pt x="131" y="163" on="0"/>
        <pt x="131" y="114" on="0"/>
        <pt x="146" y="89" on="0"/>
      </contour>
    </TTGlyph>
    <TTGlyph name="asciicircum" xMin="52" yMin="556" xMax="391" yMax="724">
      <contour>
        <pt x="235" y="724" on="1"/>
        <pt x="391" y="561" on="1"/>
        <pt x="389" y="556" on="1"/>
        <pt x="308" y="556" on="1"/>
        <pt x="221" y="615" on="1"/>
        <pt x="135" y="556" on="1"/>
        <pt x="55" y="556" on="1"/>
        <pt x="52" y="562" on="1"/>
        <pt x="209" y="724" on="1"/>
      </contour>
    </TTGlyph>
    <TTGlyph name="asciitilde" xMin="25" yMin="544" xMax="391" yMax="679">
      <contour>
        <pt x="391" y="611" on="1"/>
        <pt x="338" y="552" on="0"/>
        <pt x="287" y="552" on="1"/>
        <pt x="260" y="552" on="0"/>
        <pt x="200" y="580" on="0"/>
        <pt x="166" y="593" on="0"/>
        <pt x="122" y="593" on="0"/>
        <pt x="91" y="562" on="0"/>
        <pt x="84" y="544" on="1"/>
        <pt x="25" y="579" on="1"/>
        <pt x="26" y="592" on="1"/>
        <pt x="43" y="628" on="0"/>
        <pt x="63" y="644" on="1"/>
        <pt x="102" y="675" on="0"/>
        <pt x="143" y="675" on="1"/>
        <pt x="177" y="675" on="0"/>
        <pt x="220" y="652" on="1"/>
        <pt x="251" y="637" on="1"/>
        <pt x="265" y="630" on="0"/>
        <pt x="277" y="630" on="1"/>
        <pt x="332" y="679" on="1"/>
      </contour>
    </TTGlyph>
    <TTGlyph name="asterisk" xMin="35" yMin="414" xMax="327" yMax="730">
      <contour>
        <pt x="196" y="597" on="1"/>
        <pt x="287" y="680" on="1"/>
        <pt x="327" y="637" on="1"/>
        <pt x="321" y="614" on="1"/>
        <pt x="208" y="572" on="1"/>
        <pt x="327" y="534" on="1"/>
        <pt x="311" y="478" on="1"/>
        <pt x="287" y="472" on="1"/>
        <pt x="195" y="547" on="1"/>
        <pt x="218" y="426" on="1"/>
        <pt x="162" y="414" on="1"/>
        <pt x="146" y="431" on="1"/>
        <pt x="166" y="547" on="1"/>
        <pt x="75" y="464" on="1"/>
        <pt x="35" y="507" on="1"/>
        <pt x="41" y="530" on="1"/>
        <pt x="154" y="572" on="1"/>
        <pt x="35" y="610" on="1"/>
        <pt x="51" y="666" on="1"/>
        <pt x="75" y="672" on="1"/>
        <pt x="167" y="597" on="1"/>
        <pt x="144" y="718" on="1"/>
        <pt x="200" y="730" on="1"/>
        <pt x="216" y="713" on="1"/>
      </contour>
      <contour>
        <pt x="173" y="558" on="1"/>
        <pt x="190" y="558" on="1"/>
        <pt x="197" y="572" on="1"/>
        <pt x="189" y="586" on="1"/>
        <pt x="171" y="586" on="1"/>
        <pt x="164" y="571" on="1"/>
      </contour>
    </TTGlyph>
    <TTGlyph name="at" xMin="31" yMin="-133" xMax="797" yMax="653">
      <contour>
        <pt x="438" y="-47" on="1"/>
        <pt x="508" y="-47" on="0"/>
        <pt x="555" y="-28" on="1"/>
        <pt x="573" y="-32" on="1"/>
        <pt x="545" y="-118" on="1"/>
        <pt x="496" y="-133" on="0"/>
        <pt x="339" y="-133" on="0"/>
        <pt x="196" y="-78" on="0"/>
        <pt x="144" y="-26" on="1"/>
        <pt x="31" y="84" on="0"/>
        <pt x="31" y="270" on="1"/>
        <pt x="31" y="360" on="0"/>
        <pt x="96" y="502" on="0"/>
        <pt x="150" y="552" on="1"/>
        <pt x="262" y="653" on="0"/>
        <pt x="427" y="653" on="1"/>
        <pt x="586" y="653" on="0"/>
        <pt x="690" y="552" on="1"/>
        <pt x="740" y="505" on="0"/>
        <pt x="797" y="375" on="0"/>
        <pt x="797" y="250" on="0"/>
        <pt x="770" y="159" on="0"/>
        <pt x="745" y="124" on="1"/>
        <pt x="690" y="48" on="0"/>
        <pt x="604" y="48" on="1"/>
        <pt x="546" y="48" on="0"/>
        <pt x="519" y="79" on="1"/>
        <pt x="471" y="48" on="0"/>
        <pt x="411" y="48" on="1"/>
        <pt x="330" y="48" on="0"/>
        <pt x="277" y="98" on="1"/>
        <pt x="218" y="154" on="0"/>
        <pt x="218" y="254" on="1"/>
        <pt x="218" y="367" on="0"/>
        <pt x="292" y="424" on="1"/>
        <pt x="349" y="467" on="0"/>
        <pt x="425" y="467" on="1"/>
        <pt x="478" y="467" on="0"/>
        <pt x="524" y="445" on="1"/>
        <pt x="560" y="459" on="1"/>
        <pt x="587" y="450" on="1"/>
        <pt x="587" y="164" on="1"/>
        <pt x="587" y="143" on="0"/>
        <pt x="603" y="131" on="0"/>
        <pt x="629" y="131" on="0"/>
        <pt x="661" y="155" on="0"/>
        <pt x="674" y="178" on="1"/>
        <pt x="703" y="228" on="0"/>
        <pt x="703" y="358" on="0"/>
        <pt x="665" y="457" on="0"/>
        <pt x="630" y="492" on="1"/>
        <pt x="554" y="568" on="0"/>
        <pt x="428" y="568" on="1"/>
        <pt x="298" y="568" on="0"/>
        <pt x="212" y="484" on="1"/>
        <pt x="126" y="400" on="0"/>
        <pt x="126" y="268" on="1"/>
        <pt x="126" y="115" on="0"/>
        <pt x="216" y="31" on="1"/>
        <pt x="298" y="-47" on="0"/>
      </contour>
      <contour>
        <pt x="436" y="122" on="1"/>
        <pt x="466" y="122" on="0"/>
        <pt x="494" y="145" on="1"/>
        <pt x="493" y="155" on="0"/>
        <pt x="493" y="164" on="1"/>
        <pt x="493" y="379" on="1"/>
        <pt x="463" y="394" on="0"/>
        <pt x="407" y="394" on="0"/>
        <pt x="365" y="378" on="0"/>
        <pt x="349" y="362" on="1"/>
        <pt x="314" y="325" on="0"/>
        <pt x="314" y="258" on="1"/>
        <pt x="314" y="189" on="0"/>
        <pt x="350" y="152" on="1"/>
        <pt x="379" y="122" on="0"/>
      </contour>
    </TTGlyph>
    <TTGlyph name="atilde" xMin="36" yMin="-6" xMax="440" yMax="680">
      <contour>
        <pt x="178" y="596" on="1"/>
        <pt x="142" y="596" on="0"/>
        <pt x="123" y="551" on="1"/>
        <pt x="70" y="585" on="1"/>
        <pt x="70" y="613" on="0"/>
        <pt x="96" y="641" on="1"/>
        <pt x="128" y="676" on="0"/>
        <pt x="176" y="676" on="1"/>
        <pt x="212" y="676" on="0"/>
        <pt x="262" y="647" on="1"/>
        <pt x="274" y="640" on="0"/>
        <pt x="285" y="636" on="1"/>
        <pt x="286" y="633" on="1"/>
        <pt x="332" y="680" on="1"/>
        <pt x="388" y="614" on="1"/>
        <pt x="367" y="591" on="0"/>
        <pt x="322" y="559" on="0"/>
        <pt x="275" y="559" on="0"/>
        <pt x="246" y="571" on="0"/>
        <pt x="219" y="584" on="0"/>
        <pt x="193" y="596" on="0"/>
      </contour>
      <contour>
        <pt x="299" y="41" on="1"/>
        <pt x="255" y="-5" on="0"/>
        <pt x="119" y="-5" on="0"/>
        <pt x="36" y="71" on="0"/>
        <pt x="36" y="177" on="0"/>
        <pt x="79" y="239" on="0"/>
        <pt x="114" y="257" on="1"/>
        <pt x="175" y="288" on="0"/>
        <pt x="293" y="290" on="1"/>
        <pt x="293" y="361" on="1"/>
        <pt x="293" y="381" on="0"/>
        <pt x="256" y="414" on="0"/>
        <pt x="217" y="414" on="1"/>
        <pt x="180" y="414" on="0"/>
        <pt x="162" y="398" on="1"/>
        <pt x="142" y="333" on="1"/>
        <pt x="37" y="364" on="1"/>
        <pt x="60" y="447" on="0"/>
        <pt x="150" y="476" on="1"/>
        <pt x="182" y="486" on="0"/>
        <pt x="222" y="486" on="1"/>
        <pt x="300" y="486" on="0"/>
        <pt x="383" y="408" on="0"/>
        <pt x="383" y="345" on="1"/>
        <pt x="383" y="89" on="1"/>
        <pt x="383" y="68" on="0"/>
        <pt x="397" y="68" on="1"/>
        <pt x="404" y="68" on="0"/>
        <pt x="418" y="75" on="1"/>
        <pt x="440" y="22" on="1"/>
        <pt x="409" y="-4" on="0"/>
        <pt x="371" y="-4" on="1"/>
        <pt x="314" y="-4" on="0"/>
      </contour>
      <contour>
        <pt x="168" y="74" on="0"/>
        <pt x="192" y="69" on="0"/>
        <pt x="222" y="69" on="0"/>
        <pt x="253" y="82" on="0"/>
        <pt x="264" y="91" on="1"/>
        <pt x="285" y="107" on="0"/>
        <pt x="293" y="131" on="1"/>
        <pt x="293" y="217" on="1"/>
        <pt x="227" y="217" on="0"/>
        <pt x="165" y="196" on="0"/>
        <pt x="131" y="163" on="0"/>
        <pt x="131" y="114" on="0"/>
        <pt x="146" y="89" on="0"/>
      </contour>
    </TTGlyph>
    <TTGlyph name="b" xMin="2" yMin="-6" xMax="454" yMax="731">
      <contour>
        <pt x="144" y="19" on="1"/>
        <pt x="96" y="-5" on="0"/>
        <pt x="92" y="-6" on="1"/>
        <pt x="69" y="8" on="1"/>
        <pt x="69" y="656" on="1"/>
        <pt x="11" y="652" on="1"/>
        <pt x="2" y="712" on="1"/>
        <pt x="129" y="731" on="1"/>
        <pt x="159" y="699" on="1"/>
        <pt x="159" y="459" on="1"/>
        <pt x="201" y="486" on="0"/>
        <pt x="301" y="486" on="0"/>
        <pt x="373" y="452" on="0"/>
        <pt x="399" y="421" on="1"/>
        <pt x="454" y="355" on="0"/>
        <pt x="454" y="247" on="1"/>
        <pt x="454" y="111" on="0"/>
        <pt x="380" y="46" on="1"/>
        <pt x="323" y="-4" on="0"/>
        <pt x="240" y="-4" on="1"/>
        <pt x="185" y="-4" on="0"/>
      </contour>
      <contour>
        <pt x="240" y="410" on="1"/>
        <pt x="216" y="410" on="0"/>
        <pt x="171" y="391" on="0"/>
        <pt x="159" y="377" on="1"/>
        <pt x="159" y="97" on="1"/>
        <pt x="167" y="87" on="0"/>
        <pt x="212" y="71" on="0"/>
        <pt x="256" y="71" on="0"/>
        <pt x="298" y="86" on="0"/>
        <pt x="316" y="106" on="1"/>
        <pt x="359" y="150" on="0"/>
        <pt x="359" y="241" on="1"/>
        <pt x="359" y="327" on="0"/>
        <pt x="322" y="371" on="1"/>
        <pt x="290" y="410" on="0"/>
      </contour>
    </TTGlyph>
    <TTGlyph name="backslash" xMin="21" yMin="0" xMax="439" yMax="691">
      <contour>
        <pt x="21" y="691" on="1"/>
        <pt x="110" y="691" on="1"/>
        <pt x="439" y="13" on="1"/>
        <pt x="431" y="0" on="1"/>
        <pt x="350" y="0" on="1"/>
        <pt x="21" y="679" on="1"/>
      </contour>
    </TTGlyph>
    <TTGlyph name="bar" xMin="78" yMin="-214" xMax="169" yMax="694">
      <contour>
        <pt x="78" y="-214" on="1"/>
        <pt x="78" y="694" on="1"/>
        <pt x="169" y="694" on="1"/>
        <pt x="169" y="-214" on="1"/>
      </contour>
    </TTGlyph>
    <TTGlyph name="braceleft" xMin="7" yMin="-162" xMax="342" yMax="706">
      <contour>
        <pt x="116" y="38" on="1"/>
        <pt x="118" y="135" on="1"/>
        <pt x="118" y="204" on="0"/>
        <pt x="49" y="226" on="1"/>
        <pt x="29" y="233" on="0"/>
        <pt x="7" y="233" on="1"/>
        <pt x="7" y="316" on="1"/>
        <pt x="55" y="316" on="0"/>
        <pt x="118" y="372" on="0"/>
        <pt x="118" y="426" on="1"/>
        <pt x="117" y="464" on="1"/>
        <pt x="116" y="509" on="1"/>
        <pt x="116" y="609" on="0"/>
        <pt x="142" y="652" on="1"/>
        <pt x="174" y="706" on="0"/>
        <pt x="265" y="706" on="1"/>
        <pt x="291" y="706" on="0"/>
        <pt x="338" y="697" on="0"/>
        <pt x="340" y="696" on="0"/>
        <pt x="342" y="696" on="1"/>
        <pt x="312" y="600" on="1"/>
        <pt x="241" y="624" on="1"/>
        <pt x="210" y="607" on="0"/>
        <pt x="210" y="526" on="1"/>
        <pt x="211" y="426" on="1"/>
        <pt x="211" y="281" on="0"/>
        <pt x="106" y="273" on="1"/>
        <pt x="211" y="269" on="0"/>
        <pt x="211" y="121" on="1"/>
        <pt x="210" y="33" on="1"/>
        <pt x="210" y="-37" on="0"/>
        <pt x="224" y="-63" on="1"/>
        <pt x="230" y="-74" on="0"/>
        <pt x="241" y="-79" on="1"/>
        <pt x="312" y="-55" on="1"/>
        <pt x="342" y="-151" on="1"/>
        <pt x="283" y="-162" on="0"/>
        <pt x="265" y="-162" on="1"/>
        <pt x="176" y="-162" on="0"/>
        <pt x="141" y="-100" on="1"/>
        <pt x="116" y="-56" on="0"/>
      </contour>
    </TTGlyph>
    <TTGlyph name="braceright" xMin="-5" yMin="-162" xMax="330" yMax="706">
      <contour>
        <pt x="-5" y="696" on="1"/>
        <pt x="55" y="706" on="0"/>
        <pt x="121" y="706" on="0"/>
        <pt x="179" y="678" on="0"/>
        <pt x="195" y="652" on="1"/>
        <pt x="221" y="610" on="0"/>
        <pt x="221" y="509" on="1"/>
        <pt x="220" y="464" on="1"/>
        <pt x="219" y="426" on="1"/>
        <pt x="219" y="372" on="0"/>
        <pt x="282" y="316" on="0"/>
        <pt x="330" y="316" on="1"/>
        <pt x="330" y="233" on="1"/>
        <pt x="285" y="233" on="0"/>
        <pt x="252" y="208" on="1"/>
        <pt x="219" y="182" on="0"/>
        <pt x="219" y="135" on="1"/>
        <pt x="221" y="38" on="1"/>
        <pt x="221" y="-56" on="0"/>
        <pt x="196" y="-100" on="1"/>
        <pt x="161" y="-162" on="0"/>
        <pt x="72" y="-162" on="1"/>
        <pt x="51" y="-162" on="0"/>
        <pt x="11" y="-154" on="0"/>
        <pt x="-5" y="-151" on="1"/>
        <pt x="25" y="-55" on="1"/>
        <pt x="96" y="-79" on="1"/>
        <pt x="127" y="-65" on="0"/>
        <pt x="127" y="33" on="1"/>
        <pt x="126" y="121" on="1"/>
        <pt x="126" y="270" on="0"/>
        <pt x="232" y="276" on="1"/>
        <pt x="126" y="276" on="0"/>
        <pt x="126" y="426" on="1"/>
        <pt x="127" y="526" on="1"/>
        <pt x="127" y="607" on="0"/>
        <pt x="96" y="624" on="1"/>
        <pt x="25" y="600" on="1"/>
      </contour>
    </TTGlyph>
    <TTGlyph name="bracketleft" xMin="78" yMin="-179" xMax="324" yMax="702">
      <contour>
        <pt x="318" y="702" on="1"/>
        <pt x="324" y="702" on="0"/>
        <pt x="324" y="695" on="1"/>
        <pt x="324" y="628" on="1"/>
        <pt x="173" y="628" on="1"/>
        <pt x="173" y="-105" on="1"/>
        <pt x="324" y="-105" on="1"/>
        <pt x="324" y="-171" on="1"/>
        <pt x="324" y="-179" on="0"/>
        <pt x="318" y="-179" on="1"/>
        <pt x="89" y="-179" on="1"/>
        <pt x="78" y="-165" on="1"/>
        <pt x="78" y="690" on="1"/>
        <pt x="86" y="702" on="1"/>
      </contour>
    </TTGlyph>
    <TTGlyph name="bracketright" xMin="-3" yMin="-179" xMax="243" yMax="702">
      <contour>
        <pt x="243" y="-165" on="1"/>
        <pt x="232" y="-179" on="1"/>
        <pt x="3" y="-179" on="1"/>
        <pt x="-3" y="-179" on="0"/>
        <pt x="-3" y="-171" on="1"/>
        <pt x="-3" y="-105" on="1"/>
        <pt x="148" y="-105" on="1"/>
        <pt x="148" y="628" on="1"/>
        <pt x="-3" y="628" on="1"/>
        <pt x="-3" y="695" on="1"/>
        <pt x="-3" y="702" on="0"/>
        <pt x="3" y="702" on="1"/>
        <pt x="235" y="702" on="1"/>
        <pt x="243" y="690" on="1"/>
      </contour>
    </TTGlyph>
    <TTGlyph name="brokenbar" xMin="81" yMin="-186" xMax="177" yMax="690">
      <contour>
        <pt x="177" y="194" on="1"/>
        <pt x="177" y="-186" on="1"/>
        <pt x="81" y="-186" on="1"/>
        <pt x="81" y="194" on="1"/>
      </contour>
      <contour>
        <pt x="177" y="690" on="1"/>
        <pt x="177" y="310" on="1"/>
        <pt x="81" y="310" on="1"/>
        <pt x="81" y="690" on="1"/>
      </contour>
    </TTGlyph>
    <TTGlyph name="bullet" xMin="43" yMin="297" xMax="216" yMax="470">
      <contour>
        <pt x="43" y="383" on="1"/>
        <pt x="43" y="419" on="0"/>
        <pt x="93" y="470" on="0"/>
        <pt x="129" y="470" on="1"/>
        <pt x="165" y="470" on="0"/>
        <pt x="216" y="419" on="0"/>
        <pt x="216" y="383" on="1"/>
        <pt x="216" y="347" on="0"/>
        <pt x="165" y="297" on="0"/>
        <pt x="129" y="297" on="1"/>
        <pt x="93" y="297" on="0"/>
        <pt x="43" y="347" on="0"/>
      </contour>
    </TTGlyph>
    <TTGlyph name="c" xMin="36" yMin="-4" xMax="416" yMax="486">
      <contour>
        <pt x="396" y="42" on="1"/>
        <pt x="336" y="-4" on="0"/>
        <pt x="250" y="-4" on="1"/>
        <pt x="160" y="-4" on="0"/>
        <pt x="102" y="54" on="1"/>
        <pt x="36" y="118" on="0"/>
        <pt x="36" y="233" on="1"/>
        <pt x="36" y="364" on="0"/>
        <pt x="106" y="432" on="1"/>
        <pt x="162" y="486" on="0"/>
        <pt x="251" y="486" on="1"/>
        <pt x="316" y="486" on="0"/>
        <pt x="364" y="452" on="1"/>
        <pt x="403" y="425" on="0"/>
        <pt x="416" y="395" on="1"/>
        <pt x="317" y="348" on="1"/>
        <pt x="285" y="406" on="1"/>
        <pt x="265" y="411" on="0"/>
        <pt x="252" y="411" on="1"/>
        <pt x="131" y="411" on="0"/>
        <pt x="131" y="235" on="1"/>
        <pt x="131" y="160" on="0"/>
        <pt x="204" y="71" on="0"/>
        <pt x="264" y="71" on="1"/>
        <pt x="292" y="71" on="0"/>
        <pt x="354" y="92" on="0"/>
        <pt x="374" y="112" on="1"/>
      </contour>
    </TTGlyph>
    <TTGlyph name="ccedilla" xMin="36" yMin="-208" xMax="416" yMax="486">
      <contour>
        <pt x="374" y="112" on="1"/>
        <pt x="396" y="42" on="1"/>
        <pt x="351" y="6" on="0"/>
        <pt x="285" y="-2" on="1"/>
        <pt x="273" y="-37" on="1"/>
        <pt x="299" y="-44" on="0"/>
        <pt x="341" y="-81" on="0"/>
        <pt x="341" y="-119" on="1"/>
        <pt x="341" y="-157" on="0"/>
        <pt x="280" y="-208" on="0"/>
        <pt x="226" y="-208" on="1"/>
        <pt x="185" y="-208" on="0"/>
        <pt x="138" y="-189" on="1"/>
        <pt x="171" y="-123" on="1"/>
        <pt x="225" y="-160" on="1"/>
        <pt x="255" y="-160" on="0"/>
        <pt x="270" y="-139" on="1"/>
        <pt x="275" y="-131" on="0"/>
        <pt x="275" y="-120" on="1"/>
        <pt x="275" y="-76" on="0"/>
        <pt x="204" y="-76" on="1"/>
        <pt x="192" y="-61" on="1"/>
        <pt x="213" y="-1" on="1"/>
        <pt x="137" y="12" on="0"/>
        <pt x="90" y="68" on="1"/>
        <pt x="36" y="131" on="0"/>
        <pt x="36" y="233" on="1"/>
        <pt x="36" y="364" on="0"/>
        <pt x="106" y="432" on="1"/>
        <pt x="162" y="486" on="0"/>
        <pt x="251" y="486" on="1"/>
        <pt x="316" y="486" on="0"/>
        <pt x="364" y="452" on="1"/>
        <pt x="403" y="425" on="0"/>
        <pt x="416" y="395" on="1"/>
        <pt x="317" y="348" on="1"/>
        <pt x="285" y="406" on="1"/>
        <pt x="265" y="411" on="0"/>
        <pt x="252" y="411" on="1"/>
        <pt x="131" y="411" on="0"/>
        <pt x="131" y="235" on="1"/>
        <pt x="131" y="160" on="0"/>
        <pt x="204" y="71" on="0"/>
        <pt x="264" y="71" on="1"/>
        <pt x="292" y="71" on="0"/>
        <pt x="354" y="92" on="0"/>
      </contour>
    </TTGlyph>
    <TTGlyph name="cedilla" xMin="72" yMin="-276" xMax="344" yMax="15">
      <contour>
        <pt x="141" y="-82" on="1"/>
        <pt x="176" y="15" on="1"/>
        <pt x="275" y="15" on="1"/>
        <pt x="252" y="-43" on="1"/>
        <pt x="289" y="-53" on="0"/>
        <pt x="344" y="-106" on="0"/>
        <pt x="344" y="-207" on="0"/>
        <pt x="263" y="-276" on="0"/>
        <pt x="192" y="-276" on="1"/>
        <pt x="120" y="-276" on="0"/>
        <pt x="72" y="-249" on="1"/>
        <pt x="115" y="-163" on="1"/>
        <pt x="186" y="-210" on="1"/>
        <pt x="224" y="-210" on="0"/>
        <pt x="243" y="-183" on="1"/>
        <pt x="250" y="-173" on="0"/>
        <pt x="250" y="-136" on="0"/>
        <pt x="214" y="-102" on="0"/>
        <pt x="171" y="-102" on="1"/>
        <pt x="158" y="-101" on="1"/>
      </contour>
    </TTGlyph>
    <TTGlyph name="cent" xMin="31" yMin="-210" xMax="411" yMax="686">
      <contour>
        <pt x="391" y="42" on="1"/>
        <pt x="347" y="9" on="0"/>
        <pt x="290" y="0" on="1"/>
        <pt x="290" y="-210" on="1"/>
        <pt x="200" y="-210" on="1"/>
        <pt x="200" y="0" on="1"/>
        <pt x="127" y="15" on="0"/>
        <pt x="82" y="71" on="1"/>
        <pt x="31" y="133" on="0"/>
        <pt x="31" y="233" on="1"/>
        <pt x="31" y="347" on="0"/>
        <pt x="82" y="412" on="1"/>
        <pt x="127" y="468" on="0"/>
        <pt x="200" y="481" on="1"/>
        <pt x="200" y="686" on="1"/>
        <pt x="290" y="686" on="1"/>
        <pt x="290" y="481" on="1"/>
        <pt x="337" y="472" on="0"/>
        <pt x="372" y="442" on="1"/>
        <pt x="395" y="423" on="0"/>
        <pt x="411" y="395" on="1"/>
        <pt x="312" y="348" on="1"/>
        <pt x="280" y="406" on="1"/>
        <pt x="260" y="411" on="0"/>
        <pt x="247" y="411" on="1"/>
        <pt x="126" y="411" on="0"/>
        <pt x="126" y="235" on="1"/>
        <pt x="126" y="160" on="0"/>
        <pt x="199" y="71" on="0"/>
        <pt x="259" y="71" on="1"/>
        <pt x="287" y="71" on="0"/>
        <pt x="349" y="92" on="0"/>
        <pt x="369" y="112" on="1"/>
      </contour>
    </TTGlyph>
    <TTGlyph name="colon" xMin="58" yMin="136" xMax="177" yMax="491">
      <contour>
        <pt x="92" y="372" on="0"/>
        <pt x="58" y="407" on="0"/>
        <pt x="58" y="456" on="0"/>
        <pt x="93" y="491" on="0"/>
        <pt x="142" y="491" on="0"/>
        <pt x="177" y="455" on="0"/>
        <pt x="177" y="406" on="0"/>
        <pt x="142" y="372" on="0"/>
      </contour>
      <contour>
        <pt x="93" y="136" on="0"/>
        <pt x="58" y="170" on="0"/>
        <pt x="58" y="220" on="0"/>
        <pt x="93" y="254" on="0"/>
        <pt x="142" y="254" on="0"/>
        <pt x="177" y="219" on="0"/>
        <pt x="177" y="171" on="0"/>
        <pt x="142" y="136" on="0"/>
      </contour>
    </TTGlyph>
    <TTGlyph name="comma" xMin="22" yMin="-147" xMax="162" yMax="133">
      <contour>
        <pt x="151" y="133" on="1"/>
        <pt x="162" y="89" on="0"/>
        <pt x="162" y="24" on="0"/>
        <pt x="145" y="-38" on="0"/>
        <pt x="132" y="-64" on="1"/>
        <pt x="108" y="-113" on="0"/>
        <pt x="74" y="-147" on="1"/>
        <pt x="22" y="-117" on="1"/>
        <pt x="22" y="-103" on="1"/>
        <pt x="72" y="-1" on="1"/>
        <pt x="46" y="114" on="1"/>
      </contour>
    </TTGlyph>
    <TTGlyph name="copyright" xMin="32" yMin="48" xMax="684" yMax="700">
      <contour>
        <pt x="260" y="322" on="0"/>
        <pt x="320" y="259" on="0"/>
        <pt x="409" y="259" on="0"/>
        <pt x="445" y="281" on="1"/>
        <pt x="471" y="216" on="1"/>
        <pt x="423" y="185" on="0"/>
        <pt x="331" y="185" on="0"/>
        <pt x="263" y="211" on="0"/>
        <pt x="238" y="234" on="1"/>
        <pt x="183" y="285" on="0"/>
        <pt x="183" y="367" on="1"/>
        <pt x="183" y="456" on="0"/>
        <pt x="238" y="509" on="1"/>
        <pt x="290" y="560" on="0"/>
        <pt x="371" y="560" on="1"/>
        <pt x="399" y="560" on="0"/>
        <pt x="417" y="558" on="1"/>
        <pt x="443" y="553" on="1"/>
        <pt x="452" y="432" on="1"/>
        <pt x="405" y="432" on="1"/>
        <pt x="391" y="483" on="1"/>
        <pt x="391" y="483" on="0"/>
        <pt x="373" y="484" on="1"/>
        <pt x="322" y="484" on="0"/>
        <pt x="260" y="428" on="0"/>
      </contour>
      <contour>
        <pt x="120" y="374" on="1"/>
        <pt x="120" y="324" on="0"/>
        <pt x="157" y="238" on="0"/>
        <pt x="190" y="206" on="1"/>
        <pt x="259" y="136" on="0"/>
        <pt x="457" y="136" on="0"/>
        <pt x="596" y="275" on="0"/>
        <pt x="596" y="473" on="0"/>
        <pt x="457" y="612" on="0"/>
        <pt x="259" y="612" on="0"/>
        <pt x="120" y="473" on="0"/>
      </contour>
      <contour>
        <pt x="83" y="187" on="0"/>
        <pt x="32" y="306" on="0"/>
        <pt x="32" y="441" on="0"/>
        <pt x="83" y="560" on="0"/>
        <pt x="171" y="649" on="0"/>
        <pt x="290" y="700" on="0"/>
        <pt x="425" y="700" on="0"/>
        <pt x="544" y="649" on="0"/>
        <pt x="633" y="560" on="0"/>
        <pt x="684" y="441" on="0"/>
        <pt x="684" y="306" on="0"/>
        <pt x="633" y="187" on="0"/>
        <pt x="544" y="99" on="0"/>
        <pt x="425" y="48" on="0"/>
        <pt x="290" y="48" on="0"/>
        <pt x="171" y="99" on="0"/>
      </contour>
    </TTGlyph>
    <TTGlyph name="currency" xMin="51" yMin="84" xMax="552" yMax="614">
      <contour>
        <pt x="118" y="222" on="1"/>
        <pt x="80" y="277" on="0"/>
        <pt x="80" y="346" on="1"/>
        <pt x="80" y="416" on="0"/>
        <pt x="120" y="473" on="1"/>
        <pt x="51" y="543" on="1"/>
        <pt x="120" y="614" on="1"/>
        <pt x="195" y="539" on="1"/>
        <pt x="243" y="566" on="0"/>
        <pt x="358" y="566" on="0"/>
        <pt x="406" y="538" on="1"/>
        <pt x="482" y="614" on="1"/>
        <pt x="552" y="543" on="1"/>
        <pt x="480" y="472" on="1"/>
        <pt x="520" y="415" on="0"/>
        <pt x="520" y="346" on="1"/>
        <pt x="520" y="278" on="0"/>
        <pt x="482" y="223" on="1"/>
        <pt x="552" y="155" on="1"/>
        <pt x="482" y="84" on="1"/>
        <pt x="409" y="156" on="1"/>
        <pt x="359" y="127" on="0"/>
        <pt x="242" y="127" on="0"/>
        <pt x="192" y="155" on="1"/>
        <pt x="120" y="84" on="1"/>
        <pt x="51" y="155" on="1"/>
      </contour>
      <contour>
        <pt x="175" y="346" on="1"/>
        <pt x="175" y="291" on="0"/>
        <pt x="245" y="219" on="0"/>
        <pt x="300" y="219" on="1"/>
        <pt x="355" y="219" on="0"/>
        <pt x="425" y="291" on="0"/>
        <pt x="425" y="346" on="1"/>
        <pt x="425" y="401" on="0"/>
        <pt x="355" y="473" on="0"/>
        <pt x="300" y="473" on="1"/>
        <pt x="245" y="473" on="0"/>
        <pt x="175" y="401" on="0"/>
      </contour>
    </TTGlyph>
    <TTGlyph name="d" xMin="36" yMin="-5" xMax="477" yMax="733">
      <contour>
        <pt x="341" y="29" on="1"/>
        <pt x="294" y="-4" on="0"/>
        <pt x="189" y="-4" on="0"/>
        <pt x="117" y="30" on="0"/>
        <pt x="91" y="61" on="1"/>
        <pt x="36" y="127" on="0"/>
        <pt x="36" y="235" on="1"/>
        <pt x="36" y="371" on="0"/>
        <pt x="110" y="436" on="1"/>
        <pt x="167" y="486" on="0"/>
        <pt x="250" y="486" on="1"/>
        <pt x="292" y="486" on="0"/>
        <pt x="330" y="470" on="1"/>
        <pt x="330" y="656" on="1"/>
        <pt x="273" y="652" on="1"/>
        <pt x="264" y="712" on="1"/>
        <pt x="389" y="733" on="1"/>
        <pt x="420" y="699" on="1"/>
        <pt x="420" y="89" on="1"/>
        <pt x="420" y="68" on="0"/>
        <pt x="434" y="68" on="1"/>
        <pt x="441" y="68" on="0"/>
        <pt x="455" y="75" on="1"/>
        <pt x="477" y="22" on="1"/>
        <pt x="446" y="-4" on="0"/>
        <pt x="358" y="-4" on="0"/>
      </contour>
      <contour>
        <pt x="330" y="104" on="1"/>
        <pt x="330" y="386" on="1"/>
        <pt x="321" y="395" on="0"/>
        <pt x="278" y="411" on="0"/>
        <pt x="234" y="411" on="0"/>
        <pt x="192" y="396" on="0"/>
        <pt x="174" y="376" on="1"/>
        <pt x="131" y="332" on="0"/>
        <pt x="131" y="241" on="1"/>
        <pt x="131" y="155" on="0"/>
        <pt x="168" y="111" on="1"/>
        <pt x="200" y="72" on="0"/>
        <pt x="300" y="72" on="0"/>
      </contour>
    </TTGlyph>
    <TTGlyph name="degree" xMin="33" yMin="463" xMax="272" yMax="729">
      <contour>
        <pt x="112" y="596" on="1"/>
        <pt x="112" y="556" on="0"/>
        <pt x="132" y="538" on="1"/>
        <pt x="139" y="531" on="0"/>
        <pt x="164" y="531" on="0"/>
        <pt x="179" y="544" on="0"/>
        <pt x="184" y="554" on="1"/>
        <pt x="193" y="572" on="0"/>
        <pt x="193" y="596" on="1"/>
        <pt x="193" y="634" on="0"/>
        <pt x="172" y="652" on="1"/>
        <pt x="164" y="659" on="0"/>
        <pt x="139" y="659" on="0"/>
        <pt x="124" y="646" on="0"/>
        <pt x="120" y="636" on="1"/>
        <pt x="112" y="619" on="0"/>
      </contour>
      <contour>
        <pt x="33" y="538" on="0"/>
        <pt x="33" y="654" on="0"/>
        <pt x="64" y="691" on="1"/>
        <pt x="96" y="729" on="0"/>
        <pt x="152" y="729" on="1"/>
        <pt x="207" y="729" on="0"/>
        <pt x="240" y="691" on="1"/>
        <pt x="272" y="653" on="0"/>
        <pt x="272" y="538" on="0"/>
        <pt x="209" y="463" on="0"/>
        <pt x="94" y="463" on="0"/>
      </contour>
    </TTGlyph>
    <TTGlyph name="dieresis" xMin="52" yMin="550" xMax="334" yMax="668">
      <contour>
        <pt x="216" y="609" on="1"/>
        <pt x="216" y="632" on="0"/>
        <pt x="251" y="668" on="0"/>
        <pt x="300" y="668" on="0"/>
        <pt x="334" y="632" on="0"/>
        <pt x="334" y="585" on="0"/>
        <pt x="299" y="550" on="0"/>
        <pt x="252" y="550" on="0"/>
        <pt x="216" y="586" on="0"/>
      </contour>
      <contour>
        <pt x="86" y="550" on="0"/>
        <pt x="52" y="585" on="0"/>
        <pt x="52" y="632" on="0"/>
        <pt x="85" y="668" on="0"/>
        <pt x="134" y="668" on="0"/>
        <pt x="169" y="632" on="0"/>
        <pt x="169" y="584" on="0"/>
        <pt x="133" y="550" on="0"/>
      </contour>
    </TTGlyph>
    <TTGlyph name="divide" xMin="45" yMin="83" xMax="374" yMax="502">
      <contour>
        <pt x="191" y="83" on="0"/>
        <pt x="160" y="116" on="0"/>
        <pt x="160" y="161" on="0"/>
        <pt x="191" y="193" on="0"/>
        <pt x="238" y="193" on="0"/>
        <pt x="270" y="160" on="0"/>
        <pt x="270" y="115" on="0"/>
        <pt x="237" y="83" on="0"/>
      </contour>
      <contour>
        <pt x="191" y="392" on="0"/>
        <pt x="160" y="424" on="0"/>
        <pt x="160" y="470" on="0"/>
        <pt x="191" y="502" on="0"/>
        <pt x="238" y="502" on="0"/>
        <pt x="270" y="469" on="0"/>
        <pt x="270" y="424" on="0"/>
        <pt x="237" y="392" on="0"/>
      </contour>
      <contour>
        <pt x="374" y="330" on="1"/>
        <pt x="374" y="254" on="1"/>
        <pt x="45" y="254" on="1"/>
        <pt x="45" y="330" on="1"/>
      </contour>
    </TTGlyph>
    <TTGlyph name="dollar" xMin="33" yMin="-192" xMax="452" yMax="874">
      <contour>
        <pt x="198" y="-3" on="1"/>
        <pt x="109" y="1" on="0"/>
        <pt x="43" y="34" on="1"/>
        <pt x="43" y="203" on="1"/>
        <pt x="115" y="203" on="1"/>
        <pt x="133" y="96" on="1"/>
        <pt x="176" y="80" on="0"/>
        <pt x="219" y="80" on="1"/>
        <pt x="305" y="80" on="0"/>
        <pt x="337" y="136" on="1"/>
        <pt x="348" y="155" on="0"/>
        <pt x="348" y="216" on="0"/>
        <pt x="311" y="265" on="0"/>
        <pt x="226" y="307" on="0"/>
        <pt x="143" y="341" on="0"/>
        <pt x="76" y="388" on="0"/>
        <pt x="33" y="457" on="0"/>
        <pt x="33" y="547" on="0"/>
        <pt x="58" y="605" on="0"/>
        <pt x="80" y="627" on="1"/>
        <pt x="124" y="671" on="0"/>
        <pt x="198" y="686" on="1"/>
        <pt x="198" y="874" on="1"/>
        <pt x="288" y="874" on="1"/>
        <pt x="288" y="690" on="1"/>
        <pt x="355" y="684" on="0"/>
        <pt x="421" y="661" on="1"/>
        <pt x="435" y="489" on="1"/>
        <pt x="366" y="489" on="1"/>
        <pt x="322" y="597" on="1"/>
        <pt x="292" y="607" on="0"/>
        <pt x="201" y="607" on="0"/>
        <pt x="138" y="565" on="0"/>
        <pt x="138" y="522" on="1"/>
        <pt x="138" y="472" on="0"/>
        <pt x="188" y="440" on="1"/>
        <pt x="210" y="425" on="0"/>
        <pt x="264" y="402" on="0"/>
        <pt x="335" y="370" on="0"/>
        <pt x="397" y="326" on="0"/>
        <pt x="416" y="302" on="1"/>
        <pt x="452" y="257" on="0"/>
        <pt x="452" y="151" on="0"/>
        <pt x="426" y="86" on="0"/>
        <pt x="404" y="62" on="1"/>
        <pt x="360" y="17" on="0"/>
        <pt x="288" y="2" on="1"/>
        <pt x="288" y="-192" on="1"/>
        <pt x="198" y="-192" on="1"/>
      </contour>
    </TTGlyph>
    <TTGlyph name="e" xMin="35" yMin="11" xMax="408" yMax="486">
      <contour>
        <pt x="408" y="354" on="1"/>
        <pt x="408" y="323" on="0"/>
        <pt x="387" y="264" on="0"/>
        <pt x="357" y="240" on="1"/>
        <pt x="289" y="186" on="0"/>
        <pt x="135" y="184" on="1"/>
        <pt x="151" y="105" on="0"/>
        <pt x="216" y="80" on="1"/>
        <pt x="239" y="71" on="0"/>
        <pt x="293" y="71" on="0"/>
        <pt x="331" y="80" on="0"/>
        <pt x="345" y="86" on="1"/>
        <pt x="372" y="99" on="0"/>
        <pt x="383" y="110" on="1"/>
        <pt x="405" y="40" on="1"/>
        <pt x="394" y="29" on="0"/>
        <pt x="368" y="18" on="1"/>
        <pt x="268" y="-23" on="0"/>
        <pt x="172" y="11" on="1"/>
        <pt x="85" y="42" on="0"/>
        <pt x="52" y="132" on="1"/>
        <pt x="35" y="177" on="0"/>
        <pt x="35" y="298" on="0"/>
        <pt x="71" y="391" on="0"/>
        <pt x="101" y="422" on="1"/>
        <pt x="161" y="486" on="0"/>
        <pt x="251" y="486" on="1"/>
        <pt x="317" y="486" on="0"/>
        <pt x="362" y="451" on="1"/>
        <pt x="408" y="414" on="0"/>
      </contour>
      <contour>
        <pt x="313" y="374" on="0"/>
        <pt x="283" y="410" on="0"/>
        <pt x="226" y="410" on="0"/>
        <pt x="187" y="392" on="0"/>
        <pt x="171" y="374" on="1"/>
        <pt x="136" y="333" on="0"/>
        <pt x="130" y="258" on="1"/>
        <pt x="203" y="258" on="0"/>
        <pt x="275" y="281" on="0"/>
        <pt x="313" y="318" on="0"/>
      </contour>
    </TTGlyph>
    <TTGlyph name="eacute" xMin="35" yMin="11" xMax="408" yMax="730">
      <contour>
        <pt x="408" y="354" on="1"/>
        <pt x="408" y="323" on="0"/>
        <pt x="387" y="264" on="0"/>
        <pt x="357" y="240" on="1"/>
        <pt x="289" y="186" on="0"/>
        <pt x="135" y="184" on="1"/>
        <pt x="151" y="105" on="0"/>
        <pt x="216" y="80" on="1"/>
        <pt x="239" y="71" on="0"/>
        <pt x="293" y="71" on="0"/>
        <pt x="331" y="80" on="0"/>
        <pt x="345" y="86" on="1"/>
        <pt x="372" y="99" on="0"/>
        <pt x="383" y="110" on="1"/>
        <pt x="405" y="40" on="1"/>
        <pt x="394" y="29" on="0"/>
        <pt x="368" y="18" on="1"/>
        <pt x="268" y="-23" on="0"/>
        <pt x="172" y="11" on="1"/>
        <pt x="85" y="42" on="0"/>
        <pt x="52" y="132" on="1"/>
        <pt x="35" y="177" on="0"/>
        <pt x="35" y="298" on="0"/>
        <pt x="71" y="391" on="0"/>
        <pt x="101" y="422" on="1"/>
        <pt x="161" y="486" on="0"/>
        <pt x="251" y="486" on="1"/>
        <pt x="317" y="486" on="0"/>
        <pt x="362" y="451" on="1"/>
        <pt x="408" y="414" on="0"/>
      </contour>
      <contour>
        <pt x="313" y="374" on="0"/>
        <pt x="283" y="410" on="0"/>
        <pt x="226" y="410" on="0"/>
        <pt x="187" y="392" on="0"/>
        <pt x="171" y="374" on="1"/>
        <pt x="136" y="333" on="0"/>
        <pt x="130" y="258" on="1"/>
        <pt x="203" y="258" on="0"/>
        <pt x="275" y="281" on="0"/>
        <pt x="313" y="318" on="0"/>
      </contour>
      <contour>
        <pt x="271" y="722" on="1"/>
        <pt x="303" y="730" on="1"/>
        <pt x="363" y="650" on="1"/>
        <pt x="197" y="529" on="1"/>
        <pt x="156" y="573" on="1"/>
      </contour>
    </TTGlyph>
    <TTGlyph name="ecircumflex" xMin="35" yMin="11" xMax="408" yMax="700">
      <contour>
        <pt x="97" y="541" on="1"/>
        <pt x="230" y="700" on="1"/>
        <pt x="263" y="700" on="1"/>
        <pt x="397" y="540" on="1"/>
        <pt x="391" y="529" on="1"/>
        <pt x="313" y="529" on="1"/>
        <pt x="246" y="581" on="1"/>
        <pt x="179" y="529" on="1"/>
        <pt x="102" y="529" on="1"/>
      </contour>
      <contour>
        <pt x="408" y="354" on="1"/>
        <pt x="408" y="323" on="0"/>
        <pt x="387" y="264" on="0"/>
        <pt x="357" y="240" on="1"/>
        <pt x="289" y="186" on="0"/>
        <pt x="135" y="184" on="1"/>
        <pt x="151" y="105" on="0"/>
        <pt x="216" y="80" on="1"/>
        <pt x="239" y="71" on="0"/>
        <pt x="293" y="71" on="0"/>
        <pt x="331" y="80" on="0"/>
        <pt x="345" y="86" on="1"/>
        <pt x="372" y="99" on="0"/>
        <pt x="383" y="110" on="1"/>
        <pt x="405" y="40" on="1"/>
        <pt x="394" y="29" on="0"/>
        <pt x="368" y="18" on="1"/>
        <pt x="268" y="-23" on="0"/>
        <pt x="172" y="11" on="1"/>
        <pt x="85" y="42" on="0"/>
        <pt x="52" y="132" on="1"/>
        <pt x="35" y="177" on="0"/>
        <pt x="35" y="298" on="0"/>
        <pt x="71" y="391" on="0"/>
        <pt x="101" y="422" on="1"/>
        <pt x="161" y="486" on="0"/>
        <pt x="251" y="486" on="1"/>
        <pt x="317" y="486" on="0"/>
        <pt x="362" y="451" on="1"/>
        <pt x="408" y="414" on="0"/>
      </contour>
      <contour>
        <pt x="313" y="374" on="0"/>
        <pt x="283" y="410" on="0"/>
        <pt x="226" y="410" on="0"/>
        <pt x="187" y="392" on="0"/>
        <pt x="171" y="374" on="1"/>
        <pt x="136" y="333" on="0"/>
        <pt x="130" y="258" on="1"/>
        <pt x="203" y="258" on="0"/>
        <pt x="275" y="281" on="0"/>
        <pt x="313" y="318" on="0"/>
      </contour>
    </TTGlyph>
    <TTGlyph name="edieresis" xMin="35" yMin="11" xMax="408" yMax="681">
      <contour>
        <pt x="137" y="571" on="0"/>
        <pt x="106" y="603" on="0"/>
        <pt x="106" y="649" on="0"/>
        <pt x="137" y="681" on="0"/>
        <pt x="184" y="681" on="0"/>
        <pt x="216" y="648" on="0"/>
        <pt x="216" y="603" on="0"/>
        <pt x="183" y="571" on="0"/>
      </contour>
      <contour>
        <pt x="287" y="571" on="0"/>
        <pt x="256" y="604" on="0"/>
        <pt x="256" y="649" on="0"/>
        <pt x="287" y="681" on="0"/>
        <pt x="334" y="681" on="0"/>
        <pt x="366" y="648" on="0"/>
        <pt x="366" y="603" on="0"/>
        <pt x="333" y="571" on="0"/>
      </contour>
      <contour>
        <pt x="408" y="354" on="1"/>
        <pt x="408" y="323" on="0"/>
        <pt x="387" y="264" on="0"/>
        <pt x="357" y="240" on="1"/>
        <pt x="289" y="186" on="0"/>
        <pt x="135" y="184" on="1"/>
        <pt x="151" y="105" on="0"/>
        <pt x="216" y="80" on="1"/>
        <pt x="239" y="71" on="0"/>
        <pt x="293" y="71" on="0"/>
        <pt x="331" y="80" on="0"/>
        <pt x="345" y="86" on="1"/>
        <pt x="372" y="99" on="0"/>
        <pt x="383" y="110" on="1"/>
        <pt x="405" y="40" on="1"/>
        <pt x="394" y="29" on="0"/>
        <pt x="368" y="18" on="1"/>
        <pt x="268" y="-23" on="0"/>
        <pt x="172" y="11" on="1"/>
        <pt x="85" y="42" on="0"/>
        <pt x="52" y="132" on="1"/>
        <pt x="35" y="177" on="0"/>
        <pt x="35" y="298" on="0"/>
        <pt x="71" y="391" on="0"/>
        <pt x="101" y="422" on="1"/>
        <pt x="161" y="486" on="0"/>
        <pt x="251" y="486" on="1"/>
        <pt x="317" y="486" on="0"/>
        <pt x="362" y="451" on="1"/>
        <pt x="408" y="414" on="0"/>
      </contour>
      <contour>
        <pt x="313" y="374" on="0"/>
        <pt x="283" y="410" on="0"/>
        <pt x="226" y="410" on="0"/>
        <pt x="187" y="392" on="0"/>
        <pt x="171" y="374" on="1"/>
        <pt x="136" y="333" on="0"/>
        <pt x="130" y="258" on="1"/>
        <pt x="203" y="258" on="0"/>
        <pt x="275" y="281" on="0"/>
        <pt x="313" y="318" on="0"/>
      </contour>
    </TTGlyph>
    <TTGlyph name="egrave" xMin="35" yMin="-4" xMax="408" yMax="752">
      <contour>
        <pt x="360" y="596" on="1"/>
        <pt x="319" y="553" on="1"/>
        <pt x="155" y="673" on="1"/>
        <pt x="214" y="752" on="1"/>
        <pt x="246" y="744" on="1"/>
      </contour>
      <contour>
        <pt x="408" y="354" on="1"/>
        <pt x="408" y="384" on="0"/>
        <pt x="383" y="434" on="0"/>
        <pt x="362" y="451" on="1"/>
        <pt x="317" y="486" on="0"/>
        <pt x="251" y="486" on="1"/>
        <pt x="161" y="486" on="0"/>
        <pt x="101" y="422" on="1"/>
        <pt x="35" y="353" on="0"/>
        <pt x="35" y="237" on="1"/>
        <pt x="35" y="119" on="0"/>
        <pt x="100" y="56" on="1"/>
        <pt x="161" y="-4" on="0"/>
        <pt x="263" y="-4" on="1"/>
        <pt x="332" y="-4" on="0"/>
        <pt x="389" y="29" on="1"/>
        <pt x="401" y="36" on="0"/>
        <pt x="405" y="40" on="1"/>
        <pt x="383" y="110" on="1"/>
        <pt x="360" y="87" on="0"/>
        <pt x="312" y="76" on="1"/>
        <pt x="293" y="71" on="0"/>
        <pt x="239" y="71" on="0"/>
        <pt x="193" y="89" on="0"/>
        <pt x="176" y="104" on="1"/>
        <pt x="146" y="132" on="0"/>
        <pt x="135" y="184" on="1"/>
        <pt x="289" y="186" on="0"/>
        <pt x="357" y="240" on="1"/>
        <pt x="408" y="281" on="0"/>
      </contour>
      <contour>
        <pt x="254" y="410" on="1"/>
        <pt x="283" y="410" on="0"/>
        <pt x="313" y="374" on="0"/>
        <pt x="313" y="318" on="0"/>
        <pt x="275" y="281" on="0"/>
        <pt x="247" y="272" on="1"/>
        <pt x="203" y="258" on="0"/>
        <pt x="130" y="258" on="1"/>
        <pt x="136" y="333" on="0"/>
        <pt x="171" y="374" on="1"/>
        <pt x="203" y="410" on="0"/>
      </contour>
    </TTGlyph>
    <TTGlyph name="eight" xMin="41" yMin="-5" xMax="491" yMax="696">
      <contour>
        <pt x="41" y="184" on="1"/>
        <pt x="41" y="302" on="0"/>
        <pt x="163" y="370" on="1"/>
        <pt x="125" y="395" on="0"/>
        <pt x="72" y="468" on="0"/>
        <pt x="72" y="563" on="0"/>
        <pt x="107" y="626" on="0"/>
        <pt x="135" y="648" on="1"/>
        <pt x="194" y="696" on="0"/>
        <pt x="268" y="696" on="1"/>
        <pt x="345" y="696" on="0"/>
        <pt x="402" y="652" on="1"/>
        <pt x="463" y="603" on="0"/>
        <pt x="463" y="528" on="1"/>
        <pt x="463" y="458" on="0"/>
        <pt x="402" y="408" on="1"/>
        <pt x="385" y="393" on="0"/>
        <pt x="366" y="380" on="1"/>
        <pt x="428" y="343" on="0"/>
        <pt x="449" y="315" on="1"/>
        <pt x="491" y="261" on="0"/>
        <pt x="491" y="194" on="1"/>
        <pt x="491" y="108" on="0"/>
        <pt x="422" y="50" on="1"/>
        <pt x="358" y="-5" on="0"/>
        <pt x="267" y="-5" on="1"/>
        <pt x="174" y="-5" on="0"/>
        <pt x="110" y="42" on="1"/>
        <pt x="41" y="94" on="0"/>
      </contour>
      <contour>
        <pt x="243" y="327" on="1"/>
        <pt x="146" y="274" on="0"/>
        <pt x="146" y="187" on="1"/>
        <pt x="146" y="136" on="0"/>
        <pt x="188" y="106" on="1"/>
        <pt x="223" y="81" on="0"/>
        <pt x="293" y="81" on="0"/>
        <pt x="337" y="98" on="0"/>
        <pt x="352" y="112" on="1"/>
        <pt x="386" y="144" on="0"/>
        <pt x="386" y="186" on="1"/>
        <pt x="386" y="254" on="0"/>
        <pt x="296" y="300" on="1"/>
        <pt x="271" y="313" on="0"/>
      </contour>
      <contour>
        <pt x="316" y="442" on="0"/>
        <pt x="358" y="491" on="0"/>
        <pt x="358" y="562" on="0"/>
        <pt x="308" y="610" on="0"/>
        <pt x="228" y="610" on="0"/>
        <pt x="177" y="565" on="0"/>
        <pt x="177" y="510" on="0"/>
        <pt x="196" y="476" on="0"/>
        <pt x="211" y="464" on="1"/>
        <pt x="234" y="445" on="0"/>
        <pt x="284" y="422" on="1"/>
      </contour>
    </TTGlyph>
    <TTGlyph name="emdash" xMin="54" yMin="301" xMax="575" yMax="376">
      <contour>
        <pt x="54" y="376" on="1"/>
        <pt x="575" y="376" on="1"/>
        <pt x="575" y="301" on="1"/>
        <pt x="54" y="301" on="1"/>
      </contour>
    </TTGlyph>
    <TTGlyph name="endash" xMin="54" yMin="301" xMax="425" yMax="376">
      <contour>
        <pt x="54" y="376" on="1"/>
        <pt x="425" y="376" on="1"/>
        <pt x="425" y="301" on="1"/>
        <pt x="54" y="301" on="1"/>
      </contour>
    </TTGlyph>
    <TTGlyph name="equal" xMin="61" yMin="232" xMax="390" yMax="434">
      <contour>
        <pt x="390" y="308" on="1"/>
        <pt x="390" y="232" on="1"/>
        <pt x="61" y="232" on="1"/>
        <pt x="61" y="308" on="1"/>
      </contour>
      <contour>
        <pt x="390" y="434" on="1"/>
        <pt x="390" y="358" on="1"/>
        <pt x="61" y="358" on="1"/>
        <pt x="61" y="434" on="1"/>
      </contour>
    </TTGlyph>
    <TTGlyph name="eth" xMin="35" yMin="-4" xMax="469" yMax="730">
      <contour>
        <pt x="225" y="582" on="1"/>
        <pt x="184" y="613" on="0"/>
        <pt x="124" y="641" on="1"/>
        <pt x="161" y="730" on="1"/>
        <pt x="236" y="701" on="0"/>
        <pt x="309" y="640" on="1"/>
        <pt x="416" y="713" on="1"/>
        <pt x="465" y="633" on="1"/>
        <pt x="368" y="578" on="1"/>
        <pt x="460" y="466" on="0"/>
        <pt x="469" y="320" on="1"/>
        <pt x="469" y="300" on="1"/>
        <pt x="469" y="175" on="0"/>
        <pt x="417" y="92" on="1"/>
        <pt x="357" y="-4" on="0"/>
        <pt x="247" y="-4" on="1"/>
        <pt x="143" y="-4" on="0"/>
        <pt x="86" y="66" on="1"/>
        <pt x="35" y="127" on="0"/>
        <pt x="35" y="214" on="1"/>
        <pt x="35" y="307" on="0"/>
        <pt x="88" y="374" on="1"/>
        <pt x="144" y="442" on="0"/>
        <pt x="231" y="442" on="1"/>
        <pt x="314" y="442" on="0"/>
        <pt x="358" y="396" on="1"/>
        <pt x="336" y="472" on="0"/>
        <pt x="282" y="530" on="1"/>
        <pt x="176" y="470" on="1"/>
        <pt x="144" y="527" on="1"/>
      </contour>
      <contour>
        <pt x="248" y="82" on="1"/>
        <pt x="343" y="82" on="0"/>
        <pt x="367" y="216" on="1"/>
        <pt x="367" y="285" on="0"/>
        <pt x="328" y="324" on="1"/>
        <pt x="295" y="357" on="0"/>
        <pt x="241" y="357" on="1"/>
        <pt x="185" y="357" on="0"/>
        <pt x="156" y="313" on="1"/>
        <pt x="130" y="275" on="0"/>
        <pt x="130" y="153" on="0"/>
        <pt x="196" y="82" on="0"/>
      </contour>
    </TTGlyph>
    <TTGlyph name="exclam" xMin="66" yMin="-4" xMax="204" yMax="690">
      <contour>
        <pt x="108" y="-4" on="0"/>
        <pt x="74" y="30" on="0"/>
        <pt x="74" y="80" on="0"/>
        <pt x="108" y="114" on="0"/>
        <pt x="157" y="114" on="0"/>
        <pt x="193" y="79" on="0"/>
        <pt x="193" y="31" on="0"/>
        <pt x="157" y="-4" on="0"/>
      </contour>
      <contour>
        <pt x="66" y="677" on="1"/>
        <pt x="183" y="690" on="1"/>
        <pt x="204" y="652" on="1"/>
        <pt x="167" y="237" on="1"/>
        <pt x="98" y="237" on="1"/>
      </contour>
    </TTGlyph>
    <TTGlyph name="exclamdown" xMin="59" yMin="-202" xMax="197" yMax="492">
      <contour>
        <pt x="101" y="374" on="0"/>
        <pt x="67" y="408" on="0"/>
        <pt x="67" y="458" on="0"/>
        <pt x="101" y="492" on="0"/>
        <pt x="150" y="492" on="0"/>
        <pt x="186" y="457" on="0"/>
        <pt x="186" y="409" on="0"/>
        <pt x="150" y="374" on="0"/>
      </contour>
      <contour>
        <pt x="91" y="251" on="1"/>
        <pt x="160" y="251" on="1"/>
        <pt x="197" y="-164" on="1"/>
        <pt x="176" y="-202" on="1"/>
        <pt x="59" y="-189" on="1"/>
      </contour>
    </TTGlyph>
    <TTGlyph name="f" xMin="17" yMin="0" xMax="379" yMax="730">
      <contour>
        <pt x="17" y="476" on="1"/>
        <pt x="24" y="486" on="1"/>
        <pt x="99" y="486" on="1"/>
        <pt x="99" y="577" on="1"/>
        <pt x="99" y="653" on="0"/>
        <pt x="140" y="694" on="1"/>
        <pt x="176" y="730" on="0"/>
        <pt x="236" y="730" on="1"/>
        <pt x="305" y="730" on="0"/>
        <pt x="364" y="688" on="1"/>
        <pt x="376" y="680" on="0"/>
        <pt x="379" y="677" on="1"/>
        <pt x="308" y="594" on="1"/>
        <pt x="244" y="653" on="1"/>
        <pt x="238" y="655" on="0"/>
        <pt x="230" y="655" on="1"/>
        <pt x="190" y="655" on="0"/>
        <pt x="190" y="589" on="1"/>
        <pt x="190" y="486" on="1"/>
        <pt x="303" y="486" on="1"/>
        <pt x="308" y="486" on="0"/>
        <pt x="308" y="480" on="1"/>
        <pt x="308" y="411" on="1"/>
        <pt x="190" y="411" on="1"/>
        <pt x="190" y="71" on="1"/>
        <pt x="304" y="54" on="1"/>
        <pt x="304" y="0" on="1"/>
        <pt x="54" y="0" on="1"/>
        <pt x="42" y="54" on="1"/>
        <pt x="99" y="66" on="1"/>
        <pt x="99" y="411" on="1"/>
        <pt x="31" y="411" on="1"/>
      </contour>
    </TTGlyph>
    <TTGlyph name="five" xMin="19" yMin="-4" xMax="469" yMax="690">
      <contour>
        <pt x="167" y="375" on="1"/>
        <pt x="121" y="375" on="0"/>
        <pt x="79" y="369" on="1"/>
        <pt x="79" y="658" on="1"/>
        <pt x="111" y="690" on="1"/>
        <pt x="430" y="690" on="1"/>
        <pt x="430" y="604" on="1"/>
        <pt x="174" y="604" on="1"/>
        <pt x="174" y="460" on="1"/>
        <pt x="198" y="460" on="1"/>
        <pt x="215" y="460" on="0"/>
        <pt x="278" y="457" on="0"/>
        <pt x="362" y="429" on="0"/>
        <pt x="395" y="402" on="1"/>
        <pt x="469" y="340" on="0"/>
        <pt x="469" y="235" on="1"/>
        <pt x="469" y="131" on="0"/>
        <pt x="391" y="62" on="1"/>
        <pt x="315" y="-4" on="0"/>
        <pt x="209" y="-4" on="1"/>
        <pt x="148" y="-4" on="0"/>
        <pt x="51" y="36" on="0"/>
        <pt x="19" y="65" on="1"/>
        <pt x="68" y="142" on="1"/>
        <pt x="133" y="82" on="0"/>
        <pt x="215" y="82" on="1"/>
        <pt x="279" y="82" on="0"/>
        <pt x="322" y="124" on="1"/>
        <pt x="364" y="164" on="0"/>
        <pt x="364" y="228" on="1"/>
        <pt x="364" y="308" on="0"/>
        <pt x="307" y="345" on="1"/>
        <pt x="261" y="375" on="0"/>
      </contour>
    </TTGlyph>
    <TTGlyph name="four" xMin="2" yMin="1" xMax="480" yMax="691">
      <contour>
        <pt x="398" y="197" on="1"/>
        <pt x="398" y="82" on="1"/>
        <pt x="479" y="69" on="1"/>
        <pt x="479" y="1" on="1"/>
        <pt x="161" y="1" on="1"/>
        <pt x="161" y="69" on="1"/>
        <pt x="299" y="85" on="1"/>
        <pt x="299" y="197" on="1"/>
        <pt x="35" y="197" on="1"/>
        <pt x="2" y="272" on="1"/>
        <pt x="290" y="691" on="1"/>
        <pt x="398" y="691" on="1"/>
        <pt x="398" y="283" on="1"/>
        <pt x="480" y="283" on="1"/>
        <pt x="480" y="197" on="1"/>
      </contour>
      <contour>
        <pt x="299" y="283" on="1"/>
        <pt x="299" y="568" on="1"/>
        <pt x="100" y="283" on="1"/>
      </contour>
    </TTGlyph>
    <TTGlyph name="g" xMin="18" yMin="-275" xMax="484" yMax="492">
      <contour>
        <pt x="116" y="155" on="1"/>
        <pt x="39" y="206" on="0"/>
        <pt x="39" y="302" on="1"/>
        <pt x="39" y="382" on="0"/>
        <pt x="94" y="434" on="1"/>
        <pt x="147" y="486" on="0"/>
        <pt x="300" y="486" on="0"/>
        <pt x="354" y="442" on="1"/>
        <pt x="453" y="492" on="1"/>
        <pt x="474" y="489" on="1"/>
        <pt x="484" y="406" on="1"/>
        <pt x="394" y="395" on="1"/>
        <pt x="418" y="351" on="0"/>
        <pt x="418" y="258" on="0"/>
        <pt x="385" y="192" on="0"/>
        <pt x="358" y="170" on="1"/>
        <pt x="305" y="126" on="0"/>
        <pt x="228" y="126" on="1"/>
        <pt x="203" y="126" on="0"/>
        <pt x="184" y="130" on="1"/>
        <pt x="159" y="91" on="1"/>
        <pt x="163" y="74" on="1"/>
        <pt x="173" y="72" on="0"/>
        <pt x="239" y="63" on="0"/>
        <pt x="325" y="43" on="0"/>
        <pt x="386" y="12" on="0"/>
        <pt x="404" y="-6" on="1"/>
        <pt x="434" y="-39" on="0"/>
        <pt x="434" y="-139" on="0"/>
        <pt x="398" y="-207" on="0"/>
        <pt x="369" y="-230" on="1"/>
        <pt x="310" y="-275" on="0"/>
        <pt x="225" y="-275" on="1"/>
        <pt x="135" y="-275" on="0"/>
        <pt x="79" y="-237" on="1"/>
        <pt x="18" y="-196" on="0"/>
        <pt x="18" y="-126" on="1"/>
        <pt x="18" y="-32" on="0"/>
        <pt x="101" y="9" on="1"/>
        <pt x="77" y="29" on="0"/>
        <pt x="77" y="116" on="0"/>
      </contour>
      <contour>
        <pt x="224" y="411" on="1"/>
        <pt x="183" y="409" on="0"/>
        <pt x="134" y="351" on="0"/>
        <pt x="134" y="278" on="0"/>
        <pt x="150" y="238" on="0"/>
        <pt x="163" y="226" on="1"/>
        <pt x="188" y="201" on="0"/>
        <pt x="269" y="201" on="0"/>
        <pt x="323" y="255" on="0"/>
        <pt x="323" y="306" on="1"/>
        <pt x="323" y="357" on="0"/>
        <pt x="266" y="411" on="0"/>
        <pt x="228" y="411" on="1"/>
      </contour>
      <contour>
        <pt x="358" y="-78" on="0"/>
        <pt x="303" y="-53" on="0"/>
        <pt x="204" y="-32" on="0"/>
        <pt x="177" y="-24" on="1"/>
        <pt x="106" y="-53" on="0"/>
        <pt x="106" y="-112" on="1"/>
        <pt x="106" y="-145" on="0"/>
        <pt x="143" y="-167" on="1"/>
        <pt x="177" y="-187" on="0"/>
        <pt x="231" y="-187" on="1"/>
        <pt x="284" y="-187" on="0"/>
        <pt x="320" y="-164" on="1"/>
        <pt x="358" y="-141" on="0"/>
      </contour>
    </TTGlyph>
    <TTGlyph name="germandbls" xMin="32" yMin="-8" xMax="506" yMax="731">
      <contour>
        <pt x="261" y="656" on="1"/>
        <pt x="175" y="656" on="0"/>
        <pt x="175" y="550" on="1"/>
        <pt x="175" y="0" on="1"/>
        <pt x="32" y="0" on="1"/>
        <pt x="32" y="58" on="1"/>
        <pt x="83" y="68" on="1"/>
        <pt x="83" y="531" on="1"/>
        <pt x="83" y="630" on="0"/>
        <pt x="135" y="684" on="1"/>
        <pt x="182" y="731" on="0"/>
        <pt x="263" y="731" on="1"/>
        <pt x="333" y="731" on="0"/>
        <pt x="382" y="692" on="1"/>
        <pt x="436" y="649" on="0"/>
        <pt x="436" y="578" on="1"/>
        <pt x="436" y="532" on="0"/>
        <pt x="403" y="473" on="0"/>
        <pt x="363" y="431" on="0"/>
        <pt x="330" y="399" on="0"/>
        <pt x="330" y="381" on="1"/>
        <pt x="334" y="359" on="0"/>
        <pt x="375" y="338" on="1"/>
        <pt x="506" y="270" on="0"/>
        <pt x="506" y="163" on="1"/>
        <pt x="506" y="85" on="0"/>
        <pt x="450" y="36" on="1"/>
        <pt x="400" y="-8" on="0"/>
        <pt x="331" y="-8" on="1"/>
        <pt x="273" y="-8" on="0"/>
        <pt x="219" y="16" on="1"/>
        <pt x="273" y="110" on="1"/>
        <pt x="286" y="99" on="0"/>
        <pt x="312" y="74" on="0"/>
        <pt x="323" y="67" on="1"/>
        <pt x="358" y="67" on="0"/>
        <pt x="411" y="119" on="0"/>
        <pt x="411" y="165" on="1"/>
        <pt x="411" y="208" on="0"/>
        <pt x="367" y="244" on="1"/>
        <pt x="348" y="259" on="0"/>
        <pt x="304" y="286" on="0"/>
        <pt x="285" y="302" on="1"/>
        <pt x="241" y="337" on="0"/>
        <pt x="241" y="379" on="1"/>
        <pt x="241" y="408" on="0"/>
        <pt x="273" y="448" on="0"/>
        <pt x="312" y="488" on="0"/>
        <pt x="344" y="538" on="0"/>
        <pt x="344" y="578" on="1"/>
        <pt x="342" y="610" on="0"/>
        <pt x="295" y="656" on="0"/>
      </contour>
    </TTGlyph>
    <TTGlyph name="grave" xMin="52" yMin="500" xMax="250" yMax="703">
      <contour>
        <pt x="52" y="632" on="1"/>
        <pt x="112" y="703" on="1"/>
        <pt x="143" y="695" on="1"/>
        <pt x="250" y="537" on="1"/>
        <pt x="213" y="500" on="1"/>
      </contour>
    </TTGlyph>
    <TTGlyph name="greater" xMin="67" yMin="104" xMax="394" yMax="572">
      <contour>
        <pt x="394" y="374" on="1"/>
        <pt x="394" y="306" on="1"/>
        <pt x="67" y="104" on="1"/>
        <pt x="67" y="201" on="1"/>
        <pt x="298" y="339" on="1"/>
        <pt x="67" y="478" on="1"/>
        <pt x="67" y="572" on="1"/>
      </contour>
    </TTGlyph>
    <TTGlyph name="guillemotleft" xMin="6" yMin="123" xMax="422" yMax="553">
      <contour>
        <pt x="6" y="339" on="1"/>
        <pt x="219" y="553" on="1"/>
        <pt x="273" y="499" on="1"/>
        <pt x="112" y="338" on="1"/>
        <pt x="273" y="176" on="1"/>
        <pt x="219" y="123" on="1"/>
      </contour>
      <contour>
        <pt x="176" y="339" on="1"/>
        <pt x="368" y="532" on="1"/>
        <pt x="422" y="478" on="1"/>
        <pt x="282" y="338" on="1"/>
        <pt x="422" y="197" on="1"/>
        <pt x="368" y="144" on="1"/>
      </contour>
    </TTGlyph>
    <TTGlyph name="guillemotright" xMin="40" yMin="123" xMax="457" yMax="553">
      <contour>
        <pt x="350" y="337" on="1"/>
        <pt x="189" y="499" on="1"/>
        <pt x="244" y="553" on="1"/>
        <pt x="457" y="337" on="1"/>
        <pt x="244" y="123" on="1"/>
        <pt x="190" y="176" on="1"/>
      </contour>
      <contour>
        <pt x="179" y="338" on="1"/>
        <pt x="40" y="478" on="1"/>
        <pt x="94" y="532" on="1"/>
        <pt x="286" y="337" on="1"/>
        <pt x="94" y="144" on="1"/>
        <pt x="40" y="197" on="1"/>
      </contour>
    </TTGlyph>
    <TTGlyph name="guilsinglleft" xMin="11" yMin="70" xMax="299" yMax="530">
      <contour>
        <pt x="11" y="314" on="1"/>
        <pt x="294" y="530" on="1"/>
        <pt x="299" y="528" on="1"/>
        <pt x="299" y="437" on="1"/>
        <pt x="120" y="300" on="1"/>
        <pt x="299" y="164" on="1"/>
        <pt x="299" y="73" on="1"/>
        <pt x="293" y="70" on="1"/>
        <pt x="11" y="288" on="1"/>
      </contour>
    </TTGlyph>
    <TTGlyph name="guilsinglright" xMin="50" yMin="70" xMax="338" yMax="530">
      <contour>
        <pt x="338" y="288" on="1"/>
        <pt x="56" y="70" on="1"/>
        <pt x="50" y="73" on="1"/>
        <pt x="50" y="164" on="1"/>
        <pt x="229" y="300" on="1"/>
        <pt x="50" y="437" on="1"/>
        <pt x="50" y="528" on="1"/>
        <pt x="55" y="530" on="1"/>
        <pt x="338" y="314" on="1"/>
      </contour>
    </TTGlyph>
    <TTGlyph name="h" xMin="18" yMin="0" xMax="500" yMax="733">
      <contour>
        <pt x="174" y="450" on="1"/>
        <pt x="224" y="486" on="0"/>
        <pt x="292" y="486" on="1"/>
        <pt x="396" y="486" on="0"/>
        <pt x="428" y="410" on="1"/>
        <pt x="440" y="384" on="0"/>
        <pt x="440" y="346" on="1"/>
        <pt x="440" y="70" on="1"/>
        <pt x="500" y="54" on="1"/>
        <pt x="500" y="0" on="1"/>
        <pt x="301" y="0" on="1"/>
        <pt x="289" y="54" on="1"/>
        <pt x="350" y="68" on="1"/>
        <pt x="350" y="331" on="1"/>
        <pt x="350" y="376" on="0"/>
        <pt x="308" y="409" on="0"/>
        <pt x="261" y="409" on="0"/>
        <pt x="230" y="401" on="0"/>
        <pt x="216" y="395" on="1"/>
        <pt x="188" y="383" on="0"/>
        <pt x="174" y="369" on="1"/>
        <pt x="174" y="70" on="1"/>
        <pt x="233" y="54" on="1"/>
        <pt x="233" y="0" on="1"/>
        <pt x="34" y="0" on="1"/>
        <pt x="22" y="54" on="1"/>
        <pt x="84" y="68" on="1"/>
        <pt x="84" y="656" on="1"/>
        <pt x="27" y="652" on="1"/>
        <pt x="18" y="712" on="1"/>
        <pt x="143" y="733" on="1"/>
        <pt x="174" y="699" on="1"/>
      </contour>
    </TTGlyph>
    <TTGlyph name="hyphen" xMin="58" yMin="244" xMax="341" yMax="319">
      <contour>
        <pt x="58" y="305" on="1"/>
        <pt x="70" y="319" on="1"/>
        <pt x="335" y="319" on="1"/>
        <pt x="341" y="319" on="0"/>
        <pt x="341" y="311" on="1"/>
        <pt x="341" y="244" on="1"/>
        <pt x="58" y="244" on="1"/>
      </contour>
    </TTGlyph>
    <TTGlyph name="i" xMin="29" yMin="0" xMax="243" yMax="728">
      <contour>
        <pt x="184" y="70" on="1"/>
        <pt x="243" y="54" on="1"/>
        <pt x="243" y="0" on="1"/>
        <pt x="43" y="0" on="1"/>
        <pt x="32" y="54" on="1"/>
        <pt x="94" y="68" on="1"/>
        <pt x="94" y="408" on="1"/>
        <pt x="39" y="404" on="1"/>
        <pt x="29" y="464" on="1"/>
        <pt x="152" y="486" on="1"/>
        <pt x="184" y="454" on="1"/>
      </contour>
      <contour>
        <pt x="62" y="666" on="1"/>
        <pt x="62" y="692" on="0"/>
        <pt x="98" y="728" on="0"/>
        <pt x="124" y="728" on="1"/>
        <pt x="150" y="728" on="0"/>
        <pt x="186" y="690" on="0"/>
        <pt x="186" y="640" on="0"/>
        <pt x="150" y="604" on="0"/>
        <pt x="124" y="604" on="1"/>
        <pt x="98" y="604" on="0"/>
        <pt x="62" y="640" on="0"/>
      </contour>
    </TTGlyph>
    <TTGlyph name="iacute" xMin="29" yMin="0" xMax="243" yMax="730">
      <contour>
        <pt x="147" y="722" on="1"/>
        <pt x="179" y="730" on="1"/>
        <pt x="238" y="650" on="1"/>
        <pt x="73" y="530" on="1"/>
        <pt x="32" y="573" on="1"/>
      </contour>
      <contour>
        <pt x="184" y="70" on="1"/>
        <pt x="243" y="54" on="1"/>
        <pt x="243" y="0" on="1"/>
        <pt x="43" y="0" on="1"/>
        <pt x="32" y="54" on="1"/>
        <pt x="94" y="68" on="1"/>
        <pt x="94" y="408" on="1"/>
        <pt x="39" y="404" on="1"/>
        <pt x="29" y="464" on="1"/>
        <pt x="152" y="486" on="1"/>
        <pt x="184" y="454" on="1"/>
      </contour>
    </TTGlyph>
    <TTGlyph name="icircumflex" xMin="-11" yMin="0" xMax="263" yMax="695">
      <contour>
        <pt x="114" y="695" on="1"/>
        <pt x="138" y="695" on="1"/>
        <pt x="263" y="545" on="1"/>
        <pt x="258" y="537" on="1"/>
        <pt x="191" y="537" on="1"/>
        <pt x="125" y="591" on="1"/>
        <pt x="58" y="537" on="1"/>
        <pt x="-7" y="537" on="1"/>
        <pt x="-11" y="544" on="1"/>
      </contour>
      <contour>
        <pt x="184" y="70" on="1"/>
        <pt x="243" y="54" on="1"/>
        <pt x="243" y="0" on="1"/>
        <pt x="43" y="0" on="1"/>
        <pt x="32" y="54" on="1"/>
        <pt x="94" y="68" on="1"/>
        <pt x="94" y="408" on="1"/>
        <pt x="39" y="404" on="1"/>
        <pt x="29" y="464" on="1"/>
        <pt x="152" y="486" on="1"/>
        <pt x="184" y="454" on="1"/>
      </contour>
    </TTGlyph>
    <TTGlyph name="idieresis" xMin="-1" yMin="0" xMax="249" yMax="681">
      <contour>
        <pt x="170" y="571" on="0"/>
        <pt x="138" y="604" on="0"/>
        <pt x="138" y="649" on="0"/>
        <pt x="170" y="681" on="0"/>
        <pt x="216" y="681" on="0"/>
        <pt x="249" y="648" on="0"/>
        <pt x="249" y="603" on="0"/>
        <pt x="215" y="571" on="0"/>
      </contour>
      <contour>
        <pt x="30" y="571" on="0"/>
        <pt x="-1" y="603" on="0"/>
        <pt x="-1" y="649" on="0"/>
        <pt x="30" y="681" on="0"/>
        <pt x="77" y="681" on="0"/>
        <pt x="109" y="648" on="0"/>
        <pt x="109" y="603" on="0"/>
        <pt x="76" y="571" on="0"/>
      </contour>
      <contour>
        <pt x="184" y="70" on="1"/>
        <pt x="243" y="54" on="1"/>
        <pt x="243" y="0" on="1"/>
        <pt x="43" y="0" on="1"/>
        <pt x="32" y="54" on="1"/>
        <pt x="94" y="68" on="1"/>
        <pt x="94" y="408" on="1"/>
        <pt x="39" y="404" on="1"/>
        <pt x="29" y="464" on="1"/>
        <pt x="152" y="486" on="1"/>
        <pt x="184" y="454" on="1"/>
      </contour>
    </TTGlyph>
    <TTGlyph name="igrave" xMin="29" yMin="0" xMax="243" yMax="731">
      <contour>
        <pt x="195" y="531" on="1"/>
        <pt x="29" y="651" on="1"/>
        <pt x="89" y="731" on="1"/>
        <pt x="121" y="723" on="1"/>
        <pt x="235" y="574" on="1"/>
      </contour>
      <contour>
        <pt x="184" y="454" on="1"/>
        <pt x="152" y="486" on="1"/>
        <pt x="29" y="464" on="1"/>
        <pt x="39" y="404" on="1"/>
        <pt x="94" y="408" on="1"/>
        <pt x="94" y="68" on="1"/>
        <pt x="32" y="54" on="1"/>
        <pt x="43" y="0" on="1"/>
        <pt x="243" y="0" on="1"/>
        <pt x="243" y="54" on="1"/>
        <pt x="184" y="70" on="1"/>
      </contour>
    </TTGlyph>
    <TTGlyph name="j" xMin="-37" yMin="-272" xMax="176" yMax="728">
      <contour>
        <pt x="50" y="-196" on="1"/>
        <pt x="85" y="-196" on="0"/>
        <pt x="85" y="-135" on="1"/>
        <pt x="85" y="408" on="1"/>
        <pt x="32" y="404" on="1"/>
        <pt x="23" y="464" on="1"/>
        <pt x="144" y="486" on="1"/>
        <pt x="175" y="454" on="1"/>
        <pt x="175" y="-124" on="1"/>
        <pt x="175" y="-203" on="0"/>
        <pt x="110" y="-272" on="0"/>
        <pt x="55" y="-272" on="1"/>
        <pt x="4" y="-272" on="0"/>
        <pt x="-37" y="-246" on="1"/>
        <pt x="1" y="-173" on="1"/>
        <pt x="8" y="-178" on="0"/>
        <pt x="33" y="-196" on="0"/>
      </contour>
      <contour>
        <pt x="52" y="666" on="1"/>
        <pt x="52" y="692" on="0"/>
        <pt x="88" y="728" on="0"/>
        <pt x="114" y="728" on="1"/>
        <pt x="140" y="728" on="0"/>
        <pt x="176" y="690" on="0"/>
        <pt x="176" y="640" on="0"/>
        <pt x="140" y="604" on="0"/>
        <pt x="87" y="604" on="0"/>
        <pt x="52" y="640" on="0"/>
      </contour>
    </TTGlyph>
    <TTGlyph name="k" xMin="18" yMin="0" xMax="466" yMax="733">
      <contour>
        <pt x="174" y="264" on="1"/>
        <pt x="327" y="423" on="1"/>
        <pt x="278" y="423" on="1"/>
        <pt x="270" y="486" on="1"/>
        <pt x="429" y="486" on="1"/>
        <pt x="453" y="440" on="1"/>
        <pt x="298" y="290" on="1"/>
        <pt x="413" y="68" on="1"/>
        <pt x="466" y="56" on="1"/>
        <pt x="466" y="0" on="1"/>
        <pt x="341" y="0" on="1"/>
        <pt x="227" y="221" on="1"/>
        <pt x="174" y="170" on="1"/>
        <pt x="174" y="66" on="1"/>
        <pt x="233" y="54" on="1"/>
        <pt x="233" y="0" on="1"/>
        <pt x="34" y="0" on="1"/>
        <pt x="22" y="54" on="1"/>
        <pt x="84" y="68" on="1"/>
        <pt x="84" y="656" on="1"/>
        <pt x="27" y="652" on="1"/>
        <pt x="18" y="712" on="1"/>
        <pt x="143" y="733" on="1"/>
        <pt x="174" y="699" on="1"/>
      </contour>
    </TTGlyph>
    <TTGlyph name="l" xMin="17" yMin="0" xMax="237" yMax="733">
      <contour>
        <pt x="174" y="70" on="1"/>
        <pt x="237" y="54" on="1"/>
        <pt x="237" y="0" on="1"/>
        <pt x="33" y="0" on="1"/>
        <pt x="21" y="54" on="1"/>
        <pt x="84" y="68" on="1"/>
        <pt x="84" y="656" on="1"/>
        <pt x="27" y="652" on="1"/>
        <pt x="17" y="712" on="1"/>
        <pt x="142" y="733" on="1"/>
        <pt x="174" y="699" on="1"/>
      </contour>
    </TTGlyph>
    <TTGlyph name="less" xMin="29" yMin="104" xMax="356" yMax="572">
      <contour>
        <pt x="125" y="339" on="1"/>
        <pt x="356" y="201" on="1"/>
        <pt x="356" y="104" on="1"/>
        <pt x="29" y="306" on="1"/>
        <pt x="29" y="374" on="1"/>
        <pt x="356" y="572" on="1"/>
        <pt x="356" y="478" on="1"/>
      </contour>
    </TTGlyph>
    <TTGlyph name="logicalnot" xMin="49" yMin="235" xMax="524" yMax="455">
      <contour>
        <pt x="49" y="380" on="1"/>
        <pt x="49" y="444" on="1"/>
        <pt x="60" y="455" on="1"/>
        <pt x="513" y="455" on="1"/>
        <pt x="524" y="444" on="1"/>
        <pt x="524" y="242" on="1"/>
        <pt x="524" y="235" on="0"/>
        <pt x="516" y="235" on="1"/>
        <pt x="446" y="235" on="1"/>
        <pt x="446" y="380" on="1"/>
      </contour>
    </TTGlyph>
    <TTGlyph name="m" xMin="29" yMin="0" xMax="776" yMax="486">
      <contour>
        <pt x="448" y="363" on="1"/>
        <pt x="449" y="334" on="1"/>
        <pt x="449" y="70" on="1"/>
        <pt x="509" y="54" on="1"/>
        <pt x="509" y="0" on="1"/>
        <pt x="310" y="0" on="1"/>
        <pt x="298" y="54" on="1"/>
        <pt x="359" y="68" on="1"/>
        <pt x="359" y="331" on="1"/>
        <pt x="359" y="376" on="0"/>
        <pt x="317" y="409" on="0"/>
        <pt x="255" y="409" on="0"/>
        <pt x="197" y="383" on="0"/>
        <pt x="184" y="370" on="1"/>
        <pt x="184" y="70" on="1"/>
        <pt x="242" y="54" on="1"/>
        <pt x="242" y="0" on="1"/>
        <pt x="43" y="0" on="1"/>
        <pt x="31" y="54" on="1"/>
        <pt x="94" y="68" on="1"/>
        <pt x="94" y="408" on="1"/>
        <pt x="39" y="404" on="1"/>
        <pt x="29" y="464" on="1"/>
        <pt x="42" y="466" on="0"/>
        <pt x="76" y="473" on="0"/>
        <pt x="110" y="479" on="0"/>
        <pt x="142" y="484" on="0"/>
        <pt x="152" y="486" on="1"/>
        <pt x="181" y="449" on="1"/>
        <pt x="229" y="486" on="0"/>
        <pt x="384" y="486" on="0"/>
        <pt x="421" y="438" on="1"/>
        <pt x="486" y="486" on="0"/>
        <pt x="567" y="486" on="1"/>
        <pt x="671" y="486" on="0"/>
        <pt x="705" y="410" on="1"/>
        <pt x="717" y="384" on="0"/>
        <pt x="717" y="346" on="1"/>
        <pt x="717" y="70" on="1"/>
        <pt x="776" y="54" on="1"/>
        <pt x="776" y="0" on="1"/>
        <pt x="576" y="0" on="1"/>
        <pt x="565" y="54" on="1"/>
        <pt x="627" y="68" on="1"/>
        <pt x="627" y="331" on="1"/>
        <pt x="627" y="373" on="0"/>
        <pt x="602" y="393" on="1"/>
        <pt x="581" y="409" on="0"/>
        <pt x="517" y="409" on="0"/>
        <pt x="462" y="385" on="0"/>
        <pt x="448" y="373" on="1"/>
      </contour>
    </TTGlyph>
    <TTGlyph name="macron" xMin="57" yMin="614" xMax="385" yMax="690">
      <contour>
        <pt x="57" y="614" on="1"/>
        <pt x="57" y="690" on="1"/>
        <pt x="385" y="690" on="1"/>
        <pt x="385" y="614" on="1"/>
      </contour>
    </TTGlyph>
    <TTGlyph name="mu" xMin="27" yMin="-274" xMax="497" yMax="487">
      <contour>
        <pt x="183" y="147" on="1"/>
        <pt x="192" y="72" on="0"/>
        <pt x="268" y="72" on="1"/>
        <pt x="303" y="72" on="0"/>
        <pt x="338" y="99" on="1"/>
        <pt x="349" y="108" on="0"/>
        <pt x="355" y="120" on="1"/>
        <pt x="355" y="405" on="1"/>
        <pt x="306" y="405" on="1"/>
        <pt x="296" y="464" on="1"/>
        <pt x="418" y="487" on="1"/>
        <pt x="447" y="453" on="1"/>
        <pt x="447" y="100" on="1"/>
        <pt x="447" y="79" on="0"/>
        <pt x="456" y="67" on="0"/>
        <pt x="466" y="67" on="1"/>
        <pt x="483" y="69" on="1"/>
        <pt x="497" y="24" on="1"/>
        <pt x="469" y="-4" on="0"/>
        <pt x="381" y="-4" on="0"/>
        <pt x="363" y="39" on="1"/>
        <pt x="320" y="-4" on="0"/>
        <pt x="256" y="-4" on="1"/>
        <pt x="213" y="-4" on="0"/>
        <pt x="179" y="10" on="1"/>
        <pt x="182" y="-5" on="1"/>
        <pt x="182" y="-274" on="1"/>
        <pt x="90" y="-274" on="1"/>
        <pt x="90" y="406" on="1"/>
        <pt x="36" y="406" on="1"/>
        <pt x="27" y="464" on="1"/>
        <pt x="151" y="486" on="1"/>
        <pt x="182" y="454" on="1"/>
        <pt x="182" y="416" on="1"/>
        <pt x="183" y="302" on="1"/>
      </contour>
    </TTGlyph>
    <TTGlyph name="multiply" xMin="49" yMin="165" xMax="428" yMax="545">
      <contour>
        <pt x="293" y="353" on="1"/>
        <pt x="426" y="221" on="1"/>
        <pt x="373" y="168" on="1"/>
        <pt x="240" y="300" on="1"/>
        <pt x="105" y="165" on="1"/>
        <pt x="52" y="219" on="1"/>
        <pt x="187" y="354" on="1"/>
        <pt x="49" y="492" on="1"/>
        <pt x="102" y="545" on="1"/>
        <pt x="240" y="407" on="1"/>
        <pt x="374" y="541" on="1"/>
        <pt x="428" y="488" on="1"/>
      </contour>
    </TTGlyph>
    <TTGlyph name="n" xMin="29" yMin="0" xMax="509" yMax="486">
      <contour>
        <pt x="181" y="449" on="1"/>
        <pt x="229" y="486" on="0"/>
        <pt x="301" y="486" on="1"/>
        <pt x="405" y="486" on="0"/>
        <pt x="438" y="410" on="1"/>
        <pt x="449" y="384" on="0"/>
        <pt x="449" y="346" on="1"/>
        <pt x="449" y="71" on="1"/>
        <pt x="509" y="54" on="1"/>
        <pt x="509" y="0" on="1"/>
        <pt x="310" y="0" on="1"/>
        <pt x="298" y="54" on="1"/>
        <pt x="359" y="68" on="1"/>
        <pt x="359" y="331" on="1"/>
        <pt x="359" y="376" on="0"/>
        <pt x="317" y="409" on="0"/>
        <pt x="255" y="409" on="0"/>
        <pt x="197" y="383" on="0"/>
        <pt x="184" y="370" on="1"/>
        <pt x="184" y="70" on="1"/>
        <pt x="242" y="54" on="1"/>
        <pt x="242" y="0" on="1"/>
        <pt x="43" y="0" on="1"/>
        <pt x="31" y="54" on="1"/>
        <pt x="94" y="68" on="1"/>
        <pt x="94" y="408" on="1"/>
        <pt x="39" y="404" on="1"/>
        <pt x="29" y="464" on="1"/>
        <pt x="42" y="466" on="0"/>
        <pt x="76" y="473" on="0"/>
        <pt x="110" y="479" on="0"/>
        <pt x="142" y="484" on="0"/>
        <pt x="152" y="486" on="1"/>
      </contour>
    </TTGlyph>
    <TTGlyph name="nine" xMin="42" yMin="-4" xMax="498" yMax="694">
      <contour>
        <pt x="98" y="143" on="1"/>
        <pt x="168" y="82" on="0"/>
        <pt x="243" y="82" on="1"/>
        <pt x="377" y="82" on="0"/>
        <pt x="391" y="300" on="1"/>
        <pt x="361" y="271" on="0"/>
        <pt x="284" y="245" on="0"/>
        <pt x="210" y="245" on="0"/>
        <pt x="132" y="273" on="0"/>
        <pt x="104" y="300" on="1"/>
        <pt x="43" y="357" on="0"/>
        <pt x="43" y="458" on="1"/>
        <pt x="43" y="557" on="0"/>
        <pt x="100" y="624" on="1"/>
        <pt x="161" y="694" on="0"/>
        <pt x="268" y="694" on="1"/>
        <pt x="389" y="694" on="0"/>
        <pt x="449" y="580" on="1"/>
        <pt x="498" y="487" on="0"/>
        <pt x="498" y="338" on="1"/>
        <pt x="498" y="195" on="0"/>
        <pt x="436" y="100" on="1"/>
        <pt x="406" y="53" on="0"/>
        <pt x="312" y="-4" on="0"/>
        <pt x="208" y="-4" on="0"/>
        <pt x="142" y="11" on="0"/>
        <pt x="116" y="22" on="1"/>
        <pt x="80" y="37" on="0"/>
        <pt x="42" y="65" on="1"/>
      </contour>
      <contour>
        <pt x="262" y="331" on="1"/>
        <pt x="283" y="331" on="0"/>
        <pt x="325" y="346" on="0"/>
        <pt x="342" y="361" on="1"/>
        <pt x="381" y="396" on="0"/>
        <pt x="385" y="447" on="1"/>
        <pt x="368" y="559" on="0"/>
        <pt x="310" y="595" on="1"/>
        <pt x="289" y="608" on="0"/>
        <pt x="261" y="608" on="1"/>
        <pt x="212" y="608" on="0"/>
        <pt x="148" y="536" on="0"/>
        <pt x="148" y="467" on="1"/>
        <pt x="148" y="400" on="0"/>
        <pt x="182" y="364" on="1"/>
        <pt x="213" y="331" on="0"/>
      </contour>
    </TTGlyph>
    <TTGlyph name="ntilde" xMin="29" yMin="0" xMax="509" yMax="680">
      <contour>
        <pt x="181" y="449" on="1"/>
        <pt x="229" y="486" on="0"/>
        <pt x="301" y="486" on="1"/>
        <pt x="405" y="486" on="0"/>
        <pt x="438" y="410" on="1"/>
        <pt x="449" y="384" on="0"/>
        <pt x="449" y="346" on="1"/>
        <pt x="449" y="71" on="1"/>
        <pt x="509" y="54" on="1"/>
        <pt x="509" y="0" on="1"/>
        <pt x="310" y="0" on="1"/>
        <pt x="298" y="54" on="1"/>
        <pt x="359" y="68" on="1"/>
        <pt x="359" y="331" on="1"/>
        <pt x="359" y="376" on="0"/>
        <pt x="317" y="409" on="0"/>
        <pt x="255" y="409" on="0"/>
        <pt x="197" y="383" on="0"/>
        <pt x="184" y="370" on="1"/>
        <pt x="184" y="70" on="1"/>
        <pt x="242" y="54" on="1"/>
        <pt x="242" y="0" on="1"/>
        <pt x="43" y="0" on="1"/>
        <pt x="31" y="54" on="1"/>
        <pt x="94" y="68" on="1"/>
        <pt x="94" y="408" on="1"/>
        <pt x="39" y="404" on="1"/>
        <pt x="29" y="464" on="1"/>
        <pt x="42" y="466" on="0"/>
        <pt x="76" y="473" on="0"/>
        <pt x="110" y="479" on="0"/>
        <pt x="142" y="484" on="0"/>
        <pt x="152" y="486" on="1"/>
      </contour>
      <contour>
        <pt x="228" y="596" on="1"/>
        <pt x="192" y="596" on="0"/>
        <pt x="173" y="551" on="1"/>
        <pt x="120" y="585" on="1"/>
        <pt x="120" y="613" on="0"/>
        <pt x="146" y="641" on="1"/>
        <pt x="178" y="676" on="0"/>
        <pt x="226" y="676" on="1"/>
        <pt x="262" y="676" on="0"/>
        <pt x="312" y="647" on="1"/>
        <pt x="324" y="640" on="0"/>
        <pt x="335" y="636" on="1"/>
        <pt x="336" y="633" on="1"/>
        <pt x="382" y="680" on="1"/>
        <pt x="438" y="614" on="1"/>
        <pt x="417" y="591" on="0"/>
        <pt x="372" y="559" on="0"/>
        <pt x="325" y="559" on="0"/>
        <pt x="296" y="571" on="0"/>
        <pt x="269" y="584" on="0"/>
        <pt x="243" y="596" on="0"/>
      </contour>
    </TTGlyph>
    <TTGlyph name="numbersign" xMin="29" yMin="48" xMax="613" yMax="691">
      <contour>
        <pt x="70" y="483" on="1"/>
        <pt x="83" y="506" on="1"/>
        <pt x="248" y="506" on="1"/>
        <pt x="317" y="691" on="1"/>
        <pt x="383" y="691" on="1"/>
        <pt x="394" y="677" on="1"/>
        <pt x="330" y="506" on="1"/>
        <pt x="431" y="506" on="1"/>
        <pt x="498" y="691" on="1"/>
        <pt x="564" y="691" on="1"/>
        <pt x="575" y="677" on="1"/>
        <pt x="513" y="506" on="1"/>
        <pt x="607" y="506" on="1"/>
        <pt x="613" y="506" on="0"/>
        <pt x="613" y="498" on="1"/>
        <pt x="613" y="431" on="1"/>
        <pt x="485" y="431" on="1"/>
        <pt x="444" y="317" on="1"/>
        <pt x="566" y="317" on="1"/>
        <pt x="572" y="317" on="0"/>
        <pt x="572" y="309" on="1"/>
        <pt x="572" y="242" on="1"/>
        <pt x="416" y="242" on="1"/>
        <pt x="346" y="48" on="1"/>
        <pt x="280" y="48" on="1"/>
        <pt x="269" y="61" on="1"/>
        <pt x="335" y="242" on="1"/>
        <pt x="233" y="242" on="1"/>
        <pt x="162" y="48" on="1"/>
        <pt x="96" y="48" on="1"/>
        <pt x="85" y="61" on="1"/>
        <pt x="151" y="242" on="1"/>
        <pt x="42" y="242" on="1"/>
        <pt x="29" y="294" on="1"/>
        <pt x="42" y="317" on="1"/>
        <pt x="179" y="317" on="1"/>
        <pt x="221" y="431" on="1"/>
        <pt x="83" y="431" on="1"/>
      </contour>
      <contour>
        <pt x="261" y="317" on="1"/>
        <pt x="362" y="317" on="1"/>
        <pt x="403" y="431" on="1"/>
        <pt x="303" y="431" on="1"/>
      </contour>
    </TTGlyph>
    <TTGlyph name="o" xMin="36" yMin="-4" xMax="460" yMax="486">
      <contour>
        <pt x="131" y="154" on="0"/>
        <pt x="195" y="71" on="0"/>
        <pt x="299" y="71" on="0"/>
        <pt x="365" y="152" on="0"/>
        <pt x="365" y="318" on="0"/>
        <pt x="302" y="411" on="0"/>
        <pt x="248" y="411" on="1"/>
        <pt x="191" y="411" on="0"/>
        <pt x="160" y="362" on="1"/>
        <pt x="131" y="315" on="0"/>
      </contour>
      <contour>
        <pt x="36" y="245" on="1"/>
        <pt x="36" y="303" on="0"/>
        <pt x="70" y="393" on="0"/>
        <pt x="100" y="424" on="1"/>
        <pt x="158" y="486" on="0"/>
        <pt x="248" y="486" on="1"/>
        <pt x="340" y="486" on="0"/>
        <pt x="400" y="420" on="1"/>
        <pt x="460" y="354" on="0"/>
        <pt x="460" y="243" on="1"/>
        <pt x="460" y="127" on="0"/>
        <pt x="396" y="60" on="1"/>
        <pt x="337" y="-4" on="0"/>
        <pt x="248" y="-4" on="1"/>
        <pt x="155" y="-4" on="0"/>
        <pt x="96" y="64" on="1"/>
        <pt x="36" y="131" on="0"/>
      </contour>
    </TTGlyph>
    <TTGlyph name="oacute" xMin="36" yMin="-4" xMax="460" yMax="730">
      <contour>
        <pt x="274" y="722" on="1"/>
        <pt x="306" y="730" on="1"/>
        <pt x="366" y="650" on="1"/>
        <pt x="200" y="529" on="1"/>
        <pt x="159" y="573" on="1"/>
      </contour>
      <contour>
        <pt x="131" y="154" on="0"/>
        <pt x="195" y="71" on="0"/>
        <pt x="299" y="71" on="0"/>
        <pt x="365" y="152" on="0"/>
        <pt x="365" y="318" on="0"/>
        <pt x="302" y="411" on="0"/>
        <pt x="248" y="411" on="1"/>
        <pt x="191" y="411" on="0"/>
        <pt x="160" y="362" on="1"/>
        <pt x="131" y="315" on="0"/>
      </contour>
      <contour>
        <pt x="36" y="245" on="1"/>
        <pt x="36" y="303" on="0"/>
        <pt x="70" y="393" on="0"/>
        <pt x="100" y="424" on="1"/>
        <pt x="158" y="486" on="0"/>
        <pt x="248" y="486" on="1"/>
        <pt x="340" y="486" on="0"/>
        <pt x="400" y="420" on="1"/>
        <pt x="460" y="354" on="0"/>
        <pt x="460" y="243" on="1"/>
        <pt x="460" y="127" on="0"/>
        <pt x="396" y="60" on="1"/>
        <pt x="337" y="-4" on="0"/>
        <pt x="248" y="-4" on="1"/>
        <pt x="155" y="-4" on="0"/>
        <pt x="96" y="64" on="1"/>
        <pt x="36" y="131" on="0"/>
      </contour>
    </TTGlyph>
    <TTGlyph name="ocircumflex" xMin="36" yMin="-4" xMax="460" yMax="695">
      <contour>
        <pt x="234" y="695" on="1"/>
        <pt x="258" y="695" on="1"/>
        <pt x="383" y="545" on="1"/>
        <pt x="379" y="537" on="1"/>
        <pt x="313" y="537" on="1"/>
        <pt x="246" y="591" on="1"/>
        <pt x="179" y="537" on="1"/>
        <pt x="114" y="537" on="1"/>
        <pt x="109" y="544" on="1"/>
      </contour>
      <contour>
        <pt x="131" y="154" on="0"/>
        <pt x="195" y="71" on="0"/>
        <pt x="299" y="71" on="0"/>
        <pt x="365" y="152" on="0"/>
        <pt x="365" y="318" on="0"/>
        <pt x="302" y="411" on="0"/>
        <pt x="248" y="411" on="1"/>
        <pt x="191" y="411" on="0"/>
        <pt x="160" y="362" on="1"/>
        <pt x="131" y="315" on="0"/>
      </contour>
      <contour>
        <pt x="36" y="245" on="1"/>
        <pt x="36" y="303" on="0"/>
        <pt x="70" y="393" on="0"/>
        <pt x="100" y="424" on="1"/>
        <pt x="158" y="486" on="0"/>
        <pt x="248" y="486" on="1"/>
        <pt x="340" y="486" on="0"/>
        <pt x="400" y="420" on="1"/>
        <pt x="460" y="354" on="0"/>
        <pt x="460" y="243" on="1"/>
        <pt x="460" y="127" on="0"/>
        <pt x="396" y="60" on="1"/>
        <pt x="337" y="-4" on="0"/>
        <pt x="248" y="-4" on="1"/>
        <pt x="155" y="-4" on="0"/>
        <pt x="96" y="64" on="1"/>
        <pt x="36" y="131" on="0"/>
      </contour>
    </TTGlyph>
    <TTGlyph name="odieresis" xMin="36" yMin="-4" xMax="460" yMax="681">
      <contour>
        <pt x="301" y="571" on="0"/>
        <pt x="270" y="604" on="0"/>
        <pt x="270" y="649" on="0"/>
        <pt x="301" y="681" on="0"/>
        <pt x="348" y="681" on="0"/>
        <pt x="380" y="648" on="0"/>
        <pt x="380" y="603" on="0"/>
        <pt x="347" y="571" on="0"/>
      </contour>
      <contour>
        <pt x="151" y="571" on="0"/>
        <pt x="120" y="603" on="0"/>
        <pt x="120" y="649" on="0"/>
        <pt x="151" y="681" on="0"/>
        <pt x="198" y="681" on="0"/>
        <pt x="230" y="648" on="0"/>
        <pt x="230" y="603" on="0"/>
        <pt x="197" y="571" on="0"/>
      </contour>
      <contour>
        <pt x="131" y="154" on="0"/>
        <pt x="195" y="71" on="0"/>
        <pt x="299" y="71" on="0"/>
        <pt x="365" y="152" on="0"/>
        <pt x="365" y="318" on="0"/>
        <pt x="302" y="411" on="0"/>
        <pt x="248" y="411" on="1"/>
        <pt x="191" y="411" on="0"/>
        <pt x="160" y="362" on="1"/>
        <pt x="131" y="315" on="0"/>
      </contour>
      <contour>
        <pt x="36" y="245" on="1"/>
        <pt x="36" y="303" on="0"/>
        <pt x="70" y="393" on="0"/>
        <pt x="100" y="424" on="1"/>
        <pt x="158" y="486" on="0"/>
        <pt x="248" y="486" on="1"/>
        <pt x="340" y="486" on="0"/>
        <pt x="400" y="420" on="1"/>
        <pt x="460" y="354" on="0"/>
        <pt x="460" y="243" on="1"/>
        <pt x="460" y="127" on="0"/>
        <pt x="396" y="60" on="1"/>
        <pt x="337" y="-4" on="0"/>
        <pt x="248" y="-4" on="1"/>
        <pt x="155" y="-4" on="0"/>
        <pt x="96" y="64" on="1"/>
        <pt x="36" y="131" on="0"/>
      </contour>
    </TTGlyph>
    <TTGlyph name="oe" xMin="36" yMin="-4" xMax="739" yMax="486">
      <contour>
        <pt x="594" y="-4" on="1"/>
        <pt x="473" y="-4" on="0"/>
        <pt x="412" y="78" on="1"/>
        <pt x="382" y="37" on="0"/>
        <pt x="296" y="-4" on="0"/>
        <pt x="201" y="-4" on="0"/>
        <pt x="124" y="31" on="0"/>
        <pt x="96" y="64" on="1"/>
        <pt x="36" y="131" on="0"/>
        <pt x="36" y="243" on="1"/>
        <pt x="36" y="357" on="0"/>
        <pt x="100" y="424" on="1"/>
        <pt x="158" y="486" on="0"/>
        <pt x="248" y="486" on="1"/>
        <pt x="355" y="486" on="0"/>
        <pt x="415" y="401" on="1"/>
        <pt x="446" y="443" on="0"/>
        <pt x="534" y="486" on="0"/>
        <pt x="614" y="486" on="0"/>
        <pt x="671" y="468" on="0"/>
        <pt x="692" y="451" on="1"/>
        <pt x="739" y="414" on="0"/>
        <pt x="739" y="352" on="1"/>
        <pt x="739" y="281" on="0"/>
        <pt x="688" y="240" on="1"/>
        <pt x="620" y="186" on="0"/>
        <pt x="466" y="184" on="1"/>
        <pt x="482" y="105" on="0"/>
        <pt x="547" y="80" on="1"/>
        <pt x="570" y="71" on="0"/>
        <pt x="624" y="71" on="0"/>
        <pt x="662" y="80" on="0"/>
        <pt x="676" y="86" on="1"/>
        <pt x="703" y="99" on="0"/>
        <pt x="714" y="110" on="1"/>
        <pt x="736" y="40" on="1"/>
        <pt x="725" y="29" on="0"/>
        <pt x="699" y="18" on="1"/>
        <pt x="646" y="-4" on="0"/>
      </contour>
      <contour>
        <pt x="131" y="154" on="0"/>
        <pt x="195" y="71" on="0"/>
        <pt x="299" y="71" on="0"/>
        <pt x="365" y="152" on="0"/>
        <pt x="365" y="318" on="0"/>
        <pt x="302" y="411" on="0"/>
        <pt x="248" y="411" on="1"/>
        <pt x="191" y="411" on="0"/>
        <pt x="160" y="362" on="1"/>
        <pt x="131" y="315" on="0"/>
      </contour>
      <contour>
        <pt x="644" y="374" on="0"/>
        <pt x="614" y="410" on="0"/>
        <pt x="557" y="410" on="0"/>
        <pt x="518" y="392" on="0"/>
        <pt x="502" y="374" on="1"/>
        <pt x="467" y="333" on="0"/>
        <pt x="461" y="258" on="1"/>
        <pt x="534" y="258" on="0"/>
        <pt x="606" y="281" on="0"/>
        <pt x="644" y="318" on="0"/>
      </contour>
    </TTGlyph>
    <TTGlyph name="ograve" xMin="36" yMin="-4" xMax="460" yMax="731">
      <contour>
        <pt x="322" y="530" on="1"/>
        <pt x="156" y="651" on="1"/>
        <pt x="216" y="731" on="1"/>
        <pt x="248" y="723" on="1"/>
        <pt x="362" y="573" on="1"/>
      </contour>
      <contour>
        <pt x="131" y="237" on="1"/>
        <pt x="131" y="359" on="0"/>
        <pt x="197" y="398" on="1"/>
        <pt x="219" y="411" on="0"/>
        <pt x="248" y="411" on="1"/>
        <pt x="302" y="411" on="0"/>
        <pt x="365" y="318" on="0"/>
        <pt x="365" y="152" on="0"/>
        <pt x="299" y="71" on="0"/>
        <pt x="195" y="71" on="0"/>
        <pt x="131" y="154" on="0"/>
      </contour>
      <contour>
        <pt x="36" y="245" on="1"/>
        <pt x="36" y="187" on="0"/>
        <pt x="67" y="96" on="0"/>
        <pt x="96" y="64" on="1"/>
        <pt x="155" y="-4" on="0"/>
        <pt x="248" y="-4" on="1"/>
        <pt x="337" y="-4" on="0"/>
        <pt x="396" y="60" on="1"/>
        <pt x="460" y="127" on="0"/>
        <pt x="460" y="243" on="1"/>
        <pt x="460" y="354" on="0"/>
        <pt x="400" y="420" on="1"/>
        <pt x="340" y="486" on="0"/>
        <pt x="248" y="486" on="1"/>
        <pt x="158" y="486" on="0"/>
        <pt x="100" y="424" on="1"/>
        <pt x="36" y="357" on="0"/>
      </contour>
    </TTGlyph>
    <TTGlyph name="one" xMin="25" yMin="0" xMax="347" yMax="693">
      <contour>
        <pt x="154" y="83" on="1"/>
        <pt x="154" y="579" on="1"/>
        <pt x="40" y="556" on="1"/>
        <pt x="25" y="628" on="1"/>
        <pt x="234" y="693" on="1"/>
        <pt x="254" y="684" on="1"/>
        <pt x="254" y="79" on="1"/>
        <pt x="347" y="67" on="1"/>
        <pt x="347" y="0" on="1"/>
        <pt x="52" y="0" on="1"/>
        <pt x="41" y="66" on="1"/>
      </contour>
    </TTGlyph>
    <TTGlyph name="onehalf" xMin="33" yMin="-11" xMax="672" yMax="703">
      <contour>
        <pt x="519" y="691" on="1"/>
        <pt x="518" y="677" on="1"/>
        <pt x="185" y="-11" on="1"/>
        <pt x="99" y="0" on="1"/>
        <pt x="96" y="2" on="1"/>
        <pt x="430" y="691" on="1"/>
      </contour>
      <contour>
        <pt x="395" y="49" on="1"/>
        <pt x="413" y="68" on="0"/>
        <pt x="468" y="121" on="0"/>
        <pt x="494" y="152" on="1"/>
        <pt x="556" y="228" on="0"/>
        <pt x="556" y="281" on="1"/>
        <pt x="556" y="304" on="0"/>
        <pt x="528" y="320" on="0"/>
        <pt x="516" y="320" on="1"/>
        <pt x="503" y="320" on="0"/>
        <pt x="488" y="314" on="1"/>
        <pt x="464" y="257" on="1"/>
        <pt x="379" y="297" on="1"/>
        <pt x="401" y="342" on="0"/>
        <pt x="465" y="388" on="0"/>
        <pt x="549" y="388" on="0"/>
        <pt x="597" y="370" on="0"/>
        <pt x="612" y="354" on="1"/>
        <pt x="643" y="323" on="0"/>
        <pt x="643" y="274" on="1"/>
        <pt x="643" y="205" on="0"/>
        <pt x="568" y="122" on="1"/>
        <pt x="547" y="98" on="0"/>
        <pt x="527" y="76" on="1"/>
        <pt x="517" y="65" on="1"/>
        <pt x="606" y="65" on="1"/>
        <pt x="627" y="121" on="1"/>
        <pt x="672" y="121" on="1"/>
        <pt x="659" y="0" on="1"/>
        <pt x="408" y="0" on="1"/>
      </contour>
      <contour>
        <pt x="177" y="371" on="1"/>
        <pt x="177" y="362" on="0"/>
        <pt x="213" y="362" on="1"/>
        <pt x="213" y="315" on="1"/>
        <pt x="48" y="315" on="1"/>
        <pt x="48" y="360" on="1"/>
        <pt x="93" y="367" on="1"/>
        <pt x="93" y="622" on="1"/>
        <pt x="41" y="614" on="1"/>
        <pt x="33" y="665" on="1"/>
        <pt x="166" y="703" on="1"/>
        <pt x="178" y="695" on="1"/>
        <pt x="178" y="639" on="1"/>
        <pt x="178" y="633" on="0"/>
        <pt x="177" y="627" on="1"/>
      </contour>
    </TTGlyph>
    <TTGlyph name="onequarter" xMin="31" yMin="-11" xMax="625" yMax="703">
      <contour>
        <pt x="578" y="108" on="1"/>
        <pt x="578" y="55" on="1"/>
        <pt x="620" y="49" on="1"/>
        <pt x="620" y="0" on="1"/>
        <pt x="414" y="0" on="1"/>
        <pt x="410" y="44" on="1"/>
        <pt x="494" y="56" on="1"/>
        <pt x="494" y="108" on="1"/>
        <pt x="335" y="108" on="1"/>
        <pt x="335" y="181" on="1"/>
        <pt x="490" y="386" on="1"/>
        <pt x="578" y="386" on="1"/>
        <pt x="578" y="174" on="1"/>
        <pt x="625" y="174" on="1"/>
        <pt x="625" y="108" on="1"/>
      </contour>
      <contour>
        <pt x="517" y="691" on="1"/>
        <pt x="516" y="677" on="1"/>
        <pt x="183" y="-11" on="1"/>
        <pt x="97" y="0" on="1"/>
        <pt x="94" y="2" on="1"/>
        <pt x="428" y="691" on="1"/>
      </contour>
      <contour>
        <pt x="175" y="371" on="1"/>
        <pt x="175" y="362" on="0"/>
        <pt x="211" y="362" on="1"/>
        <pt x="211" y="315" on="1"/>
        <pt x="46" y="315" on="1"/>
        <pt x="46" y="360" on="1"/>
        <pt x="91" y="367" on="1"/>
        <pt x="91" y="622" on="1"/>
        <pt x="39" y="614" on="1"/>
        <pt x="31" y="665" on="1"/>
        <pt x="164" y="703" on="1"/>
        <pt x="176" y="695" on="1"/>
        <pt x="176" y="639" on="1"/>
        <pt x="176" y="633" on="0"/>
        <pt x="175" y="627" on="1"/>
      </contour>
      <contour>
        <pt x="494" y="174" on="1"/>
        <pt x="494" y="290" on="1"/>
        <pt x="404" y="174" on="1"/>
      </contour>
    </TTGlyph>
    <TTGlyph name="onesuperior" xMin="34" yMin="418" xMax="199" yMax="717">
      <contour>
        <pt x="87" y="465" on="1"/>
        <pt x="87" y="644" on="1"/>
        <pt x="43" y="636" on="1"/>
        <pt x="34" y="683" on="1"/>
        <pt x="152" y="717" on="1"/>
        <pt x="163" y="701" on="1"/>
        <pt x="163" y="468" on="1"/>
        <pt x="199" y="460" on="1"/>
        <pt x="199" y="418" on="1"/>
        <pt x="52" y="418" on="1"/>
        <pt x="49" y="458" on="1"/>
      </contour>
    </TTGlyph>
    <TTGlyph name="ordfeminine" xMin="38" yMin="417" xMax="311" yMax="710">
      <contour>
        <pt x="206" y="443" on="1"/>
        <pt x="180" y="417" on="0"/>
        <pt x="92" y="417" on="0"/>
        <pt x="38" y="465" on="0"/>
        <pt x="38" y="531" on="0"/>
        <pt x="65" y="569" on="0"/>
        <pt x="87" y="579" on="1"/>
        <pt x="124" y="596" on="0"/>
        <pt x="194" y="596" on="1"/>
        <pt x="194" y="605" on="1"/>
        <pt x="194" y="628" on="0"/>
        <pt x="171" y="642" on="0"/>
        <pt x="160" y="642" on="1"/>
        <pt x="145" y="642" on="0"/>
        <pt x="130" y="639" on="1"/>
        <pt x="126" y="615" on="1"/>
        <pt x="39" y="632" on="1"/>
        <pt x="48" y="670" on="0"/>
        <pt x="84" y="692" on="1"/>
        <pt x="115" y="710" on="0"/>
        <pt x="200" y="710" on="0"/>
        <pt x="249" y="683" on="0"/>
        <pt x="271" y="637" on="0"/>
        <pt x="275" y="575" on="0"/>
        <pt x="275" y="502" on="0"/>
        <pt x="278" y="484" on="0"/>
        <pt x="283" y="484" on="1"/>
        <pt x="296" y="487" on="1"/>
        <pt x="311" y="441" on="1"/>
        <pt x="282" y="419" on="0"/>
        <pt x="221" y="419" on="0"/>
      </contour>
      <contour>
        <pt x="194" y="546" on="1"/>
        <pt x="118" y="546" on="0"/>
        <pt x="118" y="507" on="1"/>
        <pt x="118" y="497" on="0"/>
        <pt x="131" y="478" on="0"/>
        <pt x="149" y="478" on="1"/>
        <pt x="183" y="478" on="0"/>
        <pt x="194" y="503" on="1"/>
      </contour>
    </TTGlyph>
    <TTGlyph name="ordmasculine" xMin="34" yMin="414" xMax="300" yMax="711">
      <contour>
        <pt x="141" y="636" on="0"/>
        <pt x="114" y="592" on="0"/>
        <pt x="114" y="528" on="0"/>
        <pt x="141" y="488" on="0"/>
        <pt x="167" y="488" on="1"/>
        <pt x="193" y="488" on="0"/>
        <pt x="221" y="527" on="0"/>
        <pt x="221" y="593" on="0"/>
        <pt x="194" y="636" on="0"/>
      </contour>
      <contour>
        <pt x="44" y="497" on="1"/>
        <pt x="34" y="525" on="0"/>
        <pt x="34" y="600" on="0"/>
        <pt x="55" y="656" on="0"/>
        <pt x="73" y="674" on="1"/>
        <pt x="109" y="711" on="0"/>
        <pt x="167" y="711" on="1"/>
        <pt x="226" y="711" on="0"/>
        <pt x="262" y="674" on="1"/>
        <pt x="300" y="634" on="0"/>
        <pt x="300" y="563" on="1"/>
        <pt x="300" y="455" on="0"/>
        <pt x="220" y="424" on="1"/>
        <pt x="195" y="414" on="0"/>
        <pt x="167" y="414" on="1"/>
        <pt x="76" y="414" on="0"/>
      </contour>
    </TTGlyph>
    <TTGlyph name="oslash" xMin="36" yMin="-98" xMax="459" yMax="593">
      <contour>
        <pt x="114" y="45" on="1"/>
        <pt x="36" y="112" on="0"/>
        <pt x="36" y="243" on="1"/>
        <pt x="36" y="356" on="0"/>
        <pt x="100" y="424" on="1"/>
        <pt x="158" y="486" on="0"/>
        <pt x="248" y="486" on="1"/>
        <pt x="278" y="486" on="0"/>
        <pt x="309" y="477" on="1"/>
        <pt x="362" y="593" on="1"/>
        <pt x="447" y="593" on="1"/>
        <pt x="447" y="593" on="0"/>
        <pt x="446" y="580" on="1"/>
        <pt x="382" y="438" on="1"/>
        <pt x="459" y="370" on="0"/>
        <pt x="459" y="243" on="1"/>
        <pt x="459" y="127" on="0"/>
        <pt x="396" y="60" on="1"/>
        <pt x="336" y="-4" on="0"/>
        <pt x="248" y="-4" on="1"/>
        <pt x="218" y="-4" on="0"/>
        <pt x="186" y="5" on="1"/>
        <pt x="140" y="-98" on="1"/>
        <pt x="58" y="-98" on="1"/>
        <pt x="55" y="-85" on="1"/>
      </contour>
      <contour>
        <pt x="299" y="71" on="0"/>
        <pt x="364" y="152" on="0"/>
        <pt x="364" y="305" on="0"/>
        <pt x="341" y="348" on="1"/>
        <pt x="218" y="75" on="1"/>
        <pt x="230" y="71" on="0"/>
        <pt x="248" y="71" on="1"/>
      </contour>
      <contour>
        <pt x="277" y="405" on="1"/>
        <pt x="263" y="409" on="0"/>
        <pt x="248" y="409" on="1"/>
        <pt x="190" y="409" on="0"/>
        <pt x="131" y="313" on="0"/>
        <pt x="131" y="169" on="0"/>
        <pt x="152" y="130" on="1"/>
      </contour>
    </TTGlyph>
    <TTGlyph name="otilde" xMin="36" yMin="-4" xMax="460" yMax="679">
      <contour>
        <pt x="357" y="679" on="1"/>
        <pt x="413" y="613" on="1"/>
        <pt x="391" y="590" on="0"/>
        <pt x="348" y="559" on="0"/>
        <pt x="299" y="559" on="0"/>
        <pt x="270" y="570" on="0"/>
        <pt x="257" y="577" on="1"/>
        <pt x="224" y="595" on="0"/>
        <pt x="180" y="595" on="0"/>
        <pt x="153" y="567" on="0"/>
        <pt x="148" y="550" on="1"/>
        <pt x="94" y="584" on="1"/>
        <pt x="94" y="612" on="0"/>
        <pt x="120" y="640" on="1"/>
        <pt x="154" y="676" on="0"/>
        <pt x="200" y="676" on="1"/>
        <pt x="235" y="676" on="0"/>
        <pt x="286" y="647" on="1"/>
        <pt x="299" y="640" on="0"/>
        <pt x="310" y="636" on="1"/>
        <pt x="311" y="633" on="1"/>
      </contour>
      <contour>
        <pt x="131" y="154" on="0"/>
        <pt x="195" y="71" on="0"/>
        <pt x="299" y="71" on="0"/>
        <pt x="365" y="152" on="0"/>
        <pt x="365" y="318" on="0"/>
        <pt x="302" y="411" on="0"/>
        <pt x="248" y="411" on="1"/>
        <pt x="191" y="411" on="0"/>
        <pt x="160" y="362" on="1"/>
        <pt x="131" y="315" on="0"/>
      </contour>
      <contour>
        <pt x="36" y="245" on="1"/>
        <pt x="36" y="303" on="0"/>
        <pt x="70" y="393" on="0"/>
        <pt x="100" y="424" on="1"/>
        <pt x="158" y="486" on="0"/>
        <pt x="248" y="486" on="1"/>
        <pt x="340" y="486" on="0"/>
        <pt x="400" y="420" on="1"/>
        <pt x="460" y="354" on="0"/>
        <pt x="460" y="243" on="1"/>
        <pt x="460" y="127" on="0"/>
        <pt x="396" y="60" on="1"/>
        <pt x="337" y="-4" on="0"/>
        <pt x="248" y="-4" on="1"/>
        <pt x="155" y="-4" on="0"/>
        <pt x="96" y="64" on="1"/>
        <pt x="36" y="131" on="0"/>
      </contour>
    </TTGlyph>
    <TTGlyph name="p" xMin="19" yMin="-274" xMax="469" yMax="486">
      <contour>
        <pt x="171" y="457" on="1"/>
        <pt x="216" y="486" on="0"/>
        <pt x="316" y="486" on="0"/>
        <pt x="388" y="452" on="0"/>
        <pt x="414" y="421" on="1"/>
        <pt x="469" y="355" on="0"/>
        <pt x="469" y="247" on="1"/>
        <pt x="469" y="111" on="0"/>
        <pt x="395" y="46" on="1"/>
        <pt x="338" y="-4" on="0"/>
        <pt x="255" y="-4" on="1"/>
        <pt x="209" y="-4" on="0"/>
        <pt x="175" y="11" on="1"/>
        <pt x="175" y="-199" on="1"/>
        <pt x="297" y="-221" on="1"/>
        <pt x="297" y="-274" on="1"/>
        <pt x="35" y="-274" on="1"/>
        <pt x="23" y="-221" on="1"/>
        <pt x="85" y="-206" on="1"/>
        <pt x="85" y="409" on="1"/>
        <pt x="28" y="405" on="1"/>
        <pt x="19" y="465" on="1"/>
        <pt x="144" y="486" on="1"/>
      </contour>
      <contour>
        <pt x="175" y="378" on="1"/>
        <pt x="175" y="96" on="1"/>
        <pt x="184" y="86" on="0"/>
        <pt x="227" y="71" on="0"/>
        <pt x="271" y="71" on="0"/>
        <pt x="313" y="86" on="0"/>
        <pt x="332" y="106" on="1"/>
        <pt x="374" y="150" on="0"/>
        <pt x="374" y="241" on="1"/>
        <pt x="374" y="327" on="0"/>
        <pt x="338" y="371" on="1"/>
        <pt x="305" y="410" on="0"/>
        <pt x="207" y="410" on="0"/>
      </contour>
    </TTGlyph>
    <TTGlyph name="paragraph" xMin="28" yMin="-13" xMax="528" yMax="691">
      <contour>
        <pt x="350" y="133" on="1"/>
        <pt x="349" y="100" on="1"/>
        <pt x="349" y="60" on="0"/>
        <pt x="258" y="-13" on="1"/>
        <pt x="192" y="77" on="1"/>
        <pt x="260" y="120" on="1"/>
        <pt x="260" y="299" on="1"/>
        <pt x="150" y="304" on="0"/>
        <pt x="28" y="412" on="0"/>
        <pt x="28" y="500" on="1"/>
        <pt x="28" y="575" on="0"/>
        <pt x="74" y="626" on="1"/>
        <pt x="134" y="691" on="0"/>
        <pt x="247" y="691" on="1"/>
        <pt x="528" y="691" on="1"/>
        <pt x="528" y="611" on="1"/>
        <pt x="480" y="611" on="1"/>
        <pt x="480" y="0" on="1"/>
        <pt x="395" y="0" on="1"/>
        <pt x="395" y="611" on="1"/>
        <pt x="350" y="611" on="1"/>
      </contour>
    </TTGlyph>
    <TTGlyph name="parenleft" xMin="51" yMin="-162" xMax="244" yMax="742">
      <contour>
        <pt x="153" y="-147" on="1"/>
        <pt x="90" y="-20" on="0"/>
        <pt x="62" y="148" on="1"/>
        <pt x="51" y="215" on="0"/>
        <pt x="51" y="371" on="0"/>
        <pt x="73" y="510" on="0"/>
        <pt x="89" y="567" on="1"/>
        <pt x="117" y="665" on="0"/>
        <pt x="160" y="742" on="1"/>
        <pt x="244" y="742" on="1"/>
        <pt x="179" y="612" on="0"/>
        <pt x="155" y="433" on="1"/>
        <pt x="146" y="366" on="0"/>
        <pt x="146" y="214" on="0"/>
        <pt x="167" y="77" on="0"/>
        <pt x="182" y="20" on="1"/>
        <pt x="203" y="-61" on="0"/>
        <pt x="244" y="-162" on="1"/>
        <pt x="160" y="-162" on="1"/>
      </contour>
    </TTGlyph>
    <TTGlyph name="parenright" xMin="32" yMin="-162" xMax="225" yMax="742">
      <contour>
        <pt x="116" y="742" on="1"/>
        <pt x="225" y="538" on="0"/>
        <pt x="225" y="290" on="1"/>
        <pt x="225" y="160" on="0"/>
        <pt x="188" y="25" on="1"/>
        <pt x="165" y="-57" on="0"/>
        <pt x="123" y="-147" on="1"/>
        <pt x="116" y="-162" on="1"/>
        <pt x="32" y="-162" on="1"/>
        <pt x="73" y="-61" on="0"/>
        <pt x="91" y="8" on="1"/>
        <pt x="130" y="158" on="0"/>
        <pt x="130" y="291" on="1"/>
        <pt x="130" y="546" on="0"/>
        <pt x="32" y="742" on="1"/>
      </contour>
    </TTGlyph>
    <TTGlyph name="percent" xMin="31" yMin="-4" xMax="689" yMax="691">
      <contour>
        <pt x="31" y="517" on="1"/>
        <pt x="31" y="547" on="0"/>
        <pt x="48" y="608" on="0"/>
        <pt x="65" y="633" on="1"/>
        <pt x="104" y="690" on="0"/>
        <pt x="172" y="690" on="1"/>
        <pt x="240" y="690" on="0"/>
        <pt x="278" y="638" on="1"/>
        <pt x="313" y="589" on="0"/>
        <pt x="313" y="518" on="1"/>
        <pt x="313" y="443" on="0"/>
        <pt x="274" y="393" on="1"/>
        <pt x="235" y="342" on="0"/>
        <pt x="172" y="342" on="1"/>
        <pt x="102" y="342" on="0"/>
        <pt x="64" y="400" on="1"/>
        <pt x="31" y="449" on="0"/>
      </contour>
      <contour>
        <pt x="140" y="625" on="0"/>
        <pt x="105" y="562" on="0"/>
        <pt x="105" y="471" on="0"/>
        <pt x="142" y="408" on="0"/>
        <pt x="172" y="408" on="1"/>
        <pt x="202" y="408" on="0"/>
        <pt x="238" y="472" on="0"/>
        <pt x="238" y="563" on="0"/>
        <pt x="203" y="625" on="0"/>
      </contour>
      <contour>
        <pt x="408" y="170" on="1"/>
        <pt x="408" y="238" on="0"/>
        <pt x="442" y="286" on="1"/>
        <pt x="481" y="343" on="0"/>
        <pt x="548" y="343" on="1"/>
        <pt x="616" y="343" on="0"/>
        <pt x="654" y="290" on="1"/>
        <pt x="689" y="243" on="0"/>
        <pt x="689" y="170" on="1"/>
        <pt x="689" y="96" on="0"/>
        <pt x="651" y="46" on="1"/>
        <pt x="612" y="-4" on="0"/>
        <pt x="548" y="-4" on="1"/>
        <pt x="480" y="-4" on="0"/>
        <pt x="441" y="53" on="1"/>
        <pt x="408" y="102" on="0"/>
      </contour>
      <contour>
        <pt x="516" y="278" on="0"/>
        <pt x="483" y="215" on="0"/>
        <pt x="483" y="123" on="0"/>
        <pt x="519" y="61" on="0"/>
        <pt x="579" y="61" on="0"/>
        <pt x="614" y="124" on="0"/>
        <pt x="614" y="170" on="1"/>
        <pt x="614" y="216" on="0"/>
        <pt x="579" y="278" on="0"/>
      </contour>
      <contour>
        <pt x="615" y="691" on="1"/>
        <pt x="619" y="677" on="1"/>
        <pt x="181" y="0" on="1"/>
        <pt x="94" y="0" on="1"/>
        <pt x="88" y="13" on="1"/>
        <pt x="531" y="691" on="1"/>
      </contour>
    </TTGlyph>
    <TTGlyph name="period" xMin="45" yMin="-4" xMax="164" yMax="114">
      <contour>
        <pt x="79" y="-4" on="0"/>
        <pt x="45" y="30" on="0"/>
        <pt x="45" y="80" on="0"/>
        <pt x="79" y="114" on="0"/>
        <pt x="128" y="114" on="0"/>
        <pt x="164" y="79" on="0"/>
        <pt x="164" y="31" on="0"/>
        <pt x="129" y="-4" on="0"/>
      </contour>
    </TTGlyph>
    <TTGlyph name="periodcentered" xMin="59" yMin="239" xMax="179" yMax="399">
      <contour>
        <pt x="179" y="384" on="1"/>
        <pt x="178" y="239" on="1"/>
        <pt x="59" y="239" on="1"/>
        <pt x="59" y="399" on="1"/>
        <pt x="166" y="399" on="1"/>
      </contour>
    </TTGlyph>
    <TTGlyph name="plus" xMin="34" yMin="165" xMax="365" yMax="518">
      <contour>
        <pt x="240" y="518" on="1"/>
        <pt x="240" y="390" on="1"/>
        <pt x="365" y="390" on="1"/>
        <pt x="365" y="315" on="1"/>
        <pt x="240" y="315" on="1"/>
        <pt x="240" y="165" on="1"/>
        <pt x="178" y="165" on="1"/>
        <pt x="165" y="177" on="1"/>
        <pt x="165" y="315" on="1"/>
        <pt x="34" y="315" on="1"/>
        <pt x="34" y="376" on="1"/>
        <pt x="47" y="390" on="1"/>
        <pt x="165" y="390" on="1"/>
        <pt x="165" y="518" on="1"/>
      </contour>
    </TTGlyph>
    <TTGlyph name="plusminus" xMin="63" yMin="169" xMax="392" yMax="604">
      <contour>
        <pt x="189" y="487" on="1"/>
        <pt x="189" y="604" on="1"/>
        <pt x="265" y="604" on="1"/>
        <pt x="265" y="487" on="1"/>
        <pt x="392" y="487" on="1"/>
        <pt x="392" y="411" on="1"/>
        <pt x="265" y="411" on="1"/>
        <pt x="265" y="282" on="1"/>
        <pt x="189" y="282" on="1"/>
        <pt x="189" y="411" on="1"/>
        <pt x="63" y="411" on="1"/>
        <pt x="63" y="487" on="1"/>
      </contour>
      <contour>
        <pt x="392" y="245" on="1"/>
        <pt x="392" y="169" on="1"/>
        <pt x="63" y="169" on="1"/>
        <pt x="63" y="245" on="1"/>
      </contour>
    </TTGlyph>
</ttFont>
